  0
SECTION
  2
HEADER
  9
$ACADVER
  1
AC1014
  9
$HANDSEED
  5
FFFF
  9
$MEASUREMENT
 70
     1
  0
ENDSEC
  0
SECTION
  2
TABLES
  0
TABLE
  2
VPORT
  5
8
330
0
100
AcDbSymbolTable
 70
     4
  0
VPORT
  5
2E
330
8
100
AcDbSymbolTableRecord
100
AcDbViewportTableRecord
  2
*ACTIVE
 70
     0
 10
0.0
 20
0.0
 11
1.0
 21
1.0
 12
210.0
 22
148.5
 13
0.0
 23
0.0
 14
10.0
 24
10.0
 15
10.0
 25
10.0
 16
0.0
 26
0.0
 36
1.0
 17
0.0
 27
0.0
 37
0.0
 40
341.0
 41
1.24
 42
50.0
 43
0.0
 44
0.0
 50
0.0
 51
0.0
 71
     0
 72
   100
 73
     1
 74
     3
 75
     0
 76
     0
 77
     0
 78
     0
  0
ENDTAB
  0
TABLE
  2
LTYPE
  5
5
330
0
100
AcDbSymbolTable
 70
     1
  0
LTYPE
  5
14
330
5
100
AcDbSymbolTableRecord
100
AcDbLinetypeTableRecord
  2
BYBLOCK
 70
     0
  3

 72
    65
 73
     0
 40
0.0
  0
LTYPE
  5
15
330
5
100
AcDbSymbolTableRecord
100
AcDbLinetypeTableRecord
  2
BYLAYER
 70
     0
  3

 72
    65
 73
     0
 40
0.0
  0
LTYPE
  5
16
330
5
100
AcDbSymbolTableRecord
100
AcDbLinetypeTableRecord
  2
CONTINUOUS
 70
     0
  3
Solid line
 72
    65
 73
     0
 40
0.0
  0
ENDTAB
  0
TABLE
  2
LAYER
  5
2
100
AcDbSymbolTable
 70
1
  0
LAYER
  5
50
100
AcDbSymbolTableRecord
100
AcDbLayerTableRecord
  2
0
 70
0
  6
CONTINUOUS
  0
ENDTAB
  0
TABLE
  2
STYLE
  5
3
330
0
100
AcDbSymbolTable
 70
     1
  0
STYLE
  5
11
330
3
100
AcDbSymbolTableRecord
100
AcDbTextStyleTableRecord
  2
STANDARD
 70
     0
 40
0.0
 41
1.0
 50
0.0
 71
     0
 42
2.5
  3
txt
  4

  0
ENDTAB
  0
TABLE
  2
VIEW
  5
6
330
0
100
AcDbSymbolTable
 70
     0
  0
ENDTAB
  0
TABLE
  2
UCS
  5
7
330
0
100
AcDbSymbolTable
 70
     0
  0
ENDTAB
  0
TABLE
  2
APPID
  5
9
330
0
100
AcDbSymbolTable
 70
     2
  0
APPID
  5
12
330
9
100
AcDbSymbolTableRecord
100
AcDbRegAppTableRecord
  2
ACAD
 70
     0
  0
ENDTAB
  0
TABLE
  2
DIMSTYLE
  5
A
330
0
100
AcDbSymbolTable
 70
     1
  0
DIMSTYLE
105
27
330
A
100
AcDbSymbolTableRecord
100
AcDbDimStyleTableRecord
  2
ISO-25
 70
     0
  3

  4

  5

  6

  7

 40
1.0
 41
2.5
 42
0.625
 43
3.75
 44
1.25
 45
0.0
 46
0.0
 47
0.0
 48
0.0
140
2.5
141
2.5
142
0.0
143
0.03937007874016
144
1.0
145
0.0
146
1.0
147
0.625
 71
     0
 72
     0
 73
     0
 74
     0
 75
     0
 76
     0
 77
     1
 78
     8
170
     0
171
     3
172
     1
173
     0
174
     0
175
     0
176
     0
177
     0
178
     0
270
     2
271
     2
272
     2
273
     2
274
     3
340
11
275
     0
280
     0
281
     0
282
     0
283
     0
284
     8
285
     0
286
     0
287
     3
288
     0
  0
ENDTAB
  0
TABLE
  2
BLOCK_RECORD
  5
1
330
0
100
AcDbSymbolTable
 70
     1
  0
BLOCK_RECORD
  5
1F
330
1
100
AcDbSymbolTableRecord
100
AcDbBlockTableRecord
  2
*MODEL_SPACE
  0
BLOCK_RECORD
  5
1B
330
1
100
AcDbSymbolTableRecord
100
AcDbBlockTableRecord
  2
*PAPER_SPACE
  0
ENDTAB
  0
ENDSEC
  0
SECTION
  2
BLOCKS
  0
BLOCK
  5
20
330
1F
100
AcDbEntity
  8
0
100
AcDbBlockBegin
  2
*MODEL_SPACE
 70
     0
 10
0.0
 20
0.0
 30
0.0
  3
*MODEL_SPACE
  1

  0
ENDBLK
  5
21
330
1F
100
AcDbEntity
  8
0
100
AcDbBlockEnd
  0
BLOCK
  5
1C
330
1B
100
AcDbEntity
 67
     1
  8
0
100
AcDbBlockBegin
  2
*PAPER_SPACE
  1

  0
ENDBLK
  5
1D
330
1B
100
AcDbEntity
 67
     1
  8
0
100
AcDbBlockEnd
  0
ENDSEC
  0
SECTION
  2
ENTITIES
  0
SPLINE
  5
100
100
AcDbEntity
  8
0
 62
7
100
AcDbSpline
 70
8
 71
3
 72
8
 73
4
 74
0
 40
0
 40
0
 40
0
 40
0
 40
1
 40
1
 40
1
 40
1
 10
15.037155
 20
0.160621
 30
0.0
 10
14.002110
 20
0.462076
 30
0.0
 10
13.365817
 20
0.906926
 30
0.0
 10
12.874483
 20
1.672603
 30
0.0
  0
SPLINE
  5
101
100
AcDbEntity
  8
0
 62
7
100
AcDbSpline
 70
8
 71
3
 72
8
 73
4
 74
0
 40
0
 40
0
 40
0
 40
0
 40
1
 40
1
 40
1
 40
1
 10
12.874483
 20
1.672603
 30
0.0
 10
11.834895
 20
3.292660
 30
0.0
 10
11.723151
 20
6.972681
 30
0.0
 10
12.657553
 20
8.816636
 30
0.0
  0
SPLINE
  5
102
100
AcDbEntity
  8
0
 62
7
100
AcDbSpline
 70
8
 71
3
 72
8
 73
4
 74
0
 40
0
 40
0
 40
0
 40
0
 40
1
 40
1
 40
1
 40
1
 10
12.657553
 20
8.816636
 30
0.0
 10
13.157677
 20
9.803580
 30
0.0
 10
14.099339
 20
10.506535
 30
0.0
 10
15.239932
 20
10.744390
 30
0.0
  0
SPLINE
  5
103
100
AcDbEntity
  8
0
 62
7
100
AcDbSpline
 70
8
 71
3
 72
8
 73
4
 74
0
 40
0
 40
0
 40
0
 40
0
 40
1
 40
1
 40
1
 40
1
 10
15.239932
 20
10.744390
 30
0.0
 10
15.896217
 20
10.881252
 30
0.0
 10
17.227918
 20
10.863363
 30
0.0
 10
17.883114
 20
10.708889
 30
0.0
  0
SPLINE
  5
104
100
AcDbEntity
  8
0
 62
7
100
AcDbSpline
 70
8
 71
3
 72
8
 73
4
 74
0
 40
0
 40
0
 40
0
 40
0
 40
1
 40
1
 40
1
 40
1
 10
17.883114
 20
10.708889
 30
0.0
 10
20.117854
 20
10.182003
 30
0.0
 10
21.079720
 20
8.420296
 30
0.0
 10
20.964533
 20
5.065117
 30
0.0
  0
SPLINE
  5
105
100
AcDbEntity
  8
0
 62
7
100
AcDbSpline
 70
8
 71
3
 72
8
 73
4
 74
0
 40
0
 40
0
 40
0
 40
0
 40
1
 40
1
 40
1
 40
1
 10
20.964533
 20
5.065117
 30
0.0
 10
20.895721
 20
3.060700
 30
0.0
 10
20.505161
 20
1.894131
 30
0.0
 10
19.623855
 20
1.060630
 30
0.0
  0
SPLINE
  5
106
100
AcDbEntity
  8
0
 62
7
100
AcDbSpline
 70
8
 71
3
 72
8
 73
4
 74
0
 40
0
 40
0
 40
0
 40
0
 40
1
 40
1
 40
1
 40
1
 10
19.623855
 20
1.060630
 30
0.0
 10
19.078708
 20
0.545050
 30
0.0
 10
18.625709
 20
0.301977
 30
0.0
 10
17.884201
 20
0.127156
 30
0.0
  0
SPLINE
  5
107
100
AcDbEntity
  8
0
 62
7
100
AcDbSpline
 70
8
 71
3
 72
8
 73
4
 74
0
 40
0
 40
0
 40
0
 40
0
 40
1
 40
1
 40
1
 40
1
 10
17.884201
 20
0.127156
 30
0.0
 10
17.127940
 20
-0.051144
 30
0.0
 10
15.706903
 20
-0.034441
 30
0.0
 10
15.037155
 20
0.160621
 30
0.0
  0
SPLINE
  5
108
100
AcDbEntity
  8
0
 62
7
100
AcDbSpline
 70
8
 71
3
 72
8
 73
4
 74
0
 40
0
 40
0
 40
0
 40
0
 40
1
 40
1
 40
1
 40
1
 10
17.863908
 20
1.535692
 30
0.0
 10
19.033072
 20
2.107713
 30
0.0
 10
19.453043
 20
3.287149
 30
0.0
 10
19.381727
 20
5.798304
 30
0.0
  0
SPLINE
  5
109
100
AcDbEntity
  8
0
 62
7
100
AcDbSpline
 70
8
 71
3
 72
8
 73
4
 74
0
 40
0
 40
0
 40
0
 40
0
 40
1
 40
1
 40
1
 40
1
 10
19.381727
 20
5.798304
 30
0.0
 10
19.330607
 20
7.598304
 30
0.0
 10
19.158961
 20
8.187166
 30
0.0
 10
18.491089
 20
8.853763
 30
0.0
  0
SPLINE
  5
10a
100
AcDbEntity
  8
0
 62
7
100
AcDbSpline
 70
8
 71
3
 72
8
 73
4
 74
0
 40
0
 40
0
 40
0
 40
0
 40
1
 40
1
 40
1
 40
1
 10
18.491089
 20
8.853763
 30
0.0
 10
17.935925
 20
9.407866
 30
0.0
 10
17.468821
 20
9.565373
 30
0.0
 10
16.404167
 20
9.557470
 30
0.0
  0
SPLINE
  5
10b
100
AcDbEntity
  8
0
 62
7
100
AcDbSpline
 70
8
 71
3
 72
8
 73
4
 74
0
 40
0
 40
0
 40
0
 40
0
 40
1
 40
1
 40
1
 40
1
 10
16.404167
 20
9.557470
 30
0.0
 10
14.643638
 20
9.544399
 30
0.0
 10
13.867109
 20
8.671033
 30
0.0
 10
13.645624
 20
6.454910
 30
0.0
  0
SPLINE
  5
10c
100
AcDbEntity
  8
0
 62
7
100
AcDbSpline
 70
8
 71
3
 72
8
 73
4
 74
0
 40
0
 40
0
 40
0
 40
0
 40
1
 40
1
 40
1
 40
1
 10
13.645624
 20
6.454910
 30
0.0
 10
13.474804
 20
4.745755
 30
0.0
 10
13.732725
 20
3.070614
 30
0.0
 10
14.292477
 20
2.253708
 30
0.0
  0
SPLINE
  5
10d
100
AcDbEntity
  8
0
 62
7
100
AcDbSpline
 70
8
 71
3
 72
8
 73
4
 74
0
 40
0
 40
0
 40
0
 40
0
 40
1
 40
1
 40
1
 40
1
 10
14.292477
 20
2.253708
 30
0.0
 10
14.950374
 20
1.293572
 30
0.0
 10
16.664612
 20
0.948933
 30
0.0
 10
17.863908
 20
1.535692
 30
0.0
  0
LWPOLYLINE
  5
10e
100
AcDbEntity
  8
0
 62
7
100
AcDbPolyline
 90
1
 70
1
 10
15.037155
 20
0.160621
 30
0.0
  0
SPLINE
  5
10f
100
AcDbEntity
  8
0
 62
7
100
AcDbSpline
 70
8
 71
3
 72
8
 73
4
 74
0
 40
0
 40
0
 40
0
 40
0
 40
1
 40
1
 40
1
 40
1
 10
33.117015
 20
0.160621
 30
0.0
 10
32.081970
 20
0.462076
 30
0.0
 10
31.445679
 20
0.906926
 30
0.0
 10
30.954345
 20
1.672603
 30
0.0
  0
SPLINE
  5
110
100
AcDbEntity
  8
0
 62
7
100
AcDbSpline
 70
8
 71
3
 72
8
 73
4
 74
0
 40
0
 40
0
 40
0
 40
0
 40
1
 40
1
 40
1
 40
1
 10
30.954345
 20
1.672603
 30
0.0
 10
30.340887
 20
2.628590
 30
0.0
 10
30.004943
 20
4.438642
 30
0.0
 10
30.120087
 20
6.167549
 30
0.0
  0
SPLINE
  5
111
100
AcDbEntity
  8
0
 62
7
100
AcDbSpline
 70
8
 71
3
 72
8
 73
4
 74
0
 40
0
 40
0
 40
0
 40
0
 40
1
 40
1
 40
1
 40
1
 10
30.120087
 20
6.167549
 30
0.0
 10
30.234117
 20
7.879771
 30
0.0
 10
30.674135
 20
9.060225
 30
0.0
 10
31.478956
 20
9.813039
 30
0.0
  0
SPLINE
  5
112
100
AcDbEntity
  8
0
 62
7
100
AcDbSpline
 70
8
 71
3
 72
8
 73
4
 74
0
 40
0
 40
0
 40
0
 40
0
 40
1
 40
1
 40
1
 40
1
 10
31.478956
 20
9.813039
 30
0.0
 10
32.251094
 20
10.535285
 30
0.0
 10
33.184817
 20
10.842821
 30
0.0
 10
34.598613
 20
10.840551
 30
0.0
  0
SPLINE
  5
113
100
AcDbEntity
  8
0
 62
7
100
AcDbSpline
 70
8
 71
3
 72
8
 73
4
 74
0
 40
0
 40
0
 40
0
 40
0
 40
1
 40
1
 40
1
 40
1
 10
34.598613
 20
10.840551
 30
0.0
 10
37.120976
 20
10.836503
 30
0.0
 10
38.523791
 20
9.669931
 30
0.0
 10
38.945309
 20
7.225882
 30
0.0
  0
SPLINE
  5
114
100
AcDbEntity
  8
0
 62
7
100
AcDbSpline
 70
8
 71
3
 72
8
 73
4
 74
0
 40
0
 40
0
 40
0
 40
0
 40
1
 40
1
 40
1
 40
1
 10
38.945309
 20
7.225882
 30
0.0
 10
39.125041
 20
6.183768
 30
0.0
 10
39.075881
 20
4.026215
 30
0.0
 10
38.853877
 20
3.213034
 30
0.0
  0
SPLINE
  5
115
100
AcDbEntity
  8
0
 62
7
100
AcDbSpline
 70
8
 71
3
 72
8
 73
4
 74
0
 40
0
 40
0
 40
0
 40
0
 40
1
 40
1
 40
1
 40
1
 10
38.853877
 20
3.213034
 30
0.0
 10
38.238573
 20
0.959242
 30
0.0
 10
36.922461
 20
-0.016989
 30
0.0
 10
34.522492
 20
0.000220
 30
0.0
  0
SPLINE
  5
116
100
AcDbEntity
  8
0
 62
7
100
AcDbSpline
 70
8
 71
3
 72
8
 73
4
 74
0
 40
0
 40
0
 40
0
 40
0
 40
1
 40
1
 40
1
 40
1
 10
34.522492
 20
0.000220
 30
0.0
 10
33.966539
 20
0.004215
 30
0.0
 10
33.452731
 20
0.062844
 30
0.0
 10
33.117015
 20
0.160621
 30
0.0
  0
LWPOLYLINE
  5
117
100
AcDbEntity
  8
0
 62
7
100
AcDbPolyline
 90
1
 70
1
 10
17.863908
 20
1.535692
 30
0.0
  0
SPLINE
  5
118
100
AcDbEntity
  8
0
 62
7
100
AcDbSpline
 70
8
 71
3
 72
8
 73
4
 74
0
 40
0
 40
0
 40
0
 40
0
 40
1
 40
1
 40
1
 40
1
 10
35.943768
 20
1.535692
 30
0.0
 10
37.040939
 20
2.072489
 30
0.0
 10
37.483299
 20
3.194209
 30
0.0
 10
37.481973
 20
5.436224
 30
0.0
  0
SPLINE
  5
119
100
AcDbEntity
  8
0
 62
7
100
AcDbSpline
 70
8
 71
3
 72
8
 73
4
 74
0
 40
0
 40
0
 40
0
 40
0
 40
1
 40
1
 40
1
 40
1
 10
37.481973
 20
5.436224
 30
0.0
 10
37.480915
 20
7.412501
 30
0.0
 10
37.240125
 20
8.274727
 30
0.0
 10
36.505184
 20
8.935500
 30
0.0
  0
SPLINE
  5
11a
100
AcDbEntity
  8
0
 62
7
100
AcDbSpline
 70
8
 71
3
 72
8
 73
4
 74
0
 40
0
 40
0
 40
0
 40
0
 40
1
 40
1
 40
1
 40
1
 10
36.505184
 20
8.935500
 30
0.0
 10
35.976404
 20
9.410920
 30
0.0
 10
35.470700
 20
9.565219
 30
0.0
 10
34.471528
 20
9.556007
 30
0.0
  0
SPLINE
  5
11b
100
AcDbEntity
  8
0
 62
7
100
AcDbSpline
 70
8
 71
3
 72
8
 73
4
 74
0
 40
0
 40
0
 40
0
 40
0
 40
1
 40
1
 40
1
 40
1
 10
34.471528
 20
9.556007
 30
0.0
 10
32.789400
 20
9.540502
 30
0.0
 10
31.990911
 20
8.698447
 30
0.0
 10
31.741364
 20
6.676903
 30
0.0
  0
SPLINE
  5
11c
100
AcDbEntity
  8
0
 62
7
100
AcDbSpline
 70
8
 71
3
 72
8
 73
4
 74
0
 40
0
 40
0
 40
0
 40
0
 40
1
 40
1
 40
1
 40
1
 10
31.741364
 20
6.676903
 30
0.0
 10
31.561087
 20
5.216512
 30
0.0
 10
31.759170
 20
3.397970
 30
0.0
 10
32.190656
 20
2.552200
 30
0.0
  0
SPLINE
  5
11d
100
AcDbEntity
  8
0
 62
7
100
AcDbSpline
 70
8
 71
3
 72
8
 73
4
 74
0
 40
0
 40
0
 40
0
 40
0
 40
1
 40
1
 40
1
 40
1
 10
32.190656
 20
2.552200
 30
0.0
 10
32.381714
 20
2.177693
 30
0.0
 10
32.838030
 20
1.708155
 30
0.0
 10
33.189900
 20
1.524005
 30
0.0
  0
SPLINE
  5
11e
100
AcDbEntity
  8
0
 62
7
100
AcDbSpline
 70
8
 71
3
 72
8
 73
4
 74
0
 40
0
 40
0
 40
0
 40
0
 40
1
 40
1
 40
1
 40
1
 10
33.189900
 20
1.524005
 30
0.0
 10
33.882319
 20
1.161629
 30
0.0
 10
35.190554
 20
1.167180
 30
0.0
 10
35.943768
 20
1.535700
 30
0.0
  0
LWPOLYLINE
  5
11f
100
AcDbEntity
  8
0
 62
7
100
AcDbPolyline
 90
1
 70
1
 10
33.117015
 20
0.160621
 30
0.0
  0
SPLINE
  5
120
100
AcDbEntity
  8
0
 62
7
100
AcDbSpline
 70
8
 71
3
 72
8
 73
4
 74
0
 40
0
 40
0
 40
0
 40
0
 40
1
 40
1
 40
1
 40
1
 10
42.509723
 20
0.057213
 30
0.0
 10
41.929838
 20
0.123058
 30
0.0
 10
40.437308
 20
0.445884
 30
0.0
 10
40.359806
 20
0.522229
 30
0.0
  0
SPLINE
  5
121
100
AcDbEntity
  8
0
 62
7
100
AcDbSpline
 70
8
 71
3
 72
8
 73
4
 74
0
 40
0
 40
0
 40
0
 40
0
 40
1
 40
1
 40
1
 40
1
 10
40.359806
 20
0.522229
 30
0.0
 10
40.315515
 20
0.565859
 30
0.0
 10
40.329908
 20
0.849892
 30
0.0
 10
40.393482
 20
1.186823
 30
0.0
  0
LWPOLYLINE
  5
122
100
AcDbEntity
  8
0
 62
7
100
AcDbPolyline
 90
1
 70
1
 10
35.943768
 20
1.535700
 30
0.0
  0
SPLINE
  5
123
100
AcDbEntity
  8
0
 62
7
100
AcDbSpline
 70
8
 71
3
 72
8
 73
4
 74
0
 40
0
 40
0
 40
0
 40
0
 40
1
 40
1
 40
1
 40
1
 10
40.779510
 20
1.717175
 30
0.0
 10
42.026224
 20
1.454023
 30
0.0
 10
42.698654
 20
1.374921
 30
0.0
 10
43.744446
 20
1.368388
 30
0.0
  0
SPLINE
  5
124
100
AcDbEntity
  8
0
 62
7
100
AcDbSpline
 70
8
 71
3
 72
8
 73
4
 74
0
 40
0
 40
0
 40
0
 40
0
 40
1
 40
1
 40
1
 40
1
 10
43.744446
 20
1.368388
 30
0.0
 10
44.747273
 20
1.362117
 30
0.0
 10
44.983757
 20
1.386909
 30
0.0
 10
45.243750
 20
1.525606
 30
0.0
  0
SPLINE
  5
125
100
AcDbEntity
  8
0
 62
7
100
AcDbSpline
 70
8
 71
3
 72
8
 73
4
 74
0
 40
0
 40
0
 40
0
 40
0
 40
1
 40
1
 40
1
 40
1
 10
45.243750
 20
1.525606
 30
0.0
 10
45.928632
 20
1.890937
 30
0.0
 10
46.214067
 20
2.314908
 30
0.0
 10
46.213559
 20
2.966119
 30
0.0
  0
SPLINE
  5
126
100
AcDbEntity
  8
0
 62
7
100
AcDbSpline
 70
8
 71
3
 72
8
 73
4
 74
0
 40
0
 40
0
 40
0
 40
0
 40
1
 40
1
 40
1
 40
1
 10
46.213559
 20
2.966119
 30
0.0
 10
46.212765
 20
3.826478
 30
0.0
 10
45.651089
 20
4.276159
 30
0.0
 10
43.975904
 20
4.757206
 30
0.0
  0
SPLINE
  5
127
100
AcDbEntity
  8
0
 62
7
100
AcDbSpline
 70
8
 71
3
 72
8
 73
4
 74
0
 40
0
 40
0
 40
0
 40
0
 40
1
 40
1
 40
1
 40
1
 10
43.975904
 20
4.757206
 30
0.0
 10
41.483788
 20
5.472840
 30
0.0
 10
40.437887
 20
6.469031
 30
0.0
 10
40.446399
 20
8.118957
 30
0.0
  0
SPLINE
  5
128
100
AcDbEntity
  8
0
 62
7
100
AcDbSpline
 70
8
 71
3
 72
8
 73
4
 74
0
 40
0
 40
0
 40
0
 40
0
 40
1
 40
1
 40
1
 40
1
 10
40.446399
 20
8.118957
 30
0.0
 10
40.455580
 20
9.898941
 30
0.0
 10
41.730980
 20
10.838140
 30
0.0
 10
44.141321
 20
10.839884
 30
0.0
  0
SPLINE
  5
129
100
AcDbEntity
  8
0
 62
7
100
AcDbSpline
 70
8
 71
3
 72
8
 73
4
 74
0
 40
0
 40
0
 40
0
 40
0
 40
1
 40
1
 40
1
 40
1
 10
44.141321
 20
10.839884
 30
0.0
 10
45.284771
 20
10.840678
 30
0.0
 10
47.241172
 20
10.527721
 30
0.0
 10
47.484721
 20
10.305000
 30
0.0
  0
SPLINE
  5
12a
100
AcDbEntity
  8
0
 62
7
100
AcDbSpline
 70
8
 71
3
 72
8
 73
4
 74
0
 40
0
 40
0
 40
0
 40
0
 40
1
 40
1
 40
1
 40
1
 10
47.484721
 20
10.305000
 30
0.0
 10
47.570977
 20
10.226117
 30
0.0
 10
47.296903
 20
9.077965
 30
0.0
 10
47.191816
 20
9.077965
 30
0.0
  0
SPLINE
  5
12b
100
AcDbEntity
  8
0
 62
7
100
AcDbSpline
 70
8
 71
3
 72
8
 73
4
 74
0
 40
0
 40
0
 40
0
 40
0
 40
1
 40
1
 40
1
 40
1
 10
47.191816
 20
9.077965
 30
0.0
 10
47.158365
 20
9.077965
 30
0.0
 10
46.775820
 20
9.156983
 30
0.0
 10
46.341713
 20
9.253559
 30
0.0
  0
SPLINE
  5
12c
100
AcDbEntity
  8
0
 62
7
100
AcDbSpline
 70
8
 71
3
 72
8
 73
4
 74
0
 40
0
 40
0
 40
0
 40
0
 40
1
 40
1
 40
1
 40
1
 10
46.341713
 20
9.253559
 30
0.0
 10
45.293426
 20
9.486776
 30
0.0
 10
43.924971
 20
9.570339
 30
0.0
 10
43.298144
 20
9.439415
 30
0.0
  0
SPLINE
  5
12d
100
AcDbEntity
  8
0
 62
7
100
AcDbSpline
 70
8
 71
3
 72
8
 73
4
 74
0
 40
0
 40
0
 40
0
 40
0
 40
1
 40
1
 40
1
 40
1
 10
43.298144
 20
9.439415
 30
0.0
 10
42.094150
 20
9.187934
 30
0.0
 10
41.603017
 20
8.027046
 30
0.0
 10
42.343716
 20
7.183432
 30
0.0
  0
SPLINE
  5
12e
100
AcDbEntity
  8
0
 62
7
100
AcDbSpline
 70
8
 71
3
 72
8
 73
4
 74
0
 40
0
 40
0
 40
0
 40
0
 40
1
 40
1
 40
1
 40
1
 10
42.343716
 20
7.183432
 30
0.0
 10
42.697273
 20
6.780755
 30
0.0
 10
43.310638
 20
6.496031
 30
0.0
 10
44.536138
 20
6.165712
 30
0.0
  0
SPLINE
  5
12f
100
AcDbEntity
  8
0
 62
7
100
AcDbSpline
 70
8
 71
3
 72
8
 73
4
 74
0
 40
0
 40
0
 40
0
 40
0
 40
1
 40
1
 40
1
 40
1
 10
44.536138
 20
6.165712
 30
0.0
 10
46.383562
 20
5.667764
 30
0.0
 10
47.245974
 20
5.083667
 30
0.0
 10
47.627588
 20
4.071930
 30
0.0
  0
SPLINE
  5
130
100
AcDbEntity
  8
0
 62
7
100
AcDbSpline
 70
8
 71
3
 72
8
 73
4
 74
0
 40
0
 40
0
 40
0
 40
0
 40
1
 40
1
 40
1
 40
1
 10
47.627588
 20
4.071930
 30
0.0
 10
47.891893
 20
3.371202
 30
0.0
 10
47.843207
 20
2.347987
 30
0.0
 10
47.515383
 20
1.713727
 30
0.0
  0
SPLINE
  5
131
100
AcDbEntity
  8
0
 62
7
100
AcDbSpline
 70
8
 71
3
 72
8
 73
4
 74
0
 40
0
 40
0
 40
0
 40
0
 40
1
 40
1
 40
1
 40
1
 10
47.515383
 20
1.713727
 30
0.0
 10
47.082567
 20
0.876332
 30
0.0
 10
46.229360
 20
0.285774
 30
0.0
 10
45.159115
 20
0.082807
 30
0.0
  0
SPLINE
  5
132
100
AcDbEntity
  8
0
 62
7
100
AcDbSpline
 70
8
 71
3
 72
8
 73
4
 74
0
 40
0
 40
0
 40
0
 40
0
 40
1
 40
1
 40
1
 40
1
 10
45.159115
 20
0.082807
 30
0.0
 10
44.711702
 20
-0.002045
 30
0.0
 10
43.163339
 20
-0.016999
 30
0.0
 10
42.509723
 20
0.057221
 30
0.0
  0
LWPOLYLINE
  5
133
100
AcDbEntity
  8
0
 62
7
100
AcDbPolyline
 90
3
 70
0
 10
40.393482
 20
1.186823
 30
0.0
 10
40.504507
 20
1.775222
 30
0.0
 10
40.779510
 20
1.717175
 30
0.0
  0
SPLINE
  5
134
100
AcDbEntity
  8
0
 62
7
100
AcDbSpline
 70
8
 71
3
 72
8
 73
4
 74
0
 40
0
 40
0
 40
0
 40
0
 40
1
 40
1
 40
1
 40
1
 10
60.721875
 20
0.053880
 30
0.0
 10
59.103146
 20
0.416168
 30
0.0
 10
58.255834
 20
1.268574
 30
0.0
 10
57.980517
 20
2.811724
 30
0.0
  0
SPLINE
  5
135
100
AcDbEntity
  8
0
 62
7
100
AcDbSpline
 70
8
 71
3
 72
8
 73
4
 74
0
 40
0
 40
0
 40
0
 40
0
 40
1
 40
1
 40
1
 40
1
 10
57.980517
 20
2.811724
 30
0.0
 10
57.894138
 20
3.295864
 30
0.0
 10
57.860869
 20
4.458594
 30
0.0
 10
57.858634
 20
7.071545
 30
0.0
  0
LWPOLYLINE
  5
136
100
AcDbEntity
  8
0
 62
7
100
AcDbPolyline
 90
1
 70
1
 10
42.509723
 20
0.057221
 30
0.0
  0
SPLINE
  5
137
100
AcDbEntity
  8
0
 62
7
100
AcDbSpline
 70
8
 71
3
 72
8
 73
4
 74
0
 40
0
 40
0
 40
0
 40
0
 40
1
 40
1
 40
1
 40
1
 10
59.371891
 20
6.762861
 30
0.0
 10
59.397821
 20
3.024727
 30
0.0
 10
59.406711
 20
2.843530
 30
0.0
 10
59.582696
 20
2.463382
 30
0.0
  0
SPLINE
  5
138
100
AcDbEntity
  8
0
 62
7
100
AcDbSpline
 70
8
 71
3
 72
8
 73
4
 74
0
 40
0
 40
0
 40
0
 40
0
 40
1
 40
1
 40
1
 40
1
 10
59.582696
 20
2.463382
 30
0.0
 10
59.802149
 20
1.989331
 30
0.0
 10
60.271372
 20
1.555268
 30
0.0
 10
60.736369
 20
1.396159
 30
0.0
  0
SPLINE
  5
139
100
AcDbEntity
  8
0
 62
7
100
AcDbSpline
 70
8
 71
3
 72
8
 73
4
 74
0
 40
0
 40
0
 40
0
 40
0
 40
1
 40
1
 40
1
 40
1
 10
60.736369
 20
1.396159
 30
0.0
 10
61.251618
 20
1.219854
 30
0.0
 10
62.490787
 20
1.240663
 30
0.0
 10
62.991958
 20
1.434034
 30
0.0
  0
SPLINE
  5
13a
100
AcDbEntity
  8
0
 62
7
100
AcDbSpline
 70
8
 71
3
 72
8
 73
4
 74
0
 40
0
 40
0
 40
0
 40
0
 40
1
 40
1
 40
1
 40
1
 10
62.991958
 20
1.434034
 30
0.0
 10
63.465758
 20
1.616848
 30
0.0
 10
63.935679
 20
2.109629
 30
0.0
 10
64.118633
 20
2.615520
 30
0.0
  0
SPLINE
  5
13b
100
AcDbEntity
  8
0
 62
7
100
AcDbSpline
 70
8
 71
3
 72
8
 73
4
 74
0
 40
0
 40
0
 40
0
 40
0
 40
1
 40
1
 40
1
 40
1
 10
64.118633
 20
2.615520
 30
0.0
 10
64.211393
 20
2.872023
 30
0.0
 10
64.246480
 20
3.834217
 30
0.0
 10
64.271472
 20
6.806957
 30
0.0
  0
LWPOLYLINE
  5
13c
100
AcDbEntity
  8
0
 62
7
100
AcDbPolyline
 90
5
 70
0
 10
57.858634
 20
7.071545
 30
0.0
 10
57.855564
 20
10.665465
 30
0.0
 10
58.600189
 20
10.665465
 30
0.0
 10
59.344817
 20
10.665465
 30
0.0
 10
59.371891
 20
6.762861
 30
0.0
  0
SPLINE
  5
13d
100
AcDbEntity
  8
0
 62
7
100
AcDbSpline
 70
8
 71
3
 72
8
 73
4
 74
0
 40
0
 40
0
 40
0
 40
0
 40
1
 40
1
 40
1
 40
1
 10
65.770241
 20
6.718763
 30
0.0
 10
65.740420
 20
3.418004
 30
0.0
 10
65.711763
 20
2.705396
 30
0.0
 10
65.595143
 20
2.364735
 30
0.0
  0
SPLINE
  5
13e
100
AcDbEntity
  8
0
 62
7
100
AcDbSpline
 70
8
 71
3
 72
8
 73
4
 74
0
 40
0
 40
0
 40
0
 40
0
 40
1
 40
1
 40
1
 40
1
 10
65.595143
 20
2.364735
 30
0.0
 10
65.148431
 20
1.059820
 30
0.0
 10
64.388918
 20
0.375579
 30
0.0
 10
63.074182
 20
0.093618
 30
0.0
  0
SPLINE
  5
13f
100
AcDbEntity
  8
0
 62
7
100
AcDbSpline
 70
8
 71
3
 72
8
 73
4
 74
0
 40
0
 40
0
 40
0
 40
0
 40
1
 40
1
 40
1
 40
1
 10
63.074182
 20
0.093618
 30
0.0
 10
62.627888
 20
-0.002095
 30
0.0
 10
61.088193
 20
-0.028107
 30
0.0
 10
60.721883
 20
0.053874
 30
0.0
  0
LWPOLYLINE
  5
140
100
AcDbEntity
  8
0
 62
7
100
AcDbPolyline
 90
5
 70
0
 10
64.271472
 20
6.806957
 30
0.0
 10
64.303907
 20
10.665465
 30
0.0
 10
65.054903
 20
10.665465
 30
0.0
 10
65.805897
 20
10.665465
 30
0.0
 10
65.770241
 20
6.718763
 30
0.0
  0
LWPOLYLINE
  5
141
100
AcDbEntity
  8
0
 62
7
100
AcDbPolyline
 90
1
 70
1
 10
60.721883
 20
0.053874
 30
0.0
  0
SPLINE
  5
142
100
AcDbEntity
  8
0
 62
7
100
AcDbSpline
 70
8
 71
3
 72
8
 73
4
 74
0
 40
0
 40
0
 40
0
 40
0
 40
1
 40
1
 40
1
 40
1
 10
3.014144
 20
8.019632
 30
0.0
 10
3.594929
 20
6.588675
 30
0.0
 10
4.312291
 20
4.812660
 30
0.0
 10
4.608283
 20
4.072930
 30
0.0
  0
SPLINE
  5
143
100
AcDbEntity
  8
0
 62
7
100
AcDbSpline
 70
8
 71
3
 72
8
 73
4
 74
0
 40
0
 40
0
 40
0
 40
0
 40
1
 40
1
 40
1
 40
1
 10
4.608283
 20
4.072930
 30
0.0
 10
4.904275
 20
3.333200
 30
0.0
 10
5.170038
 20
2.727965
 30
0.0
 10
5.198870
 20
2.727965
 30
0.0
  0
SPLINE
  5
144
100
AcDbEntity
  8
0
 62
7
100
AcDbSpline
 70
8
 71
3
 72
8
 73
4
 74
0
 40
0
 40
0
 40
0
 40
0
 40
1
 40
1
 40
1
 40
1
 10
5.198870
 20
2.727965
 30
0.0
 10
5.227699
 20
2.727965
 30
0.0
 10
5.615573
 20
3.650700
 30
0.0
 10
6.060808
 20
4.778486
 30
0.0
  0
SPLINE
  5
145
100
AcDbEntity
  8
0
 62
7
100
AcDbSpline
 70
8
 71
3
 72
8
 73
4
 74
0
 40
0
 40
0
 40
0
 40
0
 40
1
 40
1
 40
1
 40
1
 10
6.060808
 20
4.778486
 30
0.0
 10
6.506046
 20
5.906273
 30
0.0
 10
7.207499
 20
7.682288
 30
0.0
 10
7.619593
 20
8.725186
 30
0.0
  0
LWPOLYLINE
  5
146
100
AcDbEntity
  8
0
 62
7
100
AcDbPolyline
 90
5
 70
0
 10
0.000000
 20
5.420783
 30
0.0
 10
0.000000
 20
10.671241
 30
0.0
 10
0.979085
 20
10.646291
 30
0.0
 10
1.958171
 20
10.621367
 30
0.0
 10
3.014144
 20
8.019632
 30
0.0
  0
SPLINE
  5
147
100
AcDbEntity
  8
0
 62
7
100
AcDbSpline
 70
8
 71
3
 72
8
 73
4
 74
0
 40
0
 40
0
 40
0
 40
0
 40
1
 40
1
 40
1
 40
1
 10
7.612717
 20
4.900041
 30
0.0
 10
6.973277
 20
3.341598
 30
0.0
 10
6.278746
 20
1.640459
 30
0.0
 10
6.069315
 20
1.119733
 30
0.0
  0
LWPOLYLINE
  5
148
100
AcDbEntity
  8
0
 62
7
100
AcDbPolyline
 90
11
 70
0
 10
7.619593
 20
8.725186
 30
0.0
 10
8.368851
 20
10.621367
 30
0.0
 10
9.343801
 20
10.646291
 30
0.0
 10
10.318751
 20
10.671241
 30
0.0
 10
10.318751
 20
5.420783
 30
0.0
 10
10.318751
 20
0.170326
 30
0.0
 10
9.570035
 20
0.170326
 30
0.0
 10
8.821320
 20
0.170326
 30
0.0
 10
8.798328
 20
3.951952
 30
0.0
 10
8.775335
 20
7.733575
 30
0.0
 10
7.612717
 20
4.900041
 30
0.0
  0
LWPOLYLINE
  5
149
100
AcDbEntity
  8
0
 62
7
100
AcDbPolyline
 90
11
 70
0
 10
6.069315
 20
1.119733
 30
0.0
 10
5.688529
 20
0.172961
 30
0.0
 10
5.115267
 20
0.173755
 30
0.0
 10
4.542002
 20
0.174284
 30
0.0
 10
2.998600
 20
4.012454
 30
0.0
 10
1.455195
 20
7.850627
 30
0.0
 10
1.432229
 20
4.010430
 30
0.0
 10
1.409263
 20
0.170233
 30
0.0
 10
0.704633
 20
0.170233
 30
0.0
 10
0.000005
 20
0.170233
 30
0.0
 10
0.000000
 20
5.420783
 30
0.0
  0
LWPOLYLINE
  5
14a
100
AcDbEntity
  8
0
 62
7
100
AcDbPolyline
 90
16
 70
1
 10
24.782640
 20
4.756436
 30
0.0
 10
24.782640
 20
9.342549
 30
0.0
 10
23.371530
 20
9.342549
 30
0.0
 10
21.960417
 20
9.342549
 30
0.0
 10
21.960417
 20
10.004007
 30
0.0
 10
21.960417
 20
10.665465
 30
0.0
 10
25.576390
 20
10.665465
 30
0.0
 10
29.192363
 20
10.665465
 30
0.0
 10
29.192363
 20
10.004007
 30
0.0
 10
29.192363
 20
9.342549
 30
0.0
 10
27.737155
 20
9.342549
 30
0.0
 10
26.281945
 20
9.342549
 30
0.0
 10
26.281945
 20
4.756436
 30
0.0
 10
26.281945
 20
0.170326
 30
0.0
 10
25.532292
 20
0.170326
 30
0.0
 10
24.782640
 20
0.170326
 30
0.0
  0
LWPOLYLINE
  5
14b
100
AcDbEntity
  8
0
 62
7
100
AcDbPolyline
 90
16
 70
1
 10
51.770140
 20
4.756436
 30
0.0
 10
51.770140
 20
9.342549
 30
0.0
 10
50.359030
 20
9.342549
 30
0.0
 10
48.947917
 20
9.342549
 30
0.0
 10
48.947917
 20
10.004007
 30
0.0
 10
48.947917
 20
10.665465
 30
0.0
 10
52.563890
 20
10.665465
 30
0.0
 10
56.179863
 20
10.665465
 30
0.0
 10
56.179863
 20
10.004007
 30
0.0
 10
56.179863
 20
9.342549
 30
0.0
 10
54.724655
 20
9.342549
 30
0.0
 10
53.269446
 20
9.342549
 30
0.0
 10
53.269446
 20
4.756436
 30
0.0
 10
53.269446
 20
0.170326
 30
0.0
 10
52.519792
 20
0.170326
 30
0.0
 10
51.770140
 20
0.170326
 30
0.0
  0
SPLINE
  5
14c
100
AcDbEntity
  8
0
 62
7
100
AcDbSpline
 70
8
 71
3
 72
8
 73
4
 74
0
 40
0
 40
0
 40
0
 40
0
 40
1
 40
1
 40
1
 40
1
 10
70.180729
 20
10.647013
 30
0.0
 10
72.595348
 20
10.615962
 30
0.0
 10
72.741568
 20
10.604487
 30
0.0
 10
73.245488
 20
10.406457
 30
0.0
  0
SPLINE
  5
14d
100
AcDbEntity
  8
0
 62
7
100
AcDbSpline
 70
8
 71
3
 72
8
 73
4
 74
0
 40
0
 40
0
 40
0
 40
0
 40
1
 40
1
 40
1
 40
1
 10
73.245488
 20
10.406457
 30
0.0
 10
73.931719
 20
10.136785
 30
0.0
 10
74.439171
 20
9.785863
 30
0.0
 10
74.816428
 20
9.320099
 30
0.0
  0
SPLINE
  5
14e
100
AcDbEntity
  8
0
 62
7
100
AcDbSpline
 70
8
 71
3
 72
8
 73
4
 74
0
 40
0
 40
0
 40
0
 40
0
 40
1
 40
1
 40
1
 40
1
 10
74.816428
 20
9.320099
 30
0.0
 10
75.204643
 20
8.840803
 30
0.0
 10
75.340107
 20
8.568677
 30
0.0
 10
75.595499
 20
7.755049
 30
0.0
  0
SPLINE
  5
14f
100
AcDbEntity
  8
0
 62
7
100
AcDbSpline
 70
8
 71
3
 72
8
 73
4
 74
0
 40
0
 40
0
 40
0
 40
0
 40
1
 40
1
 40
1
 40
1
 10
75.595499
 20
7.755049
 30
0.0
 10
75.781554
 20
7.162318
 30
0.0
 10
75.803030
 20
6.928638
 30
0.0
 10
75.802204
 20
5.506090
 30
0.0
  0
SPLINE
  5
150
100
AcDbEntity
  8
0
 62
7
100
AcDbSpline
 70
8
 71
3
 72
8
 73
4
 74
0
 40
0
 40
0
 40
0
 40
0
 40
1
 40
1
 40
1
 40
1
 10
75.802204
 20
5.506090
 30
0.0
 10
75.801146
 20
3.803856
 30
0.0
 10
75.712262
 20
3.264384
 30
0.0
 10
75.274998
 20
2.308807
 30
0.0
  0
SPLINE
  5
151
100
AcDbEntity
  8
0
 62
7
100
AcDbSpline
 70
8
 71
3
 72
8
 73
4
 74
0
 40
0
 40
0
 40
0
 40
0
 40
1
 40
1
 40
1
 40
1
 10
75.274998
 20
2.308807
 30
0.0
 10
75.006383
 20
1.721784
 30
0.0
 10
74.251944
 20
0.919602
 30
0.0
 10
73.710377
 20
0.645171
 30
0.0
  0
SPLINE
  5
152
100
AcDbEntity
  8
0
 62
7
100
AcDbSpline
 70
8
 71
3
 72
8
 73
4
 74
0
 40
0
 40
0
 40
0
 40
0
 40
1
 40
1
 40
1
 40
1
 10
73.710377
 20
0.645171
 30
0.0
 10
72.914698
 20
0.241967
 30
0.0
 10
72.362362
 20
0.173032
 30
0.0
 10
69.916146
 20
0.171630
 30
0.0
  0
LWPOLYLINE
  5
153
100
AcDbEntity
  8
0
 62
7
100
AcDbPolyline
 90
3
 70
0
 10
67.645140
 20
5.424974
 30
0.0
 10
67.645140
 20
10.679621
 30
0.0
 10
70.180729
 20
10.647013
 30
0.0
  0
SPLINE
  5
154
100
AcDbEntity
  8
0
 62
7
100
AcDbSpline
 70
8
 71
3
 72
8
 73
4
 74
0
 40
0
 40
0
 40
0
 40
0
 40
1
 40
1
 40
1
 40
1
 10
72.370707
 20
1.622737
 30
0.0
 10
73.173299
 20
1.861082
 30
0.0
 10
73.664278
 20
2.368849
 30
0.0
 10
74.025321
 20
3.333933
 30
0.0
  0
SPLINE
  5
155
100
AcDbEntity
  8
0
 62
7
100
AcDbSpline
 70
8
 71
3
 72
8
 73
4
 74
0
 40
0
 40
0
 40
0
 40
0
 40
1
 40
1
 40
1
 40
1
 10
74.025321
 20
3.333933
 30
0.0
 10
74.188484
 20
3.770082
 30
0.0
 10
74.211326
 20
4.023254
 30
0.0
 10
74.213336
 20
5.417894
 30
0.0
  0
SPLINE
  5
156
100
AcDbEntity
  8
0
 62
7
100
AcDbSpline
 70
8
 71
3
 72
8
 73
4
 74
0
 40
0
 40
0
 40
0
 40
0
 40
1
 40
1
 40
1
 40
1
 10
74.213336
 20
5.417894
 30
0.0
 10
74.215188
 20
6.688757
 30
0.0
 10
74.184690
 20
7.105375
 30
0.0
 10
74.060526
 20
7.506653
 30
0.0
  0
SPLINE
  5
157
100
AcDbEntity
  8
0
 62
7
100
AcDbSpline
 70
8
 71
3
 72
8
 73
4
 74
0
 40
0
 40
0
 40
0
 40
0
 40
1
 40
1
 40
1
 40
1
 10
74.060526
 20
7.506653
 30
0.0
 10
73.836686
 20
8.230068
 30
0.0
 10
73.434816
 20
8.718706
 30
0.0
 10
72.804504
 20
9.033867
 30
0.0
  0
SPLINE
  5
158
100
AcDbEntity
  8
0
 62
7
100
AcDbSpline
 70
8
 71
3
 72
8
 73
4
 74
0
 40
0
 40
0
 40
0
 40
0
 40
1
 40
1
 40
1
 40
1
 10
72.804504
 20
9.033867
 30
0.0
 10
72.285318
 20
9.293466
 30
0.0
 10
72.245852
 20
9.299001
 30
0.0
 10
70.709896
 20
9.327642
 30
0.0
  0
LWPOLYLINE
  5
159
100
AcDbEntity
  8
0
 62
7
100
AcDbPolyline
 90
3
 70
0
 10
69.916146
 20
0.171630
 30
0.0
 10
67.645140
 20
0.170307
 30
0.0
 10
67.645140
 20
5.424974
 30
0.0
  0
SPLINE
  5
15a
100
AcDbEntity
  8
0
 62
7
100
AcDbSpline
 70
8
 71
3
 72
8
 73
4
 74
0
 40
0
 40
0
 40
0
 40
0
 40
1
 40
1
 40
1
 40
1
 10
70.539549
 20
1.493242
 30
0.0
 10
71.509459
 20
1.493242
 30
0.0
 10
72.067550
 20
1.532707
 30
0.0
 10
72.370707
 20
1.622737
 30
0.0
  0
LWPOLYLINE
  5
15b
100
AcDbEntity
  8
0
 62
7
100
AcDbPolyline
 90
5
 70
0
 10
70.709896
 20
9.327642
 30
0.0
 10
69.144446
 20
9.356833
 30
0.0
 10
69.144446
 20
5.425038
 30
0.0
 10
69.144446
 20
1.493242
 30
0.0
 10
70.539549
 20
1.493242
 30
0.0
  0
LWPOLYLINE
  5
15c
100
AcDbEntity
  8
0
 62
7
100
AcDbPolyline
 90
1
 70
1
 10
72.370707
 20
1.622737
 30
0.0
  0
LWPOLYLINE
  5
15d
100
AcDbEntity
  8
0
 62
7
100
AcDbPolyline
 90
24
 70
1
 10
77.522917
 20
5.417894
 30
0.0
 10
77.522917
 20
10.665465
 30
0.0
 10
80.918405
 20
10.665465
 30
0.0
 10
84.313890
 20
10.665465
 30
0.0
 10
84.313890
 20
10.004007
 30
0.0
 10
84.313890
 20
9.342549
 30
0.0
 10
81.668056
 20
9.342549
 30
0.0
 10
79.022223
 20
9.342549
 30
0.0
 10
79.022223
 20
7.800634
 30
0.0
 10
79.022223
 20
6.258719
 30
0.0
 10
81.293229
 20
6.235171
 30
0.0
 10
83.564238
 20
6.211623
 30
0.0
 10
83.590141
 20
5.572215
 30
0.0
 10
83.616043
 20
4.932804
 30
0.0
 10
81.319142
 20
4.932804
 30
0.0
 10
79.022223
 20
4.932804
 30
0.0
 10
79.022223
 20
3.213013
 30
0.0
 10
79.022223
 20
1.493221
 30
0.0
 10
81.668056
 20
1.493221
 30
0.0
 10
84.313890
 20
1.493221
 30
0.0
 10
84.313890
 20
0.831763
 30
0.0
 10
84.313890
 20
0.170304
 30
0.0
 10
80.918405
 20
0.170304
 30
0.0
 10
77.522917
 20
0.170304
 30
0.0
  0
SPLINE
  5
15e
100
AcDbEntity
  8
0
 62
7
100
AcDbSpline
 70
8
 71
3
 72
8
 73
4
 74
0
 40
0
 40
0
 40
0
 40
0
 40
1
 40
1
 40
1
 40
1
 10
89.043679
 20
8.395846
 30
0.0
 10
89.862036
 20
7.147555
 30
0.0
 10
91.017214
 20
5.391383
 30
0.0
 10
91.610754
 20
4.493241
 30
0.0
  0
LWPOLYLINE
  5
15f
100
AcDbEntity
  8
0
 62
7
100
AcDbPolyline
 90
5
 70
0
 10
86.077780
 20
5.417894
 30
0.0
 10
86.077780
 20
10.665465
 30
0.0
 10
86.816766
 20
10.665465
 30
0.0
 10
87.555755
 20
10.665465
 30
0.0
 10
89.043679
 20
8.395846
 30
0.0
  0
LWPOLYLINE
  5
160
100
AcDbEntity
  8
0
 62
7
100
AcDbPolyline
 90
17
 70
0
 10
91.610754
 20
4.493241
 30
0.0
 10
92.689910
 20
2.860257
 30
0.0
 10
92.691233
 20
6.762861
 30
0.0
 10
92.692556
 20
10.665465
 30
0.0
 10
93.398112
 20
10.665465
 30
0.0
 10
94.103669
 20
10.665465
 30
0.0
 10
94.103669
 20
5.417894
 30
0.0
 10
94.103669
 20
0.170326
 30
0.0
 10
93.358962
 20
0.170326
 30
0.0
 10
92.614258
 20
0.170326
 30
0.0
 10
90.073721
 20
3.951613
 30
0.0
 10
87.533165
 20
7.732900
 30
0.0
 10
87.510173
 20
3.951613
 30
0.0
 10
87.487022
 20
0.170326
 30
0.0
 10
86.782402
 20
0.170326
 30
0.0
 10
86.077785
 20
0.170326
 30
0.0
 10
86.077780
 20
5.417894
 30
0.0
  0
SPLINE
  5
161
100
AcDbEntity
  8
0
 62
7
100
AcDbSpline
 70
8
 71
3
 72
8
 73
4
 74
0
 40
0
 40
0
 40
0
 40
0
 40
1
 40
1
 40
1
 40
1
 10
63.064459
 20
14.845676
 30
0.0
 10
62.673418
 20
15.495556
 30
0.0
 10
62.353473
 20
16.047045
 30
0.0
 10
62.353473
 20
16.071204
 30
0.0
  0
SPLINE
  5
162
100
AcDbEntity
  8
0
 62
7
100
AcDbSpline
 70
8
 71
3
 72
8
 73
4
 74
0
 40
0
 40
0
 40
0
 40
0
 40
1
 40
1
 40
1
 40
1
 10
62.353473
 20
16.071204
 30
0.0
 10
62.353473
 20
16.095361
 30
0.0
 10
62.541989
 20
16.236455
 30
0.0
 10
62.772396
 20
16.384736
 30
0.0
  0
SPLINE
  5
163
100
AcDbEntity
  8
0
 62
7
100
AcDbSpline
 70
8
 71
3
 72
8
 73
4
 74
0
 40
0
 40
0
 40
0
 40
0
 40
1
 40
1
 40
1
 40
1
 10
62.772396
 20
16.384736
 30
0.0
 10
63.373704
 20
16.771718
 30
0.0
 10
64.066727
 20
17.511694
 30
0.0
 10
64.354284
 20
18.073799
 30
0.0
  0
LWPOLYLINE
  5
164
100
AcDbEntity
  8
0
 62
7
100
AcDbPolyline
 90
16
 70
1
 10
98.689583
 20
4.756436
 30
0.0
 10
98.689583
 20
9.342549
 30
0.0
 10
97.278473
 20
9.342549
 30
0.0
 10
95.867363
 20
9.342549
 30
0.0
 10
95.867363
 20
10.004007
 30
0.0
 10
95.867363
 20
10.665465
 30
0.0
 10
99.483333
 20
10.665465
 30
0.0
 10
103.099306
 20
10.665465
 30
0.0
 10
103.099306
 20
10.004007
 30
0.0
 10
103.099306
 20
9.342549
 30
0.0
 10
101.644098
 20
9.342549
 30
0.0
 10
100.188890
 20
9.342549
 30
0.0
 10
100.188890
 20
4.756436
 30
0.0
 10
100.188890
 20
0.170326
 30
0.0
 10
99.439238
 20
0.170326
 30
0.0
 10
98.689583
 20
0.170326
 30
0.0
  0
SPLINE
  5
165
100
AcDbEntity
  8
0
 62
7
100
AcDbSpline
 70
8
 71
3
 72
8
 73
4
 74
0
 40
0
 40
0
 40
0
 40
0
 40
1
 40
1
 40
1
 40
1
 10
67.731741
 20
24.445846
 30
0.0
 10
67.730153
 20
18.291675
 30
0.0
 10
67.718829
 20
18.131809
 30
0.0
 10
67.211191
 20
17.047038
 30
0.0
  0
SPLINE
  5
166
100
AcDbEntity
  8
0
 62
7
100
AcDbSpline
 70
8
 71
3
 72
8
 73
4
 74
0
 40
0
 40
0
 40
0
 40
0
 40
1
 40
1
 40
1
 40
1
 10
67.211191
 20
17.047038
 30
0.0
 10
66.667817
 20
15.885874
 30
0.0
 10
65.852143
 20
14.978184
 30
0.0
 10
64.608400
 20
14.150626
 30
0.0
  0
SPLINE
  5
167
100
AcDbEntity
  8
0
 62
7
100
AcDbSpline
 70
8
 71
3
 72
8
 73
4
 74
0
 40
0
 40
0
 40
0
 40
0
 40
1
 40
1
 40
1
 40
1
 10
64.608400
 20
14.150626
 30
0.0
 10
64.206218
 20
13.883024
 30
0.0
 10
63.854261
 20
13.664076
 30
0.0
 10
63.826271
 20
13.664076
 30
0.0
  0
SPLINE
  5
168
100
AcDbEntity
  8
0
 62
7
100
AcDbSpline
 70
8
 71
3
 72
8
 73
4
 74
0
 40
0
 40
0
 40
0
 40
0
 40
1
 40
1
 40
1
 40
1
 10
63.826271
 20
13.664076
 30
0.0
 10
63.798283
 20
13.664076
 30
0.0
 10
63.455439
 20
14.195795
 30
0.0
 10
63.064398
 20
14.845676
 30
0.0
  0
LWPOLYLINE
  5
169
100
AcDbEntity
  8
0
 62
7
100
AcDbPolyline
 90
7
 70
0
 10
64.354284
 20
18.073799
 30
0.0
 10
64.602431
 20
18.558867
 30
0.0
 10
64.626932
 20
24.313555
 30
0.0
 10
64.651432
 20
30.068242
 30
0.0
 10
66.192381
 20
30.068242
 30
0.0
 10
67.733328
 20
30.068242
 30
0.0
 10
67.731741
 20
24.445846
 30
0.0
  0
SPLINE
  5
16a
100
AcDbEntity
  8
0
 62
7
100
AcDbSpline
 70
8
 71
3
 72
8
 73
4
 74
0
 40
0
 40
0
 40
0
 40
0
 40
1
 40
1
 40
1
 40
1
 10
4.632923
 20
17.461725
 30
0.0
 10
2.618479
 20
17.773171
 30
0.0
 10
1.033457
 20
19.050302
 30
0.0
 10
0.340339
 20
20.920469
 30
0.0
  0
SPLINE
  5
16b
100
AcDbEntity
  8
0
 62
7
100
AcDbSpline
 70
8
 71
3
 72
8
 73
4
 74
0
 40
0
 40
0
 40
0
 40
0
 40
1
 40
1
 40
1
 40
1
 10
0.340339
 20
20.920469
 30
0.0
 10
0.139864
 20
21.461391
 30
0.0
 10
0.136530
 20
21.531122
 30
0.0
 10
0.108646
 20
25.768763
 30
0.0
  0
LWPOLYLINE
  5
16c
100
AcDbEntity
  8
0
 62
7
100
AcDbPolyline
 90
1
 70
1
 10
63.064398
 20
14.845676
 30
0.0
  0
SPLINE
  5
16d
100
AcDbEntity
  8
0
 62
7
100
AcDbSpline
 70
8
 71
3
 72
8
 73
4
 74
0
 40
0
 40
0
 40
0
 40
0
 40
1
 40
1
 40
1
 40
1
 10
3.086807
 20
26.203693
 30
0.0
 10
3.086807
 20
21.811586
 30
0.0
 10
3.101306
 20
21.692542
 30
0.0
 10
3.718301
 20
21.023194
 30
0.0
  0
SPLINE
  5
16e
100
AcDbEntity
  8
0
 62
7
100
AcDbSpline
 70
8
 71
3
 72
8
 73
4
 74
0
 40
0
 40
0
 40
0
 40
0
 40
1
 40
1
 40
1
 40
1
 10
3.718301
 20
21.023194
 30
0.0
 10
4.611979
 20
20.053668
 30
0.0
 10
6.301378
 20
20.029114
 30
0.0
 10
7.244210
 20
20.971949
 30
0.0
  0
SPLINE
  5
16f
100
AcDbEntity
  8
0
 62
7
100
AcDbSpline
 70
8
 71
3
 72
8
 73
4
 74
0
 40
0
 40
0
 40
0
 40
0
 40
1
 40
1
 40
1
 40
1
 10
7.244210
 20
20.971949
 30
0.0
 10
7.928745
 20
21.656485
 30
0.0
 10
7.937501
 20
21.722548
 30
0.0
 10
7.937501
 20
26.203693
 30
0.0
  0
LWPOLYLINE
  5
170
100
AcDbEntity
  8
0
 62
7
100
AcDbPolyline
 90
5
 70
0
 10
0.108646
 20
25.768763
 30
0.0
 10
0.080354
 20
30.068242
 30
0.0
 10
1.583579
 20
30.068242
 30
0.0
 10
3.086807
 20
30.068242
 30
0.0
 10
3.086807
 20
26.203693
 30
0.0
  0
SPLINE
  5
171
100
AcDbEntity
  8
0
 62
7
100
AcDbSpline
 70
8
 71
3
 72
8
 73
4
 74
0
 40
0
 40
0
 40
0
 40
0
 40
1
 40
1
 40
1
 40
1
 10
10.934790
 20
26.033346
 30
0.0
 10
10.933468
 20
21.585695
 30
0.0
 10
10.912989
 20
21.372528
 30
0.0
 10
10.385627
 20
20.283323
 30
0.0
  0
SPLINE
  5
172
100
AcDbEntity
  8
0
 62
7
100
AcDbSpline
 70
8
 71
3
 72
8
 73
4
 74
0
 40
0
 40
0
 40
0
 40
0
 40
1
 40
1
 40
1
 40
1
 10
10.385627
 20
20.283323
 30
0.0
 10
10.000885
 20
19.488687
 30
0.0
 10
8.896904
 20
18.379919
 30
0.0
 10
8.113872
 20
18.001718
 30
0.0
  0
SPLINE
  5
173
100
AcDbEntity
  8
0
 62
7
100
AcDbSpline
 70
8
 71
3
 72
8
 73
4
 74
0
 40
0
 40
0
 40
0
 40
0
 40
1
 40
1
 40
1
 40
1
 10
8.113872
 20
18.001718
 30
0.0
 10
7.077978
 20
17.501386
 30
0.0
 10
5.729447
 20
17.292190
 30
0.0
 10
4.632905
 20
17.461725
 30
0.0
  0
LWPOLYLINE
  5
174
100
AcDbEntity
  8
0
 62
7
100
AcDbPolyline
 90
5
 70
0
 10
7.937501
 20
26.203693
 30
0.0
 10
7.937501
 20
30.068242
 30
0.0
 10
9.436807
 20
30.068242
 30
0.0
 10
10.936113
 20
30.068242
 30
0.0
 10
10.934790
 20
26.033346
 30
0.0
  0
SPLINE
  5
175
100
AcDbEntity
  8
0
 62
7
100
AcDbSpline
 70
8
 71
3
 72
8
 73
4
 74
0
 40
0
 40
0
 40
0
 40
0
 40
1
 40
1
 40
1
 40
1
 10
55.047555
 20
17.463048
 30
0.0
 10
52.576656
 20
17.783590
 30
0.0
 10
50.492991
 20
19.667995
 30
0.0
 10
49.816832
 20
22.193565
 30
0.0
  0
SPLINE
  5
176
100
AcDbEntity
  8
0
 62
7
100
AcDbSpline
 70
8
 71
3
 72
8
 73
4
 74
0
 40
0
 40
0
 40
0
 40
0
 40
1
 40
1
 40
1
 40
1
 10
49.816832
 20
22.193565
 30
0.0
 10
49.582724
 20
23.067994
 30
0.0
 10
49.561274
 20
24.631573
 30
0.0
 10
49.771440
 20
25.502330
 30
0.0
  0
SPLINE
  5
177
100
AcDbEntity
  8
0
 62
7
100
AcDbSpline
 70
8
 71
3
 72
8
 73
4
 74
0
 40
0
 40
0
 40
0
 40
0
 40
1
 40
1
 40
1
 40
1
 10
49.771440
 20
25.502330
 30
0.0
 10
50.356273
 20
27.925400
 30
0.0
 10
52.265733
 20
29.807464
 30
0.0
 10
54.636458
 20
30.297546
 30
0.0
  0
SPLINE
  5
178
100
AcDbEntity
  8
0
 62
7
100
AcDbSpline
 70
8
 71
3
 72
8
 73
4
 74
0
 40
0
 40
0
 40
0
 40
0
 40
1
 40
1
 40
1
 40
1
 10
54.636458
 20
30.297546
 30
0.0
 10
56.072688
 20
30.594448
 30
0.0
 10
57.829810
 20
30.326203
 30
0.0
 10
59.046181
 20
29.624351
 30
0.0
  0
SPLINE
  5
179
100
AcDbEntity
  8
0
 62
7
100
AcDbSpline
 70
8
 71
3
 72
8
 73
4
 74
0
 40
0
 40
0
 40
0
 40
0
 40
1
 40
1
 40
1
 40
1
 10
59.046181
 20
29.624351
 30
0.0
 10
60.477860
 20
28.798263
 30
0.0
 10
61.610399
 20
27.308032
 30
0.0
 10
62.062299
 20
25.655646
 30
0.0
  0
SPLINE
  5
17a
100
AcDbEntity
  8
0
 62
7
100
AcDbSpline
 70
8
 71
3
 72
8
 73
4
 74
0
 40
0
 40
0
 40
0
 40
0
 40
1
 40
1
 40
1
 40
1
 10
62.062299
 20
25.655646
 30
0.0
 10
62.308272
 20
24.756232
 30
0.0
 10
62.283792
 20
22.904342
 30
0.0
 10
62.014539
 20
22.042464
 30
0.0
  0
SPLINE
  5
17b
100
AcDbEntity
  8
0
 62
7
100
AcDbSpline
 70
8
 71
3
 72
8
 73
4
 74
0
 40
0
 40
0
 40
0
 40
0
 40
1
 40
1
 40
1
 40
1
 10
62.014539
 20
22.042464
 30
0.0
 10
61.664593
 20
20.922297
 30
0.0
 10
61.153474
 20
20.046111
 30
0.0
 10
60.414868
 20
19.300230
 30
0.0
  0
SPLINE
  5
17c
100
AcDbEntity
  8
0
 62
7
100
AcDbSpline
 70
8
 71
3
 72
8
 73
4
 74
0
 40
0
 40
0
 40
0
 40
0
 40
1
 40
1
 40
1
 40
1
 10
60.414868
 20
19.300230
 30
0.0
 10
59.358829
 20
18.233784
 30
0.0
 10
58.230881
 20
17.665578
 30
0.0
 10
56.768794
 20
17.463505
 30
0.0
  0
SPLINE
  5
17d
100
AcDbEntity
  8
0
 62
7
100
AcDbSpline
 70
8
 71
3
 72
8
 73
4
 74
0
 40
0
 40
0
 40
0
 40
0
 40
1
 40
1
 40
1
 40
1
 10
56.768794
 20
17.463505
 30
0.0
 10
56.005095
 20
17.357958
 30
0.0
 10
55.857950
 20
17.357918
 30
0.0
 10
55.047555
 20
17.462976
 30
0.0
  0
LWPOLYLINE
  5
17e
100
AcDbEntity
  8
0
 62
7
100
AcDbPolyline
 90
1
 70
1
 10
4.632905
 20
17.461725
 30
0.0
  0
SPLINE
  5
17f
100
AcDbEntity
  8
0
 62
7
100
AcDbSpline
 70
8
 71
3
 72
8
 73
4
 74
0
 40
0
 40
0
 40
0
 40
0
 40
1
 40
1
 40
1
 40
1
 10
57.169378
 20
20.442454
 30
0.0
 10
57.647986
 20
20.649808
 30
0.0
 10
58.316297
 20
21.233662
 30
0.0
 10
58.614323
 20
21.704792
 30
0.0
  0
SPLINE
  5
180
100
AcDbEntity
  8
0
 62
7
100
AcDbSpline
 70
8
 71
3
 72
8
 73
4
 74
0
 40
0
 40
0
 40
0
 40
0
 40
1
 40
1
 40
1
 40
1
 10
58.614323
 20
21.704792
 30
0.0
 10
59.416127
 20
22.972318
 30
0.0
 10
59.389457
 20
24.953460
 30
0.0
 10
58.553599
 20
26.215374
 30
0.0
  0
SPLINE
  5
181
100
AcDbEntity
  8
0
 62
7
100
AcDbSpline
 70
8
 71
3
 72
8
 73
4
 74
0
 40
0
 40
0
 40
0
 40
0
 40
1
 40
1
 40
1
 40
1
 10
58.553599
 20
26.215374
 30
0.0
 10
57.421243
 20
27.924921
 30
0.0
 10
55.076894
 20
28.127468
 30
0.0
 10
53.682051
 20
26.636268
 30
0.0
  0
SPLINE
  5
182
100
AcDbEntity
  8
0
 62
7
100
AcDbSpline
 70
8
 71
3
 72
8
 73
4
 74
0
 40
0
 40
0
 40
0
 40
0
 40
1
 40
1
 40
1
 40
1
 10
53.682051
 20
26.636268
 30
0.0
 10
52.934931
 20
25.837536
 30
0.0
 10
52.591764
 20
24.808754
 30
0.0
 10
52.679251
 20
23.629964
 30
0.0
  0
SPLINE
  5
183
100
AcDbEntity
  8
0
 62
7
100
AcDbSpline
 70
8
 71
3
 72
8
 73
4
 74
0
 40
0
 40
0
 40
0
 40
0
 40
1
 40
1
 40
1
 40
1
 10
52.679251
 20
23.629964
 30
0.0
 10
52.800245
 20
21.999697
 30
0.0
 10
53.682715
 20
20.753829
 30
0.0
 10
55.021885
 20
20.322651
 30
0.0
  0
SPLINE
  5
184
100
AcDbEntity
  8
0
 62
7
100
AcDbSpline
 70
8
 71
3
 72
8
 73
4
 74
0
 40
0
 40
0
 40
0
 40
0
 40
1
 40
1
 40
1
 40
1
 10
55.021885
 20
20.322651
 30
0.0
 10
55.570313
 20
20.146068
 30
0.0
 10
56.620497
 20
20.204658
 30
0.0
 10
57.169378
 20
20.442454
 30
0.0
  0
LWPOLYLINE
  5
185
100
AcDbEntity
  8
0
 62
7
100
AcDbPolyline
 90
1
 70
1
 10
55.047555
 20
17.462976
 30
0.0
  0
LWPOLYLINE
  5
186
100
AcDbEntity
  8
0
 62
7
100
AcDbPolyline
 90
1
 70
1
 10
57.169378
 20
20.442454
 30
0.0
  0
LWPOLYLINE
  5
187
100
AcDbEntity
  8
0
 62
7
100
AcDbPolyline
 90
20
 70
1
 10
13.317363
 20
23.894632
 30
0.0
 10
13.317363
 20
30.068242
 30
0.0
 10
14.838718
 20
30.064379
 30
0.0
 10
16.360072
 20
30.060516
 30
0.0
 10
18.917709
 20
26.375894
 30
0.0
 10
21.475349
 20
22.691273
 30
0.0
 10
21.498367
 20
26.379765
 30
0.0
 10
21.521386
 20
30.068258
 30
0.0
 10
23.019735
 20
30.068258
 30
0.0
 10
24.518083
 20
30.068258
 30
0.0
 10
24.518083
 20
23.894648
 30
0.0
 10
24.518083
 20
17.721035
 30
0.0
 10
23.025881
 20
17.721035
 30
0.0
 10
21.533679
 20
17.721035
 30
0.0
 10
18.946890
 20
21.409160
 30
0.0
 10
16.360098
 20
25.097280
 30
0.0
 10
16.337079
 20
21.409160
 30
0.0
 10
16.314061
 20
17.721038
 30
0.0
 10
14.815712
 20
17.721038
 30
0.0
 10
13.317363
 20
17.721038
 30
0.0
  0
LWPOLYLINE
  5
188
100
AcDbEntity
  8
0
 62
7
100
AcDbPolyline
 90
8
 70
1
 10
26.987500
 20
23.894632
 30
0.0
 10
26.987500
 20
30.068242
 30
0.0
 10
28.486806
 20
30.068242
 30
0.0
 10
29.986113
 20
30.068242
 30
0.0
 10
29.986113
 20
23.894632
 30
0.0
 10
29.986113
 20
17.721019
 30
0.0
 10
28.486806
 20
17.721019
 30
0.0
 10
26.987500
 20
17.721019
 30
0.0
  0
SPLINE
  5
189
100
AcDbEntity
  8
0
 62
7
100
AcDbSpline
 70
8
 71
3
 72
8
 73
4
 74
0
 40
0
 40
0
 40
0
 40
0
 40
1
 40
1
 40
1
 40
1
 10
36.093577
 20
30.050719
 30
0.0
 10
39.627686
 20
30.024922
 30
0.0
 10
39.745396
 20
30.018508
 30
0.0
 10
40.214656
 20
29.826574
 30
0.0
  0
SPLINE
  5
18a
100
AcDbEntity
  8
0
 62
7
100
AcDbSpline
 70
8
 71
3
 72
8
 73
4
 74
0
 40
0
 40
0
 40
0
 40
0
 40
1
 40
1
 40
1
 40
1
 10
40.214656
 20
29.826574
 30
0.0
 10
41.713303
 20
29.213604
 30
0.0
 10
42.543479
 20
28.083230
 30
0.0
 10
42.660290
 20
26.496574
 30
0.0
  0
SPLINE
  5
18b
100
AcDbEntity
  8
0
 62
7
100
AcDbSpline
 70
8
 71
3
 72
8
 73
4
 74
0
 40
0
 40
0
 40
0
 40
0
 40
1
 40
1
 40
1
 40
1
 10
42.660290
 20
26.496574
 30
0.0
 10
42.768261
 20
25.029988
 30
0.0
 10
42.197242
 20
23.734787
 30
0.0
 10
41.086484
 20
22.926818
 30
0.0
  0
LWPOLYLINE
  5
18c
100
AcDbEntity
  8
0
 62
7
100
AcDbPolyline
 90
3
 70
0
 10
32.455556
 20
23.899156
 30
0.0
 10
32.455556
 20
30.077288
 30
0.0
 10
36.093577
 20
30.050719
 30
0.0
  0
SPLINE
  5
18d
100
AcDbEntity
  8
0
 62
7
100
AcDbSpline
 70
8
 71
3
 72
8
 73
4
 74
0
 40
0
 40
0
 40
0
 40
0
 40
1
 40
1
 40
1
 40
1
 10
41.820814
 20
20.405680
 30
0.0
 10
42.401141
 20
19.147401
 30
0.0
 10
42.911633
 20
18.028605
 30
0.0
 10
42.955239
 20
17.919465
 30
0.0
  0
LWPOLYLINE
  5
18e
100
AcDbEntity
  8
0
 62
7
100
AcDbPolyline
 90
3
 70
0
 10
41.086484
 20
22.926818
 30
0.0
 10
40.765677
 20
22.693461
 30
0.0
 10
41.820814
 20
20.405680
 30
0.0
  0
SPLINE
  5
18f
100
AcDbEntity
  8
0
 62
7
100
AcDbSpline
 70
8
 71
3
 72
8
 73
4
 74
0
 40
0
 40
0
 40
0
 40
0
 40
1
 40
1
 40
1
 40
1
 10
38.925873
 20
24.986380
 30
0.0
 10
39.585458
 20
25.261972
 30
0.0
 10
39.851899
 20
26.056987
 30
0.0
 10
39.516719
 20
26.749372
 30
0.0
  0
SPLINE
  5
190
100
AcDbEntity
  8
0
 62
7
100
AcDbSpline
 70
8
 71
3
 72
8
 73
4
 74
0
 40
0
 40
0
 40
0
 40
0
 40
1
 40
1
 40
1
 40
1
 10
39.516719
 20
26.749372
 30
0.0
 10
39.203455
 20
27.396498
 30
0.0
 10
38.966103
 20
27.466518
 30
0.0
 10
37.085765
 20
27.466518
 30
0.0
  0
LWPOLYLINE
  5
191
100
AcDbEntity
  8
0
 62
7
100
AcDbPolyline
 90
14
 70
0
 10
42.955239
 20
17.919465
 30
0.0
 10
43.034524
 20
17.721027
 30
0.0
 10
41.420664
 20
17.721027
 30
0.0
 10
39.806803
 20
17.721027
 30
0.0
 10
38.799061
 20
19.968191
 30
0.0
 10
37.791321
 20
22.215353
 30
0.0
 10
36.622744
 20
22.217205
 30
0.0
 10
35.454167
 20
22.219057
 30
0.0
 10
35.454167
 20
19.970099
 30
0.0
 10
35.454167
 20
17.721141
 30
0.0
 10
33.954863
 20
17.721141
 30
0.0
 10
32.455556
 20
17.721141
 30
0.0
 10
32.455556
 20
23.899262
 30
0.0
 10
32.455556
 20
23.899156
 30
0.0
  0
SPLINE
  5
192
100
AcDbEntity
  8
0
 62
7
100
AcDbSpline
 70
8
 71
3
 72
8
 73
4
 74
0
 40
0
 40
0
 40
0
 40
0
 40
1
 40
1
 40
1
 40
1
 10
37.042140
 20
24.864780
 30
0.0
 10
38.196136
 20
24.864780
 30
0.0
 10
38.714995
 20
24.898276
 30
0.0
 10
38.925870
 20
24.986385
 30
0.0
  0
LWPOLYLINE
  5
193
100
AcDbEntity
  8
0
 62
7
100
AcDbPolyline
 90
5
 70
0
 10
37.085765
 20
27.466518
 30
0.0
 10
35.498265
 20
27.466518
 30
0.0
 10
35.473870
 20
26.165649
 30
0.0
 10
35.449449
 20
24.864780
 30
0.0
 10
37.042140
 20
24.864780
 30
0.0
  0
LWPOLYLINE
  5
194
100
AcDbEntity
  8
0
 62
7
100
AcDbPolyline
 90
1
 70
1
 10
38.925870
 20
24.986385
 30
0.0
  0
SPLINE
  5
195
100
AcDbEntity
  8
0
 62
7
100
AcDbSpline
 70
8
 71
3
 72
8
 73
4
 74
0
 40
0
 40
0
 40
0
 40
0
 40
1
 40
1
 40
1
 40
1
 10
68.742399
 20
18.051759
 30
0.0
 10
68.808013
 20
18.233660
 30
0.0
 10
69.582554
 20
20.366863
 30
0.0
 10
70.463603
 20
22.792211
 30
0.0
  0
SPLINE
  5
196
100
AcDbEntity
  8
0
 62
7
100
AcDbSpline
 70
8
 71
3
 72
8
 73
4
 74
0
 40
0
 40
0
 40
0
 40
0
 40
1
 40
1
 40
1
 40
1
 10
70.463603
 20
22.792211
 30
0.0
 10
71.344652
 20
25.217559
 30
0.0
 10
72.296134
 20
27.836934
 30
0.0
 10
72.578008
 20
28.613044
 30
0.0
  0
LWPOLYLINE
  5
197
100
AcDbEntity
  8
0
 62
7
100
AcDbPolyline
 90
8
 70
1
 10
44.626390
 20
23.894643
 30
0.0
 10
44.626390
 20
30.068253
 30
0.0
 10
46.169792
 20
30.068253
 30
0.0
 10
47.713196
 20
30.068253
 30
0.0
 10
47.713196
 20
23.894643
 30
0.0
 10
47.713196
 20
17.721030
 30
0.0
 10
46.169792
 20
17.721030
 30
0.0
 10
44.626390
 20
17.721030
 30
0.0
  0
SPLINE
  5
198
100
AcDbEntity
  8
0
 62
7
100
AcDbSpline
 70
8
 71
3
 72
8
 73
4
 74
0
 40
0
 40
0
 40
0
 40
0
 40
1
 40
1
 40
1
 40
1
 10
75.174419
 20
30.047808
 30
0.0
 10
76.535992
 20
30.063260
 30
0.0
 10
77.258333
 20
30.040532
 30
0.0
 10
77.258333
 20
29.982263
 30
0.0
  0
SPLINE
  5
199
100
AcDbEntity
  8
0
 62
7
100
AcDbSpline
 70
8
 71
3
 72
8
 73
4
 74
0
 40
0
 40
0
 40
0
 40
0
 40
1
 40
1
 40
1
 40
1
 10
77.258333
 20
29.982263
 30
0.0
 10
77.258333
 20
29.916363
 30
0.0
 10
81.242130
 20
18.877629
 30
0.0
 10
81.628350
 20
17.873350
 30
0.0
  0
SPLINE
  5
19a
100
AcDbEntity
  8
0
 62
7
100
AcDbSpline
 70
8
 71
3
 72
8
 73
4
 74
0
 40
0
 40
0
 40
0
 40
0
 40
1
 40
1
 40
1
 40
1
 10
81.628350
 20
17.873350
 30
0.0
 10
81.684768
 20
17.726647
 30
0.0
 10
81.589060
 20
17.718469
 30
0.0
 10
80.080215
 20
17.741059
 30
0.0
  0
LWPOLYLINE
  5
19b
100
AcDbEntity
  8
0
 62
7
100
AcDbPolyline
 90
3
 70
0
 10
72.578008
 20
28.613044
 30
0.0
 10
73.090503
 20
30.024155
 30
0.0
 10
75.174419
 20
30.047808
 30
0.0
  0
SPLINE
  5
19c
100
AcDbEntity
  8
0
 62
7
100
AcDbSpline
 70
8
 71
3
 72
8
 73
4
 74
0
 40
0
 40
0
 40
0
 40
0
 40
1
 40
1
 40
1
 40
1
 10
72.515614
 20
19.728847
 30
0.0
 10
72.371241
 20
19.327895
 30
0.0
 10
72.161008
 20
18.712109
 30
0.0
 10
72.048434
 20
18.360432
 30
0.0
  0
LWPOLYLINE
  5
19d
100
AcDbEntity
  8
0
 62
7
100
AcDbPolyline
 90
7
 70
0
 10
80.080215
 20
17.741059
 30
0.0
 10
78.471943
 20
17.765136
 30
0.0
 10
78.009401
 20
19.088052
 30
0.0
 10
77.546856
 20
20.410969
 30
0.0
 10
75.162484
 20
20.434411
 30
0.0
 10
72.778115
 20
20.457853
 30
0.0
 10
72.515614
 20
19.728847
 30
0.0
  0
SPLINE
  5
19e
100
AcDbEntity
  8
0
 62
7
100
AcDbSpline
 70
8
 71
3
 72
8
 73
4
 74
0
 40
0
 40
0
 40
0
 40
0
 40
1
 40
1
 40
1
 40
1
 10
76.601143
 20
23.167028
 30
0.0
 10
75.795696
 20
25.570749
 30
0.0
 10
75.249360
 20
27.025534
 30
0.0
 10
75.152104
 20
27.025534
 30
0.0
  0
SPLINE
  5
19f
100
AcDbEntity
  8
0
 62
7
100
AcDbSpline
 70
8
 71
3
 72
8
 73
4
 74
0
 40
0
 40
0
 40
0
 40
0
 40
1
 40
1
 40
1
 40
1
 10
75.152104
 20
27.025534
 30
0.0
 10
75.077653
 20
27.025534
 30
0.0
 10
74.794197
 20
26.327881
 30
0.0
 10
74.382405
 20
25.131120
 30
0.0
  0
SPLINE
  5
1a0
100
AcDbEntity
  8
0
 62
7
100
AcDbSpline
 70
8
 71
3
 72
8
 73
4
 74
0
 40
0
 40
0
 40
0
 40
0
 40
1
 40
1
 40
1
 40
1
 10
74.382405
 20
25.131120
 30
0.0
 10
74.023887
 20
24.089193
 30
0.0
 10
73.730556
 20
23.186303
 30
0.0
 10
73.730556
 20
23.124697
 30
0.0
  0
SPLINE
  5
1a1
100
AcDbEntity
  8
0
 62
7
100
AcDbSpline
 70
8
 71
3
 72
8
 73
4
 74
0
 40
0
 40
0
 40
0
 40
0
 40
1
 40
1
 40
1
 40
1
 10
73.730556
 20
23.124697
 30
0.0
 10
73.730556
 20
23.038655
 30
0.0
 10
74.069287
 20
23.012686
 30
0.0
 10
75.191707
 20
23.012686
 30
0.0
  0
SPLINE
  5
1a2
100
AcDbEntity
  8
0
 62
7
100
AcDbSpline
 70
8
 71
3
 72
8
 73
4
 74
0
 40
0
 40
0
 40
0
 40
0
 40
1
 40
1
 40
1
 40
1
 10
75.191707
 20
23.012686
 30
0.0
 10
76.544186
 20
23.012686
 30
0.0
 10
76.649014
 20
23.024169
 30
0.0
 10
76.601143
 20
23.167028
 30
0.0
  0
LWPOLYLINE
  5
1a3
100
AcDbEntity
  8
0
 62
7
100
AcDbPolyline
 90
5
 70
0
 10
72.048434
 20
18.360432
 30
0.0
 10
71.843754
 20
17.721022
 30
0.0
 10
70.233429
 20
17.721022
 30
0.0
 10
68.623103
 20
17.721022
 30
0.0
 10
68.742399
 20
18.051759
 30
0.0
  0
SPLINE
  5
1a4
100
AcDbEntity
  8
0
 62
7
100
AcDbSpline
 70
8
 71
3
 72
8
 73
4
 74
0
 40
0
 40
0
 40
0
 40
0
 40
1
 40
1
 40
1
 40
1
 10
7.872992
 20
37.559472
 30
0.0
 10
7.667739
 20
37.592921
 30
0.0
 10
7.481213
 20
37.638884
 30
0.0
 10
7.458488
 20
37.661607
 30
0.0
  0
SPLINE
  5
1a5
100
AcDbEntity
  8
0
 62
7
100
AcDbSpline
 70
8
 71
3
 72
8
 73
4
 74
0
 40
0
 40
0
 40
0
 40
0
 40
1
 40
1
 40
1
 40
1
 10
7.458488
 20
37.661607
 30
0.0
 10
7.424881
 20
37.695214
 30
0.0
 10
14.108100
 20
38.901013
 30
0.0
 10
15.037155
 20
39.028963
 30
0.0
  0
SPLINE
  5
1a6
100
AcDbEntity
  8
0
 62
7
100
AcDbSpline
 70
8
 71
3
 72
8
 73
4
 74
0
 40
0
 40
0
 40
0
 40
0
 40
1
 40
1
 40
1
 40
1
 10
15.037155
 20
39.028963
 30
0.0
 10
15.479044
 20
39.089822
 30
0.0
 10
13.990051
 20
38.393820
 30
0.0
 10
12.948106
 20
38.052476
 30
0.0
  0
SPLINE
  5
1a7
100
AcDbEntity
  8
0
 62
7
100
AcDbSpline
 70
8
 71
3
 72
8
 73
4
 74
0
 40
0
 40
0
 40
0
 40
0
 40
1
 40
1
 40
1
 40
1
 10
12.948106
 20
38.052476
 30
0.0
 10
12.429718
 20
37.882653
 30
0.0
 10
11.635968
 20
37.683760
 30
0.0
 10
11.184216
 20
37.610494
 30
0.0
  0
SPLINE
  5
1a8
100
AcDbEntity
  8
0
 62
7
100
AcDbSpline
 70
8
 71
3
 72
8
 73
4
 74
0
 40
0
 40
0
 40
0
 40
0
 40
1
 40
1
 40
1
 40
1
 10
11.184216
 20
37.610494
 30
0.0
 10
10.352742
 20
37.475647
 30
0.0
 10
8.557139
 20
37.447977
 30
0.0
 10
7.872992
 20
37.559472
 30
0.0
  0
LWPOLYLINE
  5
1a9
100
AcDbEntity
  8
0
 62
7
100
AcDbPolyline
 90
1
 70
1
 10
76.601143
 20
23.167028
 30
0.0
  0
SPLINE
  5
1aa
100
AcDbEntity
  8
0
 62
7
100
AcDbSpline
 70
8
 71
3
 72
8
 73
4
 74
0
 40
0
 40
0
 40
0
 40
0
 40
1
 40
1
 40
1
 40
1
 10
6.085417
 20
38.011989
 30
0.0
 10
5.494301
 20
38.219877
 30
0.0
 10
4.297305
 20
38.828009
 30
0.0
 10
4.260303
 20
38.939235
 30
0.0
  0
SPLINE
  5
1ab
100
AcDbEntity
  8
0
 62
7
100
AcDbSpline
 70
8
 71
3
 72
8
 73
4
 74
0
 40
0
 40
0
 40
0
 40
0
 40
1
 40
1
 40
1
 40
1
 10
4.260303
 20
38.939235
 30
0.0
 10
4.245539
 20
38.983642
 30
0.0
 10
7.358807
 20
39.568681
 30
0.0
 10
11.178699
 20
40.239320
 30
0.0
  0
SPLINE
  5
1ac
100
AcDbEntity
  8
0
 62
7
100
AcDbSpline
 70
8
 71
3
 72
8
 73
4
 74
0
 40
0
 40
0
 40
0
 40
0
 40
1
 40
1
 40
1
 40
1
 10
11.178699
 20
40.239320
 30
0.0
 10
14.998592
 20
40.909957
 30
0.0
 10
18.203334
 20
41.479877
 30
0.0
 10
18.300349
 20
41.505809
 30
0.0
  0
SPLINE
  5
1ad
100
AcDbEntity
  8
0
 62
7
100
AcDbSpline
 70
8
 71
3
 72
8
 73
4
 74
0
 40
0
 40
0
 40
0
 40
0
 40
1
 40
1
 40
1
 40
1
 10
18.300349
 20
41.505809
 30
0.0
 10
18.577952
 20
41.580014
 30
0.0
 10
17.798326
 20
40.814728
 30
0.0
 10
16.889238
 20
40.120652
 30
0.0
  0
LWPOLYLINE
  5
1ae
100
AcDbEntity
  8
0
 62
7
100
AcDbPolyline
 90
1
 70
1
 10
7.872992
 20
37.559472
 30
0.0
  0
SPLINE
  5
1af
100
AcDbEntity
  8
0
 62
7
100
AcDbSpline
 70
8
 71
3
 72
8
 73
4
 74
0
 40
0
 40
0
 40
0
 40
0
 40
1
 40
1
 40
1
 40
1
 10
11.553474
 20
38.716696
 30
0.0
 10
9.055365
 20
38.277829
 30
0.0
 10
6.912240
 20
37.901351
 30
0.0
 10
6.790974
 20
37.880076
 30
0.0
  0
SPLINE
  5
1b0
100
AcDbEntity
  8
0
 62
7
100
AcDbSpline
 70
8
 71
3
 72
8
 73
4
 74
0
 40
0
 40
0
 40
0
 40
0
 40
1
 40
1
 40
1
 40
1
 10
6.790974
 20
37.880076
 30
0.0
 10
6.669707
 20
37.858803
 30
0.0
 10
6.352207
 20
37.918162
 30
0.0
 10
6.085417
 20
38.011989
 30
0.0
  0
LWPOLYLINE
  5
1b1
100
AcDbEntity
  8
0
 62
7
100
AcDbPolyline
 90
3
 70
0
 10
16.889238
 20
40.120652
 30
0.0
 10
16.095488
 20
39.514637
 30
0.0
 10
11.553474
 20
38.716696
 30
0.0
  0
SPLINE
  5
1b2
100
AcDbEntity
  8
0
 62
7
100
AcDbSpline
 70
8
 71
3
 72
8
 73
4
 74
0
 40
0
 40
0
 40
0
 40
0
 40
1
 40
1
 40
1
 40
1
 10
3.058380
 20
39.865980
 30
0.0
 10
2.681759
 20
40.213013
 30
0.0
 10
2.392445
 20
40.515781
 30
0.0
 10
2.415461
 20
40.538797
 30
0.0
  0
SPLINE
  5
1b3
100
AcDbEntity
  8
0
 62
7
100
AcDbSpline
 70
8
 71
3
 72
8
 73
4
 74
0
 40
0
 40
0
 40
0
 40
0
 40
1
 40
1
 40
1
 40
1
 10
2.415461
 20
40.538797
 30
0.0
 10
2.469359
 20
40.592692
 30
0.0
 10
20.141161
 20
43.718491
 30
0.0
 10
20.186836
 20
43.682206
 30
0.0
  0
SPLINE
  5
1b4
100
AcDbEntity
  8
0
 62
7
100
AcDbSpline
 70
8
 71
3
 72
8
 73
4
 74
0
 40
0
 40
0
 40
0
 40
0
 40
1
 40
1
 40
1
 40
1
 10
20.186836
 20
43.682206
 30
0.0
 10
20.239858
 20
43.640084
 30
0.0
 10
19.618950
 20
42.773063
 30
0.0
 10
19.202345
 20
42.307489
 30
0.0
  0
LWPOLYLINE
  5
1b5
100
AcDbEntity
  8
0
 62
7
100
AcDbPolyline
 90
1
 70
1
 10
6.085417
 20
38.011989
 30
0.0
  0
SPLINE
  5
1b6
100
AcDbEntity
  8
0
 62
7
100
AcDbSpline
 70
8
 71
3
 72
8
 73
4
 74
0
 40
0
 40
0
 40
0
 40
0
 40
1
 40
1
 40
1
 40
1
 10
11.509376
 20
40.607925
 30
0.0
 10
7.483301
 20
39.902323
 30
0.0
 10
4.088866
 20
39.304764
 30
0.0
 10
3.966192
 20
39.280013
 30
0.0
  0
SPLINE
  5
1b7
100
AcDbEntity
  8
0
 62
7
100
AcDbSpline
 70
8
 71
3
 72
8
 73
4
 74
0
 40
0
 40
0
 40
0
 40
0
 40
1
 40
1
 40
1
 40
1
 10
3.966192
 20
39.280013
 30
0.0
 10
3.782992
 20
39.243050
 30
0.0
 10
3.620823
 20
39.347725
 30
0.0
 10
3.058380
 20
39.865980
 30
0.0
  0
LWPOLYLINE
  5
1b8
100
AcDbEntity
  8
0
 62
7
100
AcDbPolyline
 90
3
 70
0
 10
19.202345
 20
42.307489
 30
0.0
 10
18.829515
 20
41.890834
 30
0.0
 10
11.509376
 20
40.607925
 30
0.0
  0
SPLINE
  5
1b9
100
AcDbEntity
  8
0
 62
7
100
AcDbSpline
 70
8
 71
3
 72
8
 73
4
 74
0
 40
0
 40
0
 40
0
 40
0
 40
1
 40
1
 40
1
 40
1
 10
1.948236
 20
41.082127
 30
0.0
 10
1.858100
 20
41.209124
 30
0.0
 10
1.663245
 20
41.518803
 30
0.0
 10
1.515221
 20
41.770295
 30
0.0
  0
LWPOLYLINE
  5
1ba
100
AcDbEntity
  8
0
 62
7
100
AcDbPolyline
 90
1
 70
1
 10
3.058380
 20
39.865980
 30
0.0
  0
SPLINE
  5
1bb
100
AcDbEntity
  8
0
 62
7
100
AcDbSpline
 70
8
 71
3
 72
8
 73
4
 74
0
 40
0
 40
0
 40
0
 40
0
 40
1
 40
1
 40
1
 40
1
 10
1.482942
 20
42.278877
 30
0.0
 10
1.613210
 20
42.307103
 30
0.0
 10
3.154374
 20
42.581983
 30
0.0
 10
4.907751
 20
42.889723
 30
0.0
  0
LWPOLYLINE
  5
1bc
100
AcDbEntity
  8
0
 62
7
100
AcDbPolyline
 90
3
 70
0
 10
1.515221
 20
41.770295
 30
0.0
 10
1.246090
 20
42.227558
 30
0.0
 10
1.482942
 20
42.278877
 30
0.0
  0
SPLINE
  5
1bd
100
AcDbEntity
  8
0
 62
7
100
AcDbSpline
 70
8
 71
3
 72
8
 73
4
 74
0
 40
0
 40
0
 40
0
 40
0
 40
1
 40
1
 40
1
 40
1
 10
8.700112
 20
43.245767
 30
0.0
 10
10.434575
 20
42.661840
 30
0.0
 10
12.354301
 20
43.025965
 30
0.0
 10
14.088537
 20
44.267824
 30
0.0
  0
SPLINE
  5
1be
100
AcDbEntity
  8
0
 62
7
100
AcDbSpline
 70
8
 71
3
 72
8
 73
4
 74
0
 40
0
 40
0
 40
0
 40
0
 40
1
 40
1
 40
1
 40
1
 10
14.088537
 20
44.267824
 30
0.0
 10
14.365235
 20
44.465965
 30
0.0
 10
14.714874
 20
44.630808
 30
0.0
 10
14.931533
 20
44.665273
 30
0.0
  0
SPLINE
  5
1bf
100
AcDbEntity
  8
0
 62
7
100
AcDbSpline
 70
8
 71
3
 72
8
 73
4
 74
0
 40
0
 40
0
 40
0
 40
0
 40
1
 40
1
 40
1
 40
1
 10
14.931533
 20
44.665273
 30
0.0
 10
15.135146
 20
44.697663
 30
0.0
 10
16.644933
 20
44.961641
 30
0.0
 10
18.286617
 20
45.251891
 30
0.0
  0
SPLINE
  5
1c0
100
AcDbEntity
  8
0
 62
7
100
AcDbSpline
 70
8
 71
3
 72
8
 73
4
 74
0
 40
0
 40
0
 40
0
 40
0
 40
1
 40
1
 40
1
 40
1
 10
18.286617
 20
45.251891
 30
0.0
 10
19.928301
 20
45.542139
 30
0.0
 10
21.290106
 20
45.761008
 30
0.0
 10
21.312849
 20
45.738264
 30
0.0
  0
SPLINE
  5
1c1
100
AcDbEntity
  8
0
 62
7
100
AcDbSpline
 70
8
 71
3
 72
8
 73
4
 74
0
 40
0
 40
0
 40
0
 40
0
 40
1
 40
1
 40
1
 40
1
 10
21.312849
 20
45.738264
 30
0.0
 10
21.349693
 20
45.701421
 30
0.0
 10
20.758291
 20
44.477554
 30
0.0
 10
20.571201
 20
44.203474
 30
0.0
  0
SPLINE
  5
1c2
100
AcDbEntity
  8
0
 62
7
100
AcDbSpline
 70
8
 71
3
 72
8
 73
4
 74
0
 40
0
 40
0
 40
0
 40
0
 40
1
 40
1
 40
1
 40
1
 10
20.571201
 20
44.203474
 30
0.0
 10
20.510000
 20
44.113818
 30
0.0
 10
15.865655
 20
43.269760
 30
0.0
 10
2.533317
 20
40.925284
 30
0.0
  0
SPLINE
  5
1c3
100
AcDbEntity
  8
0
 62
7
100
AcDbSpline
 70
8
 71
3
 72
8
 73
4
 74
0
 40
0
 40
0
 40
0
 40
0
 40
1
 40
1
 40
1
 40
1
 10
2.533317
 20
40.925284
 30
0.0
 10
2.139675
 20
40.856064
 30
0.0
 10
2.101398
 20
40.866325
 30
0.0
 10
1.948236
 20
41.082127
 30
0.0
  0
LWPOLYLINE
  5
1c4
100
AcDbEntity
  8
0
 62
7
100
AcDbPolyline
 90
3
 70
0
 10
4.907751
 20
42.889723
 30
0.0
 10
8.095711
 20
43.449248
 30
0.0
 10
8.700112
 20
43.245767
 30
0.0
  0
SPLINE
  5
1c5
100
AcDbEntity
  8
0
 62
7
100
AcDbSpline
 70
8
 71
3
 72
8
 73
4
 74
0
 40
0
 40
0
 40
0
 40
0
 40
1
 40
1
 40
1
 40
1
 10
0.890815
 20
43.031754
 30
0.0
 10
0.786733
 20
43.273700
 30
0.0
 10
0.678405
 20
43.587509
 30
0.0
 10
0.650084
 20
43.729108
 30
0.0
  0
SPLINE
  5
1c6
100
AcDbEntity
  8
0
 62
7
100
AcDbSpline
 70
8
 71
3
 72
8
 73
4
 74
0
 40
0
 40
0
 40
0
 40
0
 40
1
 40
1
 40
1
 40
1
 10
0.650084
 20
43.729108
 30
0.0
 10
0.599937
 20
43.979835
 30
0.0
 10
0.610936
 20
43.989048
 30
0.0
 10
1.070999
 20
44.081713
 30
0.0
  0
SPLINE
  5
1c7
100
AcDbEntity
  8
0
 62
7
100
AcDbSpline
 70
8
 71
3
 72
8
 73
4
 74
0
 40
0
 40
0
 40
0
 40
0
 40
1
 40
1
 40
1
 40
1
 10
1.070999
 20
44.081713
 30
0.0
 10
1.890810
 20
44.246840
 30
0.0
 10
6.086465
 20
44.973102
 30
0.0
 10
6.220590
 20
44.973102
 30
0.0
  0
SPLINE
  5
1c8
100
AcDbEntity
  8
0
 62
7
100
AcDbSpline
 70
8
 71
3
 72
8
 73
4
 74
0
 40
0
 40
0
 40
0
 40
0
 40
1
 40
1
 40
1
 40
1
 10
6.220590
 20
44.973102
 30
0.0
 10
6.393474
 20
44.973102
 30
0.0
 10
7.599794
 20
43.736874
 30
0.0
 10
7.468111
 20
43.694649
 30
0.0
  0
SPLINE
  5
1c9
100
AcDbEntity
  8
0
 62
7
100
AcDbSpline
 70
8
 71
3
 72
8
 73
4
 74
0
 40
0
 40
0
 40
0
 40
0
 40
1
 40
1
 40
1
 40
1
 10
7.468111
 20
43.694649
 30
0.0
 10
7.339828
 20
43.653514
 30
0.0
 10
1.264420
 20
42.591852
 30
0.0
 10
1.157306
 20
42.591852
 30
0.0
  0
SPLINE
  5
1ca
100
AcDbEntity
  8
0
 62
7
100
AcDbSpline
 70
8
 71
3
 72
8
 73
4
 74
0
 40
0
 40
0
 40
0
 40
0
 40
1
 40
1
 40
1
 40
1
 10
1.157306
 20
42.591852
 30
0.0
 10
1.114819
 20
42.591852
 30
0.0
 10
0.994897
 20
42.789808
 30
0.0
 10
0.890815
 20
43.031754
 30
0.0
  0
LWPOLYLINE
  5
1cb
100
AcDbEntity
  8
0
 62
7
100
AcDbPolyline
 90
1
 70
1
 10
1.948236
 20
41.082127
 30
0.0
  0
SPLINE
  5
1cc
100
AcDbEntity
  8
0
 62
7
100
AcDbSpline
 70
8
 71
3
 72
8
 73
4
 74
0
 40
0
 40
0
 40
0
 40
0
 40
1
 40
1
 40
1
 40
1
 10
41.319098
 20
43.254298
 30
0.0
 10
41.222083
 20
43.272686
 30
0.0
 10
40.911164
 20
43.313019
 30
0.0
 10
40.628165
 20
43.343938
 30
0.0
  0
SPLINE
  5
1cd
100
AcDbEntity
  8
0
 62
7
100
AcDbSpline
 70
8
 71
3
 72
8
 73
4
 74
0
 40
0
 40
0
 40
0
 40
0
 40
1
 40
1
 40
1
 40
1
 10
40.628165
 20
43.343938
 30
0.0
 10
40.345167
 20
43.374855
 30
0.0
 10
40.131283
 20
43.417813
 30
0.0
 10
40.152870
 20
43.439397
 30
0.0
  0
SPLINE
  5
1ce
100
AcDbEntity
  8
0
 62
7
100
AcDbSpline
 70
8
 71
3
 72
8
 73
4
 74
0
 40
0
 40
0
 40
0
 40
0
 40
1
 40
1
 40
1
 40
1
 10
40.152870
 20
43.439397
 30
0.0
 10
40.174460
 20
43.460988
 30
0.0
 10
41.874437
 20
43.775006
 30
0.0
 10
43.930607
 20
44.137220
 30
0.0
  0
SPLINE
  5
1cf
100
AcDbEntity
  8
0
 62
7
100
AcDbSpline
 70
8
 71
3
 72
8
 73
4
 74
0
 40
0
 40
0
 40
0
 40
0
 40
1
 40
1
 40
1
 40
1
 10
43.930607
 20
44.137220
 30
0.0
 10
45.986777
 20
44.499437
 30
0.0
 10
47.738551
 20
44.812130
 30
0.0
 10
47.823438
 20
44.832095
 30
0.0
  0
SPLINE
  5
1d0
100
AcDbEntity
  8
0
 62
7
100
AcDbSpline
 70
8
 71
3
 72
8
 73
4
 74
0
 40
0
 40
0
 40
0
 40
0
 40
1
 40
1
 40
1
 40
1
 10
47.823438
 20
44.832095
 30
0.0
 10
48.112056
 20
44.899977
 30
0.0
 10
47.978957
 20
44.799525
 30
0.0
 10
47.382467
 20
44.499284
 30
0.0
  0
SPLINE
  5
1d1
100
AcDbEntity
  8
0
 62
7
100
AcDbSpline
 70
8
 71
3
 72
8
 73
4
 74
0
 40
0
 40
0
 40
0
 40
0
 40
1
 40
1
 40
1
 40
1
 10
47.382467
 20
44.499284
 30
0.0
 10
46.537073
 20
44.073760
 30
0.0
 10
45.376510
 20
43.680581
 30
0.0
 10
44.345958
 20
43.470568
 30
0.0
  0
SPLINE
  5
1d2
100
AcDbEntity
  8
0
 62
7
100
AcDbSpline
 70
8
 71
3
 72
8
 73
4
 74
0
 40
0
 40
0
 40
0
 40
0
 40
1
 40
1
 40
1
 40
1
 10
44.345958
 20
43.470568
 30
0.0
 10
43.528250
 20
43.303931
 30
0.0
 10
41.733790
 20
43.175716
 30
0.0
 10
41.319098
 20
43.254298
 30
0.0
  0
LWPOLYLINE
  5
1d3
100
AcDbEntity
  8
0
 62
7
100
AcDbPolyline
 90
1
 70
1
 10
0.890815
 20
43.031754
 30
0.0
  0
SPLINE
  5
1d4
100
AcDbEntity
  8
0
 62
7
100
AcDbSpline
 70
8
 71
3
 72
8
 73
4
 74
0
 40
0
 40
0
 40
0
 40
0
 40
1
 40
1
 40
1
 40
1
 10
38.761458
 20
43.820374
 30
0.0
 10
38.060590
 20
44.070378
 30
0.0
 10
36.743444
 20
44.781666
 30
0.0
 10
36.958685
 20
44.793911
 30
0.0
  0
SPLINE
  5
1d5
100
AcDbEntity
  8
0
 62
7
100
AcDbSpline
 70
8
 71
3
 72
8
 73
4
 74
0
 40
0
 40
0
 40
0
 40
0
 40
1
 40
1
 40
1
 40
1
 10
36.958685
 20
44.793911
 30
0.0
 10
36.985808
 20
44.795498
 30
0.0
 10
40.159996
 20
45.352610
 30
0.0
 10
44.012437
 20
46.032039
 30
0.0
  0
SPLINE
  5
1d6
100
AcDbEntity
  8
0
 62
7
100
AcDbSpline
 70
8
 71
3
 72
8
 73
4
 74
0
 40
0
 40
0
 40
0
 40
0
 40
1
 40
1
 40
1
 40
1
 10
44.012437
 20
46.032039
 30
0.0
 10
47.864882
 20
46.711465
 30
0.0
 10
51.052582
 20
47.255459
 30
0.0
 10
51.096220
 20
47.240915
 30
0.0
  0
SPLINE
  5
1d7
100
AcDbEntity
  8
0
 62
7
100
AcDbSpline
 70
8
 71
3
 72
8
 73
4
 74
0
 40
0
 40
0
 40
0
 40
0
 40
1
 40
1
 40
1
 40
1
 10
51.096220
 20
47.240915
 30
0.0
 10
51.204471
 20
47.204831
 30
0.0
 10
50.091266
 20
46.191982
 30
0.0
 10
49.397796
 20
45.695603
 30
0.0
  0
LWPOLYLINE
  5
1d8
100
AcDbEntity
  8
0
 62
7
100
AcDbPolyline
 90
1
 70
1
 10
41.319098
 20
43.254298
 30
0.0
  0
SPLINE
  5
1d9
100
AcDbEntity
  8
0
 62
7
100
AcDbSpline
 70
8
 71
3
 72
8
 73
4
 74
0
 40
0
 40
0
 40
0
 40
0
 40
1
 40
1
 40
1
 40
1
 10
44.194325
 20
44.471995
 30
0.0
 10
41.642811
 20
44.021190
 30
0.0
 10
39.475833
 20
43.654760
 30
0.0
 10
39.378821
 20
43.657711
 30
0.0
  0
SPLINE
  5
1da
100
AcDbEntity
  8
0
 62
7
100
AcDbSpline
 70
8
 71
3
 72
8
 73
4
 74
0
 40
0
 40
0
 40
0
 40
0
 40
1
 40
1
 40
1
 40
1
 10
39.378821
 20
43.657711
 30
0.0
 10
39.281806
 20
43.660647
 30
0.0
 10
39.003994
 20
43.733860
 30
0.0
 10
38.761458
 20
43.820374
 30
0.0
  0
LWPOLYLINE
  5
1db
100
AcDbEntity
  8
0
 62
7
100
AcDbPolyline
 90
3
 70
0
 10
49.397796
 20
45.695603
 30
0.0
 10
48.833439
 20
45.291642
 30
0.0
 10
44.194325
 20
44.471995
 30
0.0
  0
SPLINE
  5
1dc
100
AcDbEntity
  8
0
 62
7
100
AcDbSpline
 70
8
 71
3
 72
8
 73
4
 74
0
 40
0
 40
0
 40
0
 40
0
 40
1
 40
1
 40
1
 40
1
 10
0.366197
 20
44.849328
 30
0.0
 10
0.310309
 20
45.127611
 30
0.0
 10
0.264583
 20
45.460126
 30
0.0
 10
0.264583
 20
45.588251
 30
0.0
  0
LWPOLYLINE
  5
1dd
100
AcDbEntity
  8
0
 62
7
100
AcDbPolyline
 90
1
 70
1
 10
38.761458
 20
43.820374
 30
0.0
  0
SPLINE
  5
1de
100
AcDbEntity
  8
0
 62
7
100
AcDbSpline
 70
8
 71
3
 72
8
 73
4
 74
0
 40
0
 40
0
 40
0
 40
0
 40
1
 40
1
 40
1
 40
1
 10
2.846174
 20
46.279096
 30
0.0
 10
4.266047
 20
46.530940
 30
0.0
 10
5.486959
 20
46.736992
 30
0.0
 10
5.559312
 20
46.736992
 30
0.0
  0
SPLINE
  5
1df
100
AcDbEntity
  8
0
 62
7
100
AcDbSpline
 70
8
 71
3
 72
8
 73
4
 74
0
 40
0
 40
0
 40
0
 40
0
 40
1
 40
1
 40
1
 40
1
 10
5.559312
 20
46.736992
 30
0.0
 10
5.642476
 20
46.736992
 30
0.0
 10
5.757768
 20
46.534255
 30
0.0
 10
5.872774
 20
46.185778
 30
0.0
  0
SPLINE
  5
1e0
100
AcDbEntity
  8
0
 62
7
100
AcDbSpline
 70
8
 71
3
 72
8
 73
4
 74
0
 40
0
 40
0
 40
0
 40
0
 40
1
 40
1
 40
1
 40
1
 10
5.872774
 20
46.185778
 30
0.0
 10
5.972826
 20
45.882608
 30
0.0
 10
6.082509
 20
45.573400
 30
0.0
 10
6.116516
 20
45.498647
 30
0.0
  0
SPLINE
  5
1e1
100
AcDbEntity
  8
0
 62
7
100
AcDbSpline
 70
8
 71
3
 72
8
 73
4
 74
0
 40
0
 40
0
 40
0
 40
0
 40
1
 40
1
 40
1
 40
1
 10
6.116516
 20
45.498647
 30
0.0
 10
6.169150
 20
45.382939
 30
0.0
 10
5.781392
 20
45.293166
 30
0.0
 10
3.508095
 20
44.894770
 30
0.0
  0
SPLINE
  5
1e2
100
AcDbEntity
  8
0
 62
7
100
AcDbSpline
 70
8
 71
3
 72
8
 73
4
 74
0
 40
0
 40
0
 40
0
 40
0
 40
1
 40
1
 40
1
 40
1
 10
3.508095
 20
44.894770
 30
0.0
 10
2.039459
 20
44.637389
 30
0.0
 10
0.754589
 20
44.408029
 30
0.0
 10
0.652830
 20
44.385082
 30
0.0
  0
SPLINE
  5
1e3
100
AcDbEntity
  8
0
 62
7
100
AcDbSpline
 70
8
 71
3
 72
8
 73
4
 74
0
 40
0
 40
0
 40
0
 40
0
 40
1
 40
1
 40
1
 40
1
 10
0.652830
 20
44.385082
 30
0.0
 10
0.489614
 20
44.348273
 30
0.0
 10
0.455837
 20
44.402968
 30
0.0
 10
0.366197
 20
44.849328
 30
0.0
  0
LWPOLYLINE
  5
1e4
100
AcDbEntity
  8
0
 62
7
100
AcDbPolyline
 90
3
 70
0
 10
0.264583
 20
45.588251
 30
0.0
 10
0.264583
 20
45.821200
 30
0.0
 10
2.846174
 20
46.279096
 30
0.0
  0
SPLINE
  5
1e5
100
AcDbEntity
  8
0
 62
7
100
AcDbSpline
 70
8
 71
3
 72
8
 73
4
 74
0
 40
0
 40
0
 40
0
 40
0
 40
1
 40
1
 40
1
 40
1
 10
15.273685
 20
45.331462
 30
0.0
 10
15.386127
 20
45.480052
 30
0.0
 10
15.661781
 20
45.866209
 30
0.0
 10
15.886251
 20
46.189590
 30
0.0
  0
LWPOLYLINE
  5
1e6
100
AcDbEntity
  8
0
 62
7
100
AcDbPolyline
 90
1
 70
1
 10
0.366197
 20
44.849328
 30
0.0
  0
SPLINE
  5
1e7
100
AcDbEntity
  8
0
 62
7
100
AcDbSpline
 70
8
 71
3
 72
8
 73
4
 74
0
 40
0
 40
0
 40
0
 40
0
 40
1
 40
1
 40
1
 40
1
 10
19.149444
 20
47.278970
 30
0.0
 10
20.719733
 20
47.554748
 30
0.0
 10
22.018713
 20
47.766243
 30
0.0
 10
22.036064
 20
47.748957
 30
0.0
  0
SPLINE
  5
1e8
100
AcDbEntity
  8
0
 62
7
100
AcDbSpline
 70
8
 71
3
 72
8
 73
4
 74
0
 40
0
 40
0
 40
0
 40
0
 40
1
 40
1
 40
1
 40
1
 10
22.036064
 20
47.748957
 30
0.0
 10
22.053421
 20
47.731680
 30
0.0
 10
21.959875
 20
47.379173
 30
0.0
 10
21.828192
 20
46.965627
 30
0.0
  0
SPLINE
  5
1e9
100
AcDbEntity
  8
0
 62
7
100
AcDbSpline
 70
8
 71
3
 72
8
 73
4
 74
0
 40
0
 40
0
 40
0
 40
0
 40
1
 40
1
 40
1
 40
1
 10
21.828192
 20
46.965627
 30
0.0
 10
21.677697
 20
46.492988
 30
0.0
 10
21.534951
 20
46.197433
 30
0.0
 10
21.443866
 20
46.169863
 30
0.0
  0
SPLINE
  5
1ea
100
AcDbEntity
  8
0
 62
7
100
AcDbSpline
 70
8
 71
3
 72
8
 73
4
 74
0
 40
0
 40
0
 40
0
 40
0
 40
1
 40
1
 40
1
 40
1
 10
21.443866
 20
46.169863
 30
0.0
 10
21.276744
 20
46.119277
 30
0.0
 10
15.269118
 20
45.061299
 30
0.0
 10
15.148994
 20
45.061299
 30
0.0
  0
SPLINE
  5
1eb
100
AcDbEntity
  8
0
 62
7
100
AcDbSpline
 70
8
 71
3
 72
8
 73
4
 74
0
 40
0
 40
0
 40
0
 40
0
 40
1
 40
1
 40
1
 40
1
 10
15.148994
 20
45.061299
 30
0.0
 10
15.105129
 20
45.061299
 30
0.0
 10
15.161245
 20
45.182872
 30
0.0
 10
15.273685
 20
45.331462
 30
0.0
  0
LWPOLYLINE
  5
1ec
100
AcDbEntity
  8
0
 62
7
100
AcDbPolyline
 90
3
 70
0
 10
15.886251
 20
46.189590
 30
0.0
 10
16.294373
 20
46.777553
 30
0.0
 10
19.149444
 20
47.278970
 30
0.0
  0
SPLINE
  5
1ed
100
AcDbEntity
  8
0
 62
7
100
AcDbSpline
 70
8
 71
3
 72
8
 73
4
 74
0
 40
0
 40
0
 40
0
 40
0
 40
1
 40
1
 40
1
 40
1
 10
35.784343
 20
45.670899
 30
0.0
 10
35.432974
 20
46.006179
 30
0.0
 10
35.165332
 20
46.299162
 30
0.0
 10
35.189583
 20
46.321972
 30
0.0
  0
SPLINE
  5
1ee
100
AcDbEntity
  8
0
 62
7
100
AcDbSpline
 70
8
 71
3
 72
8
 73
4
 74
0
 40
0
 40
0
 40
0
 40
0
 40
1
 40
1
 40
1
 40
1
 10
35.189583
 20
46.321972
 30
0.0
 10
35.229146
 20
46.359180
 30
0.0
 10
52.775371
 20
49.471020
 30
0.0
 10
52.945612
 20
49.471020
 30
0.0
  0
SPLINE
  5
1ef
100
AcDbEntity
  8
0
 62
7
100
AcDbSpline
 70
8
 71
3
 72
8
 73
4
 74
0
 40
0
 40
0
 40
0
 40
0
 40
1
 40
1
 40
1
 40
1
 10
52.945612
 20
49.471020
 30
0.0
 10
53.031954
 20
49.471020
 30
0.0
 10
52.418401
 20
48.598598
 30
0.0
 10
51.959767
 20
48.069225
 30
0.0
  0
LWPOLYLINE
  5
1f0
100
AcDbEntity
  8
0
 62
7
100
AcDbPolyline
 90
1
 70
1
 10
15.273685
 20
45.331462
 30
0.0
  0
SPLINE
  5
1f1
100
AcDbEntity
  8
0
 62
7
100
AcDbSpline
 70
8
 71
3
 72
8
 73
4
 74
0
 40
0
 40
0
 40
0
 40
0
 40
1
 40
1
 40
1
 40
1
 10
44.222588
 20
46.374571
 30
0.0
 10
40.151815
 20
45.655669
 30
0.0
 10
36.731636
 20
45.066085
 30
0.0
 10
36.622191
 20
45.064386
 30
0.0
  0
SPLINE
  5
1f2
100
AcDbEntity
  8
0
 62
7
100
AcDbSpline
 70
8
 71
3
 72
8
 73
4
 74
0
 40
0
 40
0
 40
0
 40
0
 40
1
 40
1
 40
1
 40
1
 10
36.622191
 20
45.064386
 30
0.0
 10
36.493950
 20
45.062270
 30
0.0
 10
36.196061
 20
45.278035
 30
0.0
 10
35.784343
 20
45.670899
 30
0.0
  0
LWPOLYLINE
  5
1f3
100
AcDbEntity
  8
0
 62
7
100
AcDbPolyline
 90
3
 70
0
 10
51.959767
 20
48.069225
 30
0.0
 10
51.623995
 20
47.681668
 30
0.0
 10
44.222588
 20
46.374571
 30
0.0
  0
SPLINE
  5
1f4
100
AcDbEntity
  8
0
 62
7
100
AcDbSpline
 70
8
 71
3
 72
8
 73
4
 74
0
 40
0
 40
0
 40
0
 40
0
 40
1
 40
1
 40
1
 40
1
 10
0.230899
 20
46.270910
 30
0.0
 10
0.200919
 20
46.300890
 30
0.0
 10
0.176390
 20
46.617705
 30
0.0
 10
0.176390
 20
46.974945
 30
0.0
  0
SPLINE
  5
1f5
100
AcDbEntity
  8
0
 62
7
100
AcDbSpline
 70
8
 71
3
 72
8
 73
4
 74
0
 40
0
 40
0
 40
0
 40
0
 40
1
 40
1
 40
1
 40
1
 10
0.176390
 20
46.974945
 30
0.0
 10
0.176390
 20
47.496140
 30
0.0
 10
0.205026
 20
47.635462
 30
0.0
 10
0.321331
 20
47.680092
 30
0.0
  0
SPLINE
  5
1f6
100
AcDbEntity
  8
0
 62
7
100
AcDbSpline
 70
8
 71
3
 72
8
 73
4
 74
0
 40
0
 40
0
 40
0
 40
0
 40
1
 40
1
 40
1
 40
1
 10
0.321331
 20
47.680092
 30
0.0
 10
0.401050
 20
47.710683
 30
0.0
 10
1.621441
 20
47.939322
 30
0.0
 10
3.033311
 20
48.188181
 30
0.0
  0
LWPOLYLINE
  5
1f7
100
AcDbEntity
  8
0
 62
7
100
AcDbPolyline
 90
1
 70
1
 10
35.784343
 20
45.670899
 30
0.0
  0
SPLINE
  5
1f8
100
AcDbEntity
  8
0
 62
7
100
AcDbSpline
 70
8
 71
3
 72
8
 73
4
 74
0
 40
0
 40
0
 40
0
 40
0
 40
1
 40
1
 40
1
 40
1
 10
5.626146
 20
47.942450
 30
0.0
 10
5.640327
 20
47.558439
 30
0.0
 10
5.631226
 20
47.223524
 30
0.0
 10
5.605878
 20
47.198195
 30
0.0
  0
SPLINE
  5
1f9
100
AcDbEntity
  8
0
 62
7
100
AcDbSpline
 70
8
 71
3
 72
8
 73
4
 74
0
 40
0
 40
0
 40
0
 40
0
 40
1
 40
1
 40
1
 40
1
 10
5.605878
 20
47.198195
 30
0.0
 10
5.580558
 20
47.172875
 30
0.0
 10
4.477536
 20
46.961298
 30
0.0
 10
3.154739
 20
46.728041
 30
0.0
  0
SPLINE
  5
1fa
100
AcDbEntity
  8
0
 62
7
100
AcDbSpline
 70
8
 71
3
 72
8
 73
4
 74
0
 40
0
 40
0
 40
0
 40
0
 40
1
 40
1
 40
1
 40
1
 10
3.154739
 20
46.728041
 30
0.0
 10
1.831941
 20
46.494787
 30
0.0
 10
0.645194
 20
46.284245
 30
0.0
 10
0.517528
 20
46.260171
 30
0.0
  0
SPLINE
  5
1fb
100
AcDbEntity
  8
0
 62
7
100
AcDbSpline
 70
8
 71
3
 72
8
 73
4
 74
0
 40
0
 40
0
 40
0
 40
0
 40
1
 40
1
 40
1
 40
1
 10
0.517528
 20
46.260171
 30
0.0
 10
0.389861
 20
46.236094
 30
0.0
 10
0.260877
 20
46.240935
 30
0.0
 10
0.230897
 20
46.270913
 30
0.0
  0
LWPOLYLINE
  5
1fc
100
AcDbEntity
  8
0
 62
7
100
AcDbPolyline
 90
3
 70
0
 10
3.033311
 20
48.188181
 30
0.0
 10
5.600349
 20
48.640653
 30
0.0
 10
5.626146
 20
47.942450
 30
0.0
  0
SPLINE
  5
1fd
100
AcDbEntity
  8
0
 62
7
100
AcDbSpline
 70
8
 71
3
 72
8
 73
4
 74
0
 40
0
 40
0
 40
0
 40
0
 40
1
 40
1
 40
1
 40
1
 10
34.549255
 20
47.111819
 30
0.0
 10
34.194171
 20
47.651397
 30
0.0
 10
34.016783
 20
47.976449
 30
0.0
 10
34.057960
 20
48.012096
 30
0.0
  0
SPLINE
  5
1fe
100
AcDbEntity
  8
0
 62
7
100
AcDbSpline
 70
8
 71
3
 72
8
 73
4
 74
0
 40
0
 40
0
 40
0
 40
0
 40
1
 40
1
 40
1
 40
1
 10
34.057960
 20
48.012096
 30
0.0
 10
34.074021
 20
48.025987
 30
0.0
 10
35.604064
 20
48.304437
 30
0.0
 10
37.458065
 20
48.630853
 30
0.0
  0
LWPOLYLINE
  5
1ff
100
AcDbEntity
  8
0
 62
7
100
AcDbPolyline
 90
1
 70
1
 10
0.230897
 20
46.270913
 30
0.0
  0
SPLINE
  5
200
100
AcDbEntity
  8
0
 62
7
100
AcDbSpline
 70
8
 71
3
 72
8
 73
4
 74
0
 40
0
 40
0
 40
0
 40
0
 40
1
 40
1
 40
1
 40
1
 10
41.382717
 20
49.030587
 30
0.0
 10
41.734695
 20
48.907434
 30
0.0
 10
42.245817
 20
48.819729
 30
0.0
 10
42.785498
 20
48.789884
 30
0.0
  0
SPLINE
  5
201
100
AcDbEntity
  8
0
 62
7
100
AcDbSpline
 70
8
 71
3
 72
8
 73
4
 74
0
 40
0
 40
0
 40
0
 40
0
 40
1
 40
1
 40
1
 40
1
 10
42.785498
 20
48.789884
 30
0.0
 10
44.204821
 20
48.711387
 30
0.0
 10
45.471424
 20
49.088210
 30
0.0
 10
46.718487
 20
49.959967
 30
0.0
  0
LWPOLYLINE
  5
202
100
AcDbEntity
  8
0
 62
7
100
AcDbPolyline
 90
3
 70
0
 10
37.458065
 20
48.630853
 30
0.0
 10
40.828976
 20
49.224336
 30
0.0
 10
41.382717
 20
49.030587
 30
0.0
  0
SPLINE
  5
203
100
AcDbEntity
  8
0
 62
7
100
AcDbSpline
 70
8
 71
3
 72
8
 73
4
 74
0
 40
0
 40
0
 40
0
 40
0
 40
1
 40
1
 40
1
 40
1
 10
50.704041
 20
50.966994
 30
0.0
 10
52.575830
 20
51.296977
 30
0.0
 10
54.116661
 20
51.558949
 30
0.0
 10
54.128112
 20
51.549154
 30
0.0
  0
SPLINE
  5
204
100
AcDbEntity
  8
0
 62
7
100
AcDbSpline
 70
8
 71
3
 72
8
 73
4
 74
0
 40
0
 40
0
 40
0
 40
0
 40
1
 40
1
 40
1
 40
1
 10
54.128112
 20
51.549154
 30
0.0
 10
54.150998
 20
51.529567
 30
0.0
 10
53.454755
 20
50.194792
 30
0.0
 10
53.313542
 20
49.987566
 30
0.0
  0
SPLINE
  5
205
100
AcDbEntity
  8
0
 62
7
100
AcDbSpline
 70
8
 71
3
 72
8
 73
4
 74
0
 40
0
 40
0
 40
0
 40
0
 40
1
 40
1
 40
1
 40
1
 10
53.313542
 20
49.987566
 30
0.0
 10
53.250571
 20
49.895155
 30
0.0
 10
50.614810
 20
49.398781
 30
0.0
 10
44.097223
 20
48.251922
 30
0.0
  0
SPLINE
  5
206
100
AcDbEntity
  8
0
 62
7
100
AcDbSpline
 70
8
 71
3
 72
8
 73
4
 74
0
 40
0
 40
0
 40
0
 40
0
 40
1
 40
1
 40
1
 40
1
 10
44.097223
 20
48.251922
 30
0.0
 10
39.076754
 20
47.368500
 30
0.0
 10
34.943193
 20
46.646399
 30
0.0
 10
34.911527
 20
46.647251
 30
0.0
  0
SPLINE
  5
207
100
AcDbEntity
  8
0
 62
7
100
AcDbSpline
 70
8
 71
3
 72
8
 73
4
 74
0
 40
0
 40
0
 40
0
 40
0
 40
1
 40
1
 40
1
 40
1
 10
34.911527
 20
46.647251
 30
0.0
 10
34.879865
 20
46.648045
 30
0.0
 10
34.716842
 20
46.857158
 30
0.0
 10
34.549255
 20
47.111819
 30
0.0
  0
LWPOLYLINE
  5
208
100
AcDbEntity
  8
0
 62
7
100
AcDbPolyline
 90
3
 70
0
 10
46.718487
 20
49.959967
 30
0.0
 10
47.300793
 20
50.367028
 30
0.0
 10
50.704041
 20
50.966994
 30
0.0
  0
SPLINE
  5
209
100
AcDbEntity
  8
0
 62
7
100
AcDbSpline
 70
8
 71
3
 72
8
 73
4
 74
0
 40
0
 40
0
 40
0
 40
0
 40
1
 40
1
 40
1
 40
1
 10
16.532977
 20
47.332649
 30
0.0
 10
16.565547
 20
47.417347
 30
0.0
 10
16.676460
 20
47.772876
 30
0.0
 10
16.779450
 20
48.122713
 30
0.0
  0
SPLINE
  5
20a
100
AcDbEntity
  8
0
 62
7
100
AcDbSpline
 70
8
 71
3
 72
8
 73
4
 74
0
 40
0
 40
0
 40
0
 40
0
 40
1
 40
1
 40
1
 40
1
 10
16.779450
 20
48.122713
 30
0.0
 10
16.939612
 20
48.666752
 30
0.0
 10
16.999379
 20
48.765590
 30
0.0
 10
17.192554
 20
48.805857
 30
0.0
  0
SPLINE
  5
20b
100
AcDbEntity
  8
0
 62
7
100
AcDbSpline
 70
8
 71
3
 72
8
 73
4
 74
0
 40
0
 40
0
 40
0
 40
0
 40
1
 40
1
 40
1
 40
1
 10
17.192554
 20
48.805857
 30
0.0
 10
17.316771
 20
48.831759
 30
0.0
 10
22.041999
 20
49.666595
 30
0.0
 10
27.693056
 20
50.661073
 30
0.0
  0
SPLINE
  5
20c
100
AcDbEntity
  8
0
 62
7
100
AcDbSpline
 70
8
 71
3
 72
8
 73
4
 74
0
 40
0
 40
0
 40
0
 40
0
 40
1
 40
1
 40
1
 40
1
 10
27.693056
 20
50.661073
 30
0.0
 10
33.344115
 20
51.655548
 30
0.0
 10
38.070102
 20
52.490820
 30
0.0
 10
38.195247
 20
52.517232
 30
0.0
  0
SPLINE
  5
20d
100
AcDbEntity
  8
0
 62
7
100
AcDbSpline
 70
8
 71
3
 72
8
 73
4
 74
0
 40
0
 40
0
 40
0
 40
0
 40
1
 40
1
 40
1
 40
1
 10
38.195247
 20
52.517232
 30
0.0
 10
38.411171
 20
52.562801
 30
0.0
 10
38.434351
 20
52.530178
 30
0.0
 10
38.649426
 20
51.878032
 30
0.0
  0
SPLINE
  5
20e
100
AcDbEntity
  8
0
 62
7
100
AcDbSpline
 70
8
 71
3
 72
8
 73
4
 74
0
 40
0
 40
0
 40
0
 40
0
 40
1
 40
1
 40
1
 40
1
 10
38.649426
 20
51.878032
 30
0.0
 10
38.774082
 20
51.500060
 30
0.0
 10
38.859505
 20
51.173576
 30
0.0
 10
38.839262
 20
51.152510
 30
0.0
  0
SPLINE
  5
20f
100
AcDbEntity
  8
0
 62
7
100
AcDbSpline
 70
8
 71
3
 72
8
 73
4
 74
0
 40
0
 40
0
 40
0
 40
0
 40
1
 40
1
 40
1
 40
1
 10
38.839262
 20
51.152510
 30
0.0
 10
38.819021
 20
51.131449
 30
0.0
 10
33.891823
 20
50.249963
 30
0.0
 10
27.889941
 20
49.193663
 30
0.0
  0
SPLINE
  5
210
100
AcDbEntity
  8
0
 62
7
100
AcDbSpline
 70
8
 71
3
 72
8
 73
4
 74
0
 40
0
 40
0
 40
0
 40
0
 40
1
 40
1
 40
1
 40
1
 10
27.889941
 20
49.193663
 30
0.0
 10
21.888062
 20
48.137360
 30
0.0
 10
16.864106
 20
47.251861
 30
0.0
 10
16.725594
 20
47.225884
 30
0.0
  0
SPLINE
  5
211
100
AcDbEntity
  8
0
 62
7
100
AcDbSpline
 70
8
 71
3
 72
8
 73
4
 74
0
 40
0
 40
0
 40
0
 40
0
 40
1
 40
1
 40
1
 40
1
 10
16.725594
 20
47.225884
 30
0.0
 10
16.512998
 20
47.186011
 30
0.0
 10
16.482984
 20
47.202654
 30
0.0
 10
16.532977
 20
47.332649
 30
0.0
  0
LWPOLYLINE
  5
212
100
AcDbEntity
  8
0
 62
7
100
AcDbPolyline
 90
1
 70
1
 10
34.549255
 20
47.111819
 30
0.0
  0
SPLINE
  5
213
100
AcDbEntity
  8
0
 62
7
100
AcDbSpline
 70
8
 71
3
 72
8
 73
4
 74
0
 40
0
 40
0
 40
0
 40
0
 40
1
 40
1
 40
1
 40
1
 10
24.331751
 20
47.349370
 30
0.0
 10
23.540464
 20
47.431952
 30
0.0
 10
22.313115
 20
47.693382
 30
0.0
 10
22.313385
 20
47.779286
 30
0.0
  0
SPLINE
  5
214
100
AcDbEntity
  8
0
 62
7
100
AcDbSpline
 70
8
 71
3
 72
8
 73
4
 74
0
 40
0
 40
0
 40
0
 40
0
 40
1
 40
1
 40
1
 40
1
 10
22.313385
 20
47.779286
 30
0.0
 10
22.313472
 20
47.812359
 30
0.0
 10
24.109346
 20
48.154294
 30
0.0
 10
26.304182
 20
48.539143
 30
0.0
  0
SPLINE
  5
215
100
AcDbEntity
  8
0
 62
7
100
AcDbSpline
 70
8
 71
3
 72
8
 73
4
 74
0
 40
0
 40
0
 40
0
 40
0
 40
1
 40
1
 40
1
 40
1
 10
26.304182
 20
48.539143
 30
0.0
 10
28.499017
 20
48.923991
 30
0.0
 10
31.009167
 20
49.371280
 30
0.0
 10
31.882292
 20
49.533118
 30
0.0
  0
SPLINE
  5
216
100
AcDbEntity
  8
0
 62
7
100
AcDbSpline
 70
8
 71
3
 72
8
 73
4
 74
0
 40
0
 40
0
 40
0
 40
0
 40
1
 40
1
 40
1
 40
1
 10
31.882292
 20
49.533118
 30
0.0
 10
32.755417
 20
49.694956
 30
0.0
 10
34.729388
 20
50.044542
 30
0.0
 10
36.268895
 20
50.309973
 30
0.0
  0
LWPOLYLINE
  5
217
100
AcDbEntity
  8
0
 62
7
100
AcDbPolyline
 90
1
 70
1
 10
16.532977
 20
47.332649
 30
0.0
  0
SPLINE
  5
218
100
AcDbEntity
  8
0
 62
7
100
AcDbSpline
 70
8
 71
3
 72
8
 73
4
 74
0
 40
0
 40
0
 40
0
 40
0
 40
1
 40
1
 40
1
 40
1
 10
38.761458
 20
49.209125
 30
0.0
 10
37.888333
 20
49.053788
 30
0.0
 10
36.428228
 20
48.796244
 30
0.0
 10
35.516778
 20
48.636806
 30
0.0
  0
LWPOLYLINE
  5
219
100
AcDbEntity
  8
0
 62
7
100
AcDbPolyline
 90
5
 70
0
 10
36.268895
 20
50.309973
 30
0.0
 10
39.067999
 20
50.792581
 30
0.0
 10
39.708479
 20
50.142066
 30
0.0
 10
40.348958
 20
49.491552
 30
0.0
 10
38.761458
 20
49.209125
 30
0.0
  0
SPLINE
  5
21a
100
AcDbEntity
  8
0
 62
7
100
AcDbSpline
 70
8
 71
3
 72
8
 73
4
 74
0
 40
0
 40
0
 40
0
 40
0
 40
1
 40
1
 40
1
 40
1
 10
33.742789
 20
48.578238
 30
0.0
 10
33.678545
 20
48.705463
 30
0.0
 10
33.557483
 20
49.019120
 30
0.0
 10
33.473766
 20
49.275252
 30
0.0
  0
LWPOLYLINE
  5
21b
100
AcDbEntity
  8
0
 62
7
100
AcDbPolyline
 90
3
 70
0
 10
35.516778
 20
48.636806
 30
0.0
 10
33.859597
 20
48.346921
 30
0.0
 10
33.742789
 20
48.578238
 30
0.0
  0
SPLINE
  5
21c
100
AcDbEntity
  8
0
 62
7
100
AcDbSpline
 70
8
 71
3
 72
8
 73
4
 74
0
 40
0
 40
0
 40
0
 40
0
 40
1
 40
1
 40
1
 40
1
 10
32.866505
 20
49.468877
 30
0.0
 10
30.184849
 20
47.865517
 30
0.0
 10
26.989516
 20
47.071994
 30
0.0
 10
24.331751
 20
47.349370
 30
0.0
  0
LWPOLYLINE
  5
21d
100
AcDbEntity
  8
0
 62
7
100
AcDbPolyline
 90
3
 70
0
 10
33.473766
 20
49.275252
 30
0.0
 10
33.321548
 20
49.740948
 30
0.0
 10
32.866505
 20
49.468877
 30
0.0
  0
SPLINE
  5
21e
100
AcDbEntity
  8
0
 62
7
100
AcDbSpline
 70
8
 71
3
 72
8
 73
4
 74
0
 40
0
 40
0
 40
0
 40
0
 40
1
 40
1
 40
1
 40
1
 10
0.297326
 20
48.390638
 30
0.0
 10
0.503412
 20
49.459656
 30
0.0
 10
0.548862
 20
49.647436
 30
0.0
 10
0.601565
 20
49.647648
 30
0.0
  0
SPLINE
  5
21f
100
AcDbEntity
  8
0
 62
7
100
AcDbSpline
 70
8
 71
3
 72
8
 73
4
 74
0
 40
0
 40
0
 40
0
 40
0
 40
1
 40
1
 40
1
 40
1
 10
0.601565
 20
49.647648
 30
0.0
 10
0.634508
 20
49.647735
 30
0.0
 10
1.907379
 20
49.866988
 30
0.0
 10
3.430170
 20
50.134782
 30
0.0
  0
SPLINE
  5
220
100
AcDbEntity
  8
0
 62
7
100
AcDbSpline
 70
8
 71
3
 72
8
 73
4
 74
0
 40
0
 40
0
 40
0
 40
0
 40
1
 40
1
 40
1
 40
1
 10
3.430170
 20
50.134782
 30
0.0
 10
4.952961
 20
50.402575
 30
0.0
 10
6.211351
 20
50.609206
 30
0.0
 10
6.226594
 20
50.593964
 30
0.0
  0
SPLINE
  5
221
100
AcDbEntity
  8
0
 62
7
100
AcDbSpline
 70
8
 71
3
 72
8
 73
4
 74
0
 40
0
 40
0
 40
0
 40
0
 40
1
 40
1
 40
1
 40
1
 10
6.226594
 20
50.593964
 30
0.0
 10
6.241834
 20
50.578724
 30
0.0
 10
6.138543
 20
50.231916
 30
0.0
 10
5.997046
 20
49.823289
 30
0.0
  0
LWPOLYLINE
  5
222
100
AcDbEntity
  8
0
 62
7
100
AcDbPolyline
 90
1
 70
1
 10
24.331751
 20
47.349370
 30
0.0
  0
SPLINE
  5
223
100
AcDbEntity
  8
0
 62
7
100
AcDbSpline
 70
8
 71
3
 72
8
 73
4
 74
0
 40
0
 40
0
 40
0
 40
0
 40
1
 40
1
 40
1
 40
1
 10
3.112427
 20
48.615833
 30
0.0
 10
1.667380
 20
48.360359
 30
0.0
 10
0.432308
 20
48.150608
 30
0.0
 10
0.367818
 20
48.149719
 30
0.0
  0
SPLINE
  5
224
100
AcDbEntity
  8
0
 62
7
100
AcDbSpline
 70
8
 71
3
 72
8
 73
4
 74
0
 40
0
 40
0
 40
0
 40
0
 40
1
 40
1
 40
1
 40
1
 10
0.367818
 20
48.149719
 30
0.0
 10
0.287181
 20
48.148661
 30
0.0
 10
0.265168
 20
48.223834
 30
0.0
 10
0.297326
 20
48.390638
 30
0.0
  0
LWPOLYLINE
  5
225
100
AcDbEntity
  8
0
 62
7
100
AcDbPolyline
 90
3
 70
0
 10
5.997046
 20
49.823289
 30
0.0
 10
5.739784
 20
49.080334
 30
0.0
 10
3.112427
 20
48.615833
 30
0.0
  0
SPLINE
  5
226
100
AcDbEntity
  8
0
 62
7
100
AcDbSpline
 70
8
 71
3
 72
8
 73
4
 74
0
 40
0
 40
0
 40
0
 40
0
 40
1
 40
1
 40
1
 40
1
 10
17.008301
 20
49.823797
 30
0.0
 10
17.001025
 20
50.163346
 30
0.0
 10
16.991103
 20
50.487524
 30
0.0
 10
16.986261
 20
50.544198
 30
0.0
  0
SPLINE
  5
227
100
AcDbEntity
  8
0
 62
7
100
AcDbSpline
 70
8
 71
3
 72
8
 73
4
 74
0
 40
0
 40
0
 40
0
 40
0
 40
1
 40
1
 40
1
 40
1
 10
16.986261
 20
50.544198
 30
0.0
 10
16.980387
 20
50.612916
 30
0.0
 10
20.517179
 20
51.272567
 30
0.0
 10
27.604871
 20
52.524680
 30
0.0
  0
SPLINE
  5
228
100
AcDbEntity
  8
0
 62
7
100
AcDbSpline
 70
8
 71
3
 72
8
 73
4
 74
0
 40
0
 40
0
 40
0
 40
0
 40
1
 40
1
 40
1
 40
1
 10
27.604871
 20
52.524680
 30
0.0
 10
33.449956
 20
53.557275
 30
0.0
 10
38.275347
 20
54.403876
 30
0.0
 10
38.327960
 20
54.406016
 30
0.0
  0
SPLINE
  5
229
100
AcDbEntity
  8
0
 62
7
100
AcDbSpline
 70
8
 71
3
 72
8
 73
4
 74
0
 40
0
 40
0
 40
0
 40
0
 40
1
 40
1
 40
1
 40
1
 10
38.327960
 20
54.406016
 30
0.0
 10
38.392410
 20
54.408635
 30
0.0
 10
38.410449
 20
54.172542
 30
0.0
 10
38.383252
 20
53.682304
 30
0.0
  0
SPLINE
  5
22a
100
AcDbEntity
  8
0
 62
7
100
AcDbSpline
 70
8
 71
3
 72
8
 73
4
 74
0
 40
0
 40
0
 40
0
 40
0
 40
1
 40
1
 40
1
 40
1
 10
38.383252
 20
53.682304
 30
0.0
 10
38.361054
 20
53.282122
 30
0.0
 10
38.337850
 20
52.948417
 30
0.0
 10
38.331693
 20
52.940738
 30
0.0
  0
SPLINE
  5
22b
100
AcDbEntity
  8
0
 62
7
100
AcDbSpline
 70
8
 71
3
 72
8
 73
4
 74
0
 40
0
 40
0
 40
0
 40
0
 40
1
 40
1
 40
1
 40
1
 10
38.331693
 20
52.940738
 30
0.0
 10
38.313437
 20
52.917987
 30
0.0
 10
17.234144
 20
49.206437
 30
0.0
 10
17.123175
 20
49.206437
 30
0.0
  0
SPLINE
  5
22c
100
AcDbEntity
  8
0
 62
7
100
AcDbSpline
 70
8
 71
3
 72
8
 73
4
 74
0
 40
0
 40
0
 40
0
 40
0
 40
1
 40
1
 40
1
 40
1
 10
17.123175
 20
49.206437
 30
0.0
 10
17.057394
 20
49.206437
 30
0.0
 10
17.016871
 20
49.424239
 30
0.0
 10
17.008309
 20
49.823797
 30
0.0
  0
LWPOLYLINE
  5
22d
100
AcDbEntity
  8
0
 62
7
100
AcDbPolyline
 90
1
 70
1
 10
0.297326
 20
48.390638
 30
0.0
  0
SPLINE
  5
22e
100
AcDbEntity
  8
0
 62
7
100
AcDbSpline
 70
8
 71
3
 72
8
 73
4
 74
0
 40
0
 40
0
 40
0
 40
0
 40
1
 40
1
 40
1
 40
1
 10
0.704525
 20
50.147519
 30
0.0
 10
0.703995
 20
50.187754
 30
0.0
 10
0.810416
 20
50.529310
 30
0.0
 10
0.941096
 20
50.906534
 30
0.0
  0
SPLINE
  5
22f
100
AcDbEntity
  8
0
 62
7
100
AcDbSpline
 70
8
 71
3
 72
8
 73
4
 74
0
 40
0
 40
0
 40
0
 40
0
 40
1
 40
1
 40
1
 40
1
 10
0.941096
 20
50.906534
 30
0.0
 10
1.118119
 20
51.417531
 30
0.0
 10
1.225190
 20
51.603389
 30
0.0
 10
1.361051
 20
51.635502
 30
0.0
  0
SPLINE
  5
230
100
AcDbEntity
  8
0
 62
7
100
AcDbSpline
 70
8
 71
3
 72
8
 73
4
 74
0
 40
0
 40
0
 40
0
 40
0
 40
1
 40
1
 40
1
 40
1
 10
1.361051
 20
51.635502
 30
0.0
 10
1.461344
 20
51.659209
 30
0.0
 10
2.892780
 20
51.916097
 30
0.0
 10
4.542015
 20
52.206365
 30
0.0
  0
SPLINE
  5
231
100
AcDbEntity
  8
0
 62
7
100
AcDbSpline
 70
8
 71
3
 72
8
 73
4
 74
0
 40
0
 40
0
 40
0
 40
0
 40
1
 40
1
 40
1
 40
1
 10
4.542015
 20
52.206365
 30
0.0
 10
6.191251
 20
52.496633
 30
0.0
 10
7.637405
 20
52.756623
 30
0.0
 10
7.755692
 20
52.784120
 30
0.0
  0
SPLINE
  5
232
100
AcDbEntity
  8
0
 62
7
100
AcDbSpline
 70
8
 71
3
 72
8
 73
4
 74
0
 40
0
 40
0
 40
0
 40
0
 40
1
 40
1
 40
1
 40
1
 10
7.755692
 20
52.784120
 30
0.0
 10
7.948915
 20
52.829038
 30
0.0
 10
7.933823
 20
52.794047
 30
0.0
 10
7.607105
 20
52.439598
 30
0.0
  0
SPLINE
  5
233
100
AcDbEntity
  8
0
 62
7
100
AcDbSpline
 70
8
 71
3
 72
8
 73
4
 74
0
 40
0
 40
0
 40
0
 40
0
 40
1
 40
1
 40
1
 40
1
 10
7.607105
 20
52.439598
 30
0.0
 10
7.407096
 20
52.222614
 30
0.0
 10
7.098076
 20
51.842731
 30
0.0
 10
6.920397
 20
51.595414
 30
0.0
  0
SPLINE
  5
234
100
AcDbEntity
  8
0
 62
7
100
AcDbSpline
 70
8
 71
3
 72
8
 73
4
 74
0
 40
0
 40
0
 40
0
 40
0
 40
1
 40
1
 40
1
 40
1
 10
6.920397
 20
51.595414
 30
0.0
 10
6.742719
 20
51.348098
 30
0.0
 10
6.511926
 20
51.126038
 30
0.0
 10
6.407526
 20
51.101950
 30
0.0
  0
SPLINE
  5
235
100
AcDbEntity
  8
0
 62
7
100
AcDbSpline
 70
8
 71
3
 72
8
 73
4
 74
0
 40
0
 40
0
 40
0
 40
0
 40
1
 40
1
 40
1
 40
1
 10
6.407526
 20
51.101950
 30
0.0
 10
6.303127
 20
51.077873
 30
0.0
 10
5.086615
 20
50.860179
 30
0.0
 10
3.704167
 20
50.618213
 30
0.0
  0
SPLINE
  5
236
100
AcDbEntity
  8
0
 62
7
100
AcDbSpline
 70
8
 71
3
 72
8
 73
4
 74
0
 40
0
 40
0
 40
0
 40
0
 40
1
 40
1
 40
1
 40
1
 10
3.704167
 20
50.618213
 30
0.0
 10
2.321719
 20
50.376243
 30
0.0
 10
1.081484
 20
50.154890
 30
0.0
 10
0.948089
 20
50.126318
 30
0.0
  0
SPLINE
  5
237
100
AcDbEntity
  8
0
 62
7
100
AcDbSpline
 70
8
 71
3
 72
8
 73
4
 74
0
 40
0
 40
0
 40
0
 40
0
 40
1
 40
1
 40
1
 40
1
 10
0.948089
 20
50.126318
 30
0.0
 10
0.814697
 20
50.097743
 30
0.0
 10
0.705093
 20
50.107294
 30
0.0
 10
0.704525
 20
50.147511
 30
0.0
  0
LWPOLYLINE
  5
238
100
AcDbEntity
  8
0
 62
7
100
AcDbPolyline
 90
1
 70
1
 10
17.008309
 20
49.823797
 30
0.0
  0
SPLINE
  5
239
100
AcDbEntity
  8
0
 62
7
100
AcDbSpline
 70
8
 71
3
 72
8
 73
4
 74
0
 40
0
 40
0
 40
0
 40
0
 40
1
 40
1
 40
1
 40
1
 10
48.005291
 20
51.074966
 30
0.0
 10
48.134622
 20
51.235695
 30
0.0
 10
48.419176
 20
51.630072
 30
0.0
 10
48.637635
 20
51.951360
 30
0.0
  0
SPLINE
  5
23a
100
AcDbEntity
  8
0
 62
7
100
AcDbSpline
 70
8
 71
3
 72
8
 73
4
 74
0
 40
0
 40
0
 40
0
 40
0
 40
1
 40
1
 40
1
 40
1
 10
48.637635
 20
51.951360
 30
0.0
 10
48.925919
 20
52.375345
 30
0.0
 10
49.101507
 20
52.548588
 30
0.0
 10
49.278006
 20
52.583182
 30
0.0
  0
SPLINE
  5
23b
100
AcDbEntity
  8
0
 62
7
100
AcDbSpline
 70
8
 71
3
 72
8
 73
4
 74
0
 40
0
 40
0
 40
0
 40
0
 40
1
 40
1
 40
1
 40
1
 10
49.278006
 20
52.583182
 30
0.0
 10
50.966121
 20
52.914055
 30
0.0
 10
54.703321
 20
53.534597
 30
0.0
 10
54.746692
 20
53.491227
 30
0.0
  0
SPLINE
  5
23c
100
AcDbEntity
  8
0
 62
7
100
AcDbSpline
 70
8
 71
3
 72
8
 73
4
 74
0
 40
0
 40
0
 40
0
 40
0
 40
1
 40
1
 40
1
 40
1
 10
54.746692
 20
53.491227
 30
0.0
 10
54.806223
 20
53.431694
 30
0.0
 10
54.349692
 20
51.940464
 30
0.0
 10
54.271934
 20
51.940464
 30
0.0
  0
SPLINE
  5
23d
100
AcDbEntity
  8
0
 62
7
100
AcDbSpline
 70
8
 71
3
 72
8
 73
4
 74
0
 40
0
 40
0
 40
0
 40
0
 40
1
 40
1
 40
1
 40
1
 10
54.271934
 20
51.940464
 30
0.0
 10
54.200388
 20
51.940464
 30
0.0
 10
48.221217
 20
50.886270
 30
0.0
 10
47.984204
 20
50.831866
 30
0.0
  0
LWPOLYLINE
  5
23e
100
AcDbEntity
  8
0
 62
7
100
AcDbPolyline
 90
1
 70
1
 10
0.704525
 20
50.147511
 30
0.0
  0
SPLINE
  5
23f
100
AcDbEntity
  8
0
 62
7
100
AcDbSpline
 70
8
 71
3
 72
8
 73
4
 74
0
 40
0
 40
0
 40
0
 40
0
 40
1
 40
1
 40
1
 40
1
 10
16.845072
 20
51.168763
 30
0.0
 10
16.845032
 20
51.229395
 30
0.0
 10
16.726898
 20
51.528654
 30
0.0
 10
16.582549
 20
51.833780
 30
0.0
  0
SPLINE
  5
240
100
AcDbEntity
  8
0
 62
7
100
AcDbSpline
 70
8
 71
3
 72
8
 73
4
 74
0
 40
0
 40
0
 40
0
 40
0
 40
1
 40
1
 40
1
 40
1
 10
16.582549
 20
51.833780
 30
0.0
 10
16.398915
 20
52.221949
 30
0.0
 10
16.352587
 20
52.398779
 30
0.0
 10
16.428279
 20
52.422601
 30
0.0
  0
SPLINE
  5
241
100
AcDbEntity
  8
0
 62
7
100
AcDbSpline
 70
8
 71
3
 72
8
 73
4
 74
0
 40
0
 40
0
 40
0
 40
0
 40
1
 40
1
 40
1
 40
1
 10
16.428279
 20
52.422601
 30
0.0
 10
16.487778
 20
52.441326
 30
0.0
 10
18.041097
 20
52.719975
 30
0.0
 10
19.880096
 20
53.041818
 30
0.0
  0
LWPOLYLINE
  5
242
100
AcDbEntity
  8
0
 62
7
100
AcDbPolyline
 90
3
 70
0
 10
47.984204
 20
50.831866
 30
0.0
 10
47.770145
 20
50.782733
 30
0.0
 10
48.005291
 20
51.074966
 30
0.0
  0
SPLINE
  5
243
100
AcDbEntity
  8
0
 62
7
100
AcDbSpline
 70
8
 71
3
 72
8
 73
4
 74
0
 40
0
 40
0
 40
0
 40
0
 40
1
 40
1
 40
1
 40
1
 10
23.844767
 20
53.349303
 30
0.0
 10
24.519962
 20
53.047398
 30
0.0
 10
25.504510
 20
52.826442
 30
0.0
 10
26.223558
 20
52.815445
 30
0.0
  0
SPLINE
  5
244
100
AcDbEntity
  8
0
 62
7
100
AcDbSpline
 70
8
 71
3
 72
8
 73
4
 74
0
 40
0
 40
0
 40
0
 40
0
 40
1
 40
1
 40
1
 40
1
 10
26.223558
 20
52.815445
 30
0.0
 10
26.473952
 20
52.811616
 30
0.0
 10
26.639134
 20
52.792564
 30
0.0
 10
26.590625
 20
52.773108
 30
0.0
  0
SPLINE
  5
245
100
AcDbEntity
  8
0
 62
7
100
AcDbSpline
 70
8
 71
3
 72
8
 73
4
 74
0
 40
0
 40
0
 40
0
 40
0
 40
1
 40
1
 40
1
 40
1
 10
26.590625
 20
52.773108
 30
0.0
 10
26.506884
 20
52.739519
 30
0.0
 10
17.001845
 20
51.058519
 30
0.0
 10
16.895665
 20
51.058519
 30
0.0
  0
SPLINE
  5
246
100
AcDbEntity
  8
0
 62
7
100
AcDbSpline
 70
8
 71
3
 72
8
 73
4
 74
0
 40
0
 40
0
 40
0
 40
0
 40
1
 40
1
 40
1
 40
1
 10
16.895665
 20
51.058519
 30
0.0
 10
16.867876
 20
51.058519
 30
0.0
 10
16.845109
 20
51.108128
 30
0.0
 10
16.845072
 20
51.168763
 30
0.0
  0
LWPOLYLINE
  5
247
100
AcDbEntity
  8
0
 62
7
100
AcDbPolyline
 90
3
 70
0
 10
19.880096
 20
53.041818
 30
0.0
 10
23.223734
 20
53.626989
 30
0.0
 10
23.844767
 20
53.349303
 30
0.0
  0
SPLINE
  5
248
100
AcDbEntity
  8
0
 62
7
100
AcDbSpline
 70
8
 71
3
 72
8
 73
4
 74
0
 40
0
 40
0
 40
0
 40
0
 40
1
 40
1
 40
1
 40
1
 10
1.500899
 20
52.221152
 30
0.0
 10
1.501693
 20
52.285055
 30
0.0
 10
1.679014
 20
52.640245
 30
0.0
 10
1.894761
 20
53.010465
 30
0.0
  0
SPLINE
  5
249
100
AcDbEntity
  8
0
 62
7
100
AcDbSpline
 70
8
 71
3
 72
8
 73
4
 74
0
 40
0
 40
0
 40
0
 40
0
 40
1
 40
1
 40
1
 40
1
 10
1.894761
 20
53.010465
 30
0.0
 10
2.231240
 20
53.587856
 30
0.0
 10
2.328225
 20
53.691155
 30
0.0
 10
2.576674
 20
53.736772
 30
0.0
  0
SPLINE
  5
24a
100
AcDbEntity
  8
0
 62
7
100
AcDbSpline
 70
8
 71
3
 72
8
 73
4
 74
0
 40
0
 40
0
 40
0
 40
0
 40
1
 40
1
 40
1
 40
1
 10
2.576674
 20
53.736772
 30
0.0
 10
4.688507
 20
54.124515
 30
0.0
 10
20.445506
 20
56.878952
 30
0.0
 10
20.545465
 20
56.877846
 30
0.0
  0
SPLINE
  5
24b
100
AcDbEntity
  8
0
 62
7
100
AcDbSpline
 70
8
 71
3
 72
8
 73
4
 74
0
 40
0
 40
0
 40
0
 40
0
 40
1
 40
1
 40
1
 40
1
 10
20.545465
 20
56.877846
 30
0.0
 10
20.661295
 20
56.876576
 30
0.0
 10
20.938842
 20
56.335734
 30
0.0
 10
21.133092
 20
55.732803
 30
0.0
  0
SPLINE
  5
24c
100
AcDbEntity
  8
0
 62
7
100
AcDbSpline
 70
8
 71
3
 72
8
 73
4
 74
0
 40
0
 40
0
 40
0
 40
0
 40
1
 40
1
 40
1
 40
1
 10
21.133092
 20
55.732803
 30
0.0
 10
21.168400
 20
55.623212
 30
0.0
 10
20.548029
 20
55.489513
 30
0.0
 10
17.520778
 20
54.954290
 30
0.0
  0
SPLINE
  5
24d
100
AcDbEntity
  8
0
 62
7
100
AcDbSpline
 70
8
 71
3
 72
8
 73
4
 74
0
 40
0
 40
0
 40
0
 40
0
 40
1
 40
1
 40
1
 40
1
 10
17.520778
 20
54.954290
 30
0.0
 10
14.375758
 20
54.398246
 30
0.0
 10
13.818349
 20
54.321278
 30
0.0
 10
13.525453
 20
54.402606
 30
0.0
  0
SPLINE
  5
24e
100
AcDbEntity
  8
0
 62
7
100
AcDbSpline
 70
8
 71
3
 72
8
 73
4
 74
0
 40
0
 40
0
 40
0
 40
0
 40
1
 40
1
 40
1
 40
1
 10
13.525453
 20
54.402606
 30
0.0
 10
13.026060
 20
54.541271
 30
0.0
 10
11.498850
 20
54.519539
 30
0.0
 10
10.888496
 20
54.365081
 30
0.0
  0
SPLINE
  5
24f
100
AcDbEntity
  8
0
 62
7
100
AcDbSpline
 70
8
 71
3
 72
8
 73
4
 74
0
 40
0
 40
0
 40
0
 40
0
 40
1
 40
1
 40
1
 40
1
 10
10.888496
 20
54.365081
 30
0.0
 10
10.599389
 20
54.291919
 30
0.0
 10
9.965974
 20
54.039195
 30
0.0
 10
9.480905
 20
53.803472
 30
0.0
  0
SPLINE
  5
250
100
AcDbEntity
  8
0
 62
7
100
AcDbSpline
 70
8
 71
3
 72
8
 73
4
 74
0
 40
0
 40
0
 40
0
 40
0
 40
1
 40
1
 40
1
 40
1
 10
9.480905
 20
53.803472
 30
0.0
 10
8.599049
 20
53.374928
 30
0.0
 10
8.598610
 20
53.374823
 30
0.0
 10
5.203474
 20
52.783895
 30
0.0
  0
SPLINE
  5
251
100
AcDbEntity
  8
0
 62
7
100
AcDbSpline
 70
8
 71
3
 72
8
 73
4
 74
0
 40
0
 40
0
 40
0
 40
0
 40
1
 40
1
 40
1
 40
1
 10
5.203474
 20
52.783895
 30
0.0
 10
3.335957
 20
52.458852
 30
0.0
 10
1.738532
 20
52.173121
 30
0.0
 10
1.653646
 20
52.148937
 30
0.0
  0
SPLINE
  5
252
100
AcDbEntity
  8
0
 62
7
100
AcDbSpline
 70
8
 71
3
 72
8
 73
4
 74
0
 40
0
 40
0
 40
0
 40
0
 40
1
 40
1
 40
1
 40
1
 10
1.653646
 20
52.148937
 30
0.0
 10
1.562148
 20
52.122870
 30
0.0
 10
1.499955
 20
52.152271
 30
0.0
 10
1.500899
 20
52.221152
 30
0.0
  0
LWPOLYLINE
  5
253
100
AcDbEntity
  8
0
 62
7
100
AcDbPolyline
 90
1
 70
1
 10
16.845072
 20
51.168763
 30
0.0
  0
SPLINE
  5
254
100
AcDbEntity
  8
0
 62
7
100
AcDbSpline
 70
8
 71
3
 72
8
 73
4
 74
0
 40
0
 40
0
 40
0
 40
0
 40
1
 40
1
 40
1
 40
1
 10
15.853699
 20
53.005526
 30
0.0
 10
15.792654
 20
53.106242
 30
0.0
 10
15.510807
 20
53.364036
 30
0.0
 10
15.227369
 20
53.578403
 30
0.0
  0
SPLINE
  5
255
100
AcDbEntity
  8
0
 62
7
100
AcDbSpline
 70
8
 71
3
 72
8
 73
4
 74
0
 40
0
 40
0
 40
0
 40
0
 40
1
 40
1
 40
1
 40
1
 10
15.227369
 20
53.578403
 30
0.0
 10
14.913412
 20
53.815852
 30
0.0
 10
14.758321
 20
53.984093
 30
0.0
 10
14.830494
 20
54.008930
 30
0.0
  0
SPLINE
  5
256
100
AcDbEntity
  8
0
 62
7
100
AcDbSpline
 70
8
 71
3
 72
8
 73
4
 74
0
 40
0
 40
0
 40
0
 40
0
 40
1
 40
1
 40
1
 40
1
 10
14.830494
 20
54.008930
 30
0.0
 10
14.895651
 20
54.031354
 30
0.0
 10
16.414179
 20
54.306705
 30
0.0
 10
18.205003
 20
54.620821
 30
0.0
  0
LWPOLYLINE
  5
257
100
AcDbEntity
  8
0
 62
7
100
AcDbPolyline
 90
1
 70
1
 10
1.500899
 20
52.221152
 30
0.0
  0
SPLINE
  5
258
100
AcDbEntity
  8
0
 62
7
100
AcDbSpline
 70
8
 71
3
 72
8
 73
4
 74
0
 40
0
 40
0
 40
0
 40
0
 40
1
 40
1
 40
1
 40
1
 10
22.200310
 20
53.888127
 30
0.0
 10
21.324806
 20
53.712755
 30
0.0
 10
16.223687
 20
52.822408
 30
0.0
 10
16.094425
 20
52.822408
 30
0.0
  0
SPLINE
  5
259
100
AcDbEntity
  8
0
 62
7
100
AcDbSpline
 70
8
 71
3
 72
8
 73
4
 74
0
 40
0
 40
0
 40
0
 40
0
 40
1
 40
1
 40
1
 40
1
 10
16.094425
 20
52.822408
 30
0.0
 10
16.023069
 20
52.822408
 30
0.0
 10
15.914744
 20
52.904812
 30
0.0
 10
15.853699
 20
53.005526
 30
0.0
  0
LWPOLYLINE
  5
25a
100
AcDbEntity
  8
0
 62
7
100
AcDbPolyline
 90
5
 70
0
 10
18.205003
 20
54.620821
 30
0.0
 10
21.461048
 20
55.191943
 30
0.0
 10
22.060869
 20
54.586144
 30
0.0
 10
22.660690
 20
53.980345
 30
0.0
 10
22.200310
 20
53.888127
 30
0.0
  0
SPLINE
  5
25b
100
AcDbEntity
  8
0
 62
7
100
AcDbSpline
 70
8
 71
3
 72
8
 73
4
 74
0
 40
0
 40
0
 40
0
 40
0
 40
1
 40
1
 40
1
 40
1
 10
49.460113
 20
53.682304
 30
0.0
 10
49.577699
 20
54.058233
 30
0.0
 10
49.684530
 20
54.406624
 30
0.0
 10
49.697516
 20
54.456506
 30
0.0
  0
SPLINE
  5
25c
100
AcDbEntity
  8
0
 62
7
100
AcDbSpline
 70
8
 71
3
 72
8
 73
4
 74
0
 40
0
 40
0
 40
0
 40
0
 40
1
 40
1
 40
1
 40
1
 10
49.697516
 20
54.456506
 30
0.0
 10
49.724315
 20
54.559434
 30
0.0
 10
55.018837
 20
55.512137
 30
0.0
 10
55.101982
 20
55.428992
 30
0.0
  0
SPLINE
  5
25d
100
AcDbEntity
  8
0
 62
7
100
AcDbSpline
 70
8
 71
3
 72
8
 73
4
 74
0
 40
0
 40
0
 40
0
 40
0
 40
1
 40
1
 40
1
 40
1
 10
55.101982
 20
55.428992
 30
0.0
 10
55.162257
 20
55.368718
 30
0.0
 10
54.993082
 20
54.075676
 30
0.0
 10
54.914662
 20
53.997255
 30
0.0
  0
SPLINE
  5
25e
100
AcDbEntity
  8
0
 62
7
100
AcDbSpline
 70
8
 71
3
 72
8
 73
4
 74
0
 40
0
 40
0
 40
0
 40
0
 40
1
 40
1
 40
1
 40
1
 10
54.914662
 20
53.997255
 30
0.0
 10
54.862960
 20
53.945552
 30
0.0
 10
49.627684
 20
53.001325
 30
0.0
 10
49.383752
 20
52.999708
 30
0.0
  0
SPLINE
  5
25f
100
AcDbEntity
  8
0
 62
7
100
AcDbSpline
 70
8
 71
3
 72
8
 73
4
 74
0
 40
0
 40
0
 40
0
 40
0
 40
1
 40
1
 40
1
 40
1
 10
49.383752
 20
52.999708
 30
0.0
 10
49.265938
 20
52.998914
 30
0.0
 10
49.276833
 20
53.096341
 30
0.0
 10
49.460113
 20
53.682304
 30
0.0
  0
LWPOLYLINE
  5
260
100
AcDbEntity
  8
0
 62
7
100
AcDbPolyline
 90
1
 70
1
 10
15.853699
 20
53.005526
 30
0.0
  0
SPLINE
  5
261
100
AcDbEntity
  8
0
 62
7
100
AcDbSpline
 70
8
 71
3
 72
8
 73
4
 74
0
 40
0
 40
0
 40
0
 40
0
 40
1
 40
1
 40
1
 40
1
 10
29.557157
 20
53.469180
 30
0.0
 10
30.331968
 20
53.816440
 30
0.0
 10
31.314570
 20
54.432405
 30
0.0
 10
31.815154
 20
54.884653
 30
0.0
  0
LWPOLYLINE
  5
262
100
AcDbEntity
  8
0
 62
7
100
AcDbPolyline
 90
1
 70
1
 10
49.460113
 20
53.682304
 30
0.0
  0
SPLINE
  5
263
100
AcDbEntity
  8
0
 62
7
100
AcDbSpline
 70
8
 71
3
 72
8
 73
4
 74
0
 40
0
 40
0
 40
0
 40
0
 40
1
 40
1
 40
1
 40
1
 10
35.461003
 20
55.774808
 30
0.0
 10
37.276254
 20
56.092769
 30
0.0
 10
38.834047
 20
56.369252
 30
0.0
 10
38.922767
 20
56.389214
 30
0.0
  0
SPLINE
  5
264
100
AcDbEntity
  8
0
 62
7
100
AcDbSpline
 70
8
 71
3
 72
8
 73
4
 74
0
 40
0
 40
0
 40
0
 40
0
 40
1
 40
1
 40
1
 40
1
 10
38.922767
 20
56.389214
 30
0.0
 10
39.045832
 20
56.416906
 30
0.0
 10
39.068902
 20
56.390458
 30
0.0
 10
39.020078
 20
56.277605
 30
0.0
  0
SPLINE
  5
265
100
AcDbEntity
  8
0
 62
7
100
AcDbSpline
 70
8
 71
3
 72
8
 73
4
 74
0
 40
0
 40
0
 40
0
 40
0
 40
1
 40
1
 40
1
 40
1
 10
39.020078
 20
56.277605
 30
0.0
 10
38.984880
 20
56.196258
 30
0.0
 10
38.855851
 20
55.851887
 30
0.0
 10
38.733341
 20
55.512339
 30
0.0
  0
SPLINE
  5
266
100
AcDbEntity
  8
0
 62
7
100
AcDbSpline
 70
8
 71
3
 72
8
 73
4
 74
0
 40
0
 40
0
 40
0
 40
0
 40
1
 40
1
 40
1
 40
1
 10
38.733341
 20
55.512339
 30
0.0
 10
38.610834
 20
55.172790
 30
0.0
 10
38.505569
 20
54.886419
 30
0.0
 10
38.499420
 20
54.875960
 30
0.0
  0
SPLINE
  5
267
100
AcDbEntity
  8
0
 62
7
100
AcDbSpline
 70
8
 71
3
 72
8
 73
4
 74
0
 40
0
 40
0
 40
0
 40
0
 40
1
 40
1
 40
1
 40
1
 10
38.499420
 20
54.875960
 30
0.0
 10
38.493282
 20
54.865501
 30
0.0
 10
36.446275
 20
54.497819
 30
0.0
 10
33.950542
 20
54.058890
 30
0.0
  0
SPLINE
  5
268
100
AcDbEntity
  8
0
 62
7
100
AcDbSpline
 70
8
 71
3
 72
8
 73
4
 74
0
 40
0
 40
0
 40
0
 40
0
 40
1
 40
1
 40
1
 40
1
 10
33.950542
 20
54.058890
 30
0.0
 10
31.454810
 20
53.619961
 30
0.0
 10
29.293786
 20
53.239800
 30
0.0
 10
29.148265
 20
53.214087
 30
0.0
  0
SPLINE
  5
269
100
AcDbEntity
  8
0
 62
7
100
AcDbSpline
 70
8
 71
3
 72
8
 73
4
 74
0
 40
0
 40
0
 40
0
 40
0
 40
1
 40
1
 40
1
 40
1
 10
29.148265
 20
53.214087
 30
0.0
 10
29.002744
 20
53.188374
 30
0.0
 10
29.186746
 20
53.303166
 30
0.0
 10
29.557157
 20
53.469180
 30
0.0
  0
LWPOLYLINE
  5
26a
100
AcDbEntity
  8
0
 62
7
100
AcDbPolyline
 90
3
 70
0
 10
31.815154
 20
54.884653
 30
0.0
 10
32.160549
 20
55.196697
 30
0.0
 10
35.461003
 20
55.774808
 30
0.0
  0
SPLINE
  5
26b
100
AcDbEntity
  8
0
 62
7
100
AcDbSpline
 70
8
 71
3
 72
8
 73
4
 74
0
 40
0
 40
0
 40
0
 40
0
 40
1
 40
1
 40
1
 40
1
 10
2.734030
 20
54.285480
 30
0.0
 10
2.734030
 20
54.370806
 30
0.0
 10
3.568814
 20
55.395570
 30
0.0
 10
3.850381
 20
55.655888
 30
0.0
  0
SPLINE
  5
26c
100
AcDbEntity
  8
0
 62
7
100
AcDbSpline
 70
8
 71
3
 72
8
 73
4
 74
0
 40
0
 40
0
 40
0
 40
0
 40
1
 40
1
 40
1
 40
1
 10
3.850381
 20
55.655888
 30
0.0
 10
4.087511
 20
55.875121
 30
0.0
 10
4.536951
 20
55.964392
 30
0.0
 10
12.175832
 20
57.309534
 30
0.0
  0
SPLINE
  5
26d
100
AcDbEntity
  8
0
 62
7
100
AcDbSpline
 70
8
 71
3
 72
8
 73
4
 74
0
 40
0
 40
0
 40
0
 40
0
 40
1
 40
1
 40
1
 40
1
 10
12.175832
 20
57.309534
 30
0.0
 10
16.616964
 20
58.091580
 30
0.0
 10
20.278136
 20
58.731436
 30
0.0
 10
20.311769
 20
58.731436
 30
0.0
  0
SPLINE
  5
26e
100
AcDbEntity
  8
0
 62
7
100
AcDbSpline
 70
8
 71
3
 72
8
 73
4
 74
0
 40
0
 40
0
 40
0
 40
0
 40
1
 40
1
 40
1
 40
1
 10
20.311769
 20
58.731436
 30
0.0
 10
20.345401
 20
58.731436
 30
0.0
 10
20.373864
 20
58.582608
 30
0.0
 10
20.375023
 20
58.400707
 30
0.0
  0
SPLINE
  5
26f
100
AcDbEntity
  8
0
 62
7
100
AcDbSpline
 70
8
 71
3
 72
8
 73
4
 74
0
 40
0
 40
0
 40
0
 40
0
 40
1
 40
1
 40
1
 40
1
 10
20.375023
 20
58.400707
 30
0.0
 10
20.376082
 20
58.218806
 30
0.0
 10
20.411403
 20
57.922407
 30
0.0
 10
20.453298
 20
57.742043
 30
0.0
  0
SPLINE
  5
270
100
AcDbEntity
  8
0
 62
7
100
AcDbSpline
 70
8
 71
3
 72
8
 73
4
 74
0
 40
0
 40
0
 40
0
 40
0
 40
1
 40
1
 40
1
 40
1
 10
20.453298
 20
57.742043
 30
0.0
 10
20.516014
 20
57.472036
 30
0.0
 10
20.503960
 20
57.406508
 30
0.0
 10
20.385048
 20
57.371074
 30
0.0
  0
SPLINE
  5
271
100
AcDbEntity
  8
0
 62
7
100
AcDbSpline
 70
8
 71
3
 72
8
 73
4
 74
0
 40
0
 40
0
 40
0
 40
0
 40
1
 40
1
 40
1
 40
1
 10
20.385048
 20
57.371074
 30
0.0
 10
20.305615
 20
57.347405
 30
0.0
 10
16.390938
 20
56.651547
 30
0.0
 10
11.685765
 20
55.824724
 30
0.0
  0
SPLINE
  5
272
100
AcDbEntity
  8
0
 62
7
100
AcDbSpline
 70
8
 71
3
 72
8
 73
4
 74
0
 40
0
 40
0
 40
0
 40
0
 40
1
 40
1
 40
1
 40
1
 10
11.685765
 20
55.824724
 30
0.0
 10
6.980593
 20
54.997900
 30
0.0
 10
3.041608
 20
54.300878
 30
0.0
 10
2.932468
 20
54.275784
 30
0.0
  0
SPLINE
  5
273
100
AcDbEntity
  8
0
 62
7
100
AcDbSpline
 70
8
 71
3
 72
8
 73
4
 74
0
 40
0
 40
0
 40
0
 40
0
 40
1
 40
1
 40
1
 40
1
 10
2.932468
 20
54.275784
 30
0.0
 10
2.823327
 20
54.250691
 30
0.0
 10
2.734030
 20
54.255054
 30
0.0
 10
2.734030
 20
54.285481
 30
0.0
  0
LWPOLYLINE
  5
274
100
AcDbEntity
  8
0
 62
7
100
AcDbPolyline
 90
1
 70
1
 10
29.557157
 20
53.469180
 30
0.0
  0
LWPOLYLINE
  5
275
100
AcDbEntity
  8
0
 62
7
100
AcDbPolyline
 90
1
 70
1
 10
2.734030
 20
54.285481
 30
0.0
  0
SPLINE
  5
276
100
AcDbEntity
  8
0
 62
7
100
AcDbSpline
 70
8
 71
3
 72
8
 73
4
 74
0
 40
0
 40
0
 40
0
 40
0
 40
1
 40
1
 40
1
 40
1
 10
50.557467
 20
56.562434
 30
0.0
 10
51.006155
 20
56.642120
 30
0.0
 10
52.217259
 20
56.857838
 30
0.0
 10
53.248809
 20
57.041807
 30
0.0
  0
SPLINE
  5
277
100
AcDbEntity
  8
0
 62
7
100
AcDbSpline
 70
8
 71
3
 72
8
 73
4
 74
0
 40
0
 40
0
 40
0
 40
0
 40
1
 40
1
 40
1
 40
1
 10
53.248809
 20
57.041807
 30
0.0
 10
54.280358
 20
57.225776
 30
0.0
 10
55.143561
 20
57.357088
 30
0.0
 10
55.167038
 20
57.333611
 30
0.0
  0
SPLINE
  5
278
100
AcDbEntity
  8
0
 62
7
100
AcDbSpline
 70
8
 71
3
 72
8
 73
4
 74
0
 40
0
 40
0
 40
0
 40
0
 40
1
 40
1
 40
1
 40
1
 10
55.167038
 20
57.333611
 30
0.0
 10
55.190506
 20
57.310135
 30
0.0
 10
55.209723
 20
56.982855
 30
0.0
 10
55.209723
 20
56.606323
 30
0.0
  0
LWPOLYLINE
  5
279
100
AcDbEntity
  8
0
 62
7
100
AcDbPolyline
 90
3
 70
0
 10
49.741667
 20
55.668752
 30
0.0
 10
49.741667
 20
56.417551
 30
0.0
 10
50.557467
 20
56.562434
 30
0.0
  0
SPLINE
  5
27a
100
AcDbEntity
  8
0
 62
7
100
AcDbSpline
 70
8
 71
3
 72
8
 73
4
 74
0
 40
0
 40
0
 40
0
 40
0
 40
1
 40
1
 40
1
 40
1
 10
54.746702
 20
55.829477
 30
0.0
 10
54.492041
 20
55.778744
 30
0.0
 10
53.351025
 20
55.574828
 30
0.0
 10
52.211113
 20
55.376330
 30
0.0
  0
SPLINE
  5
27b
100
AcDbEntity
  8
0
 62
7
100
AcDbSpline
 70
8
 71
3
 72
8
 73
4
 74
0
 40
0
 40
0
 40
0
 40
0
 40
1
 40
1
 40
1
 40
1
 10
52.211113
 20
55.376330
 30
0.0
 10
51.071198
 20
55.177832
 30
0.0
 10
50.049245
 20
54.993943
 30
0.0
 10
49.940104
 20
54.967689
 30
0.0
  0
SPLINE
  5
27c
100
AcDbEntity
  8
0
 62
7
100
AcDbSpline
 70
8
 71
3
 72
8
 73
4
 74
0
 40
0
 40
0
 40
0
 40
0
 40
1
 40
1
 40
1
 40
1
 10
49.940104
 20
54.967689
 30
0.0
 10
49.746151
 20
54.921031
 30
0.0
 10
49.741667
 20
54.936872
 30
0.0
 10
49.741667
 20
55.668752
 30
0.0
  0
LWPOLYLINE
  5
27d
100
AcDbEntity
  8
0
 62
7
100
AcDbPolyline
 90
3
 70
0
 10
55.209723
 20
56.606323
 30
0.0
 10
55.209723
 20
55.921719
 30
0.0
 10
54.746702
 20
55.829477
 30
0.0
  0
SPLINE
  5
27e
100
AcDbEntity
  8
0
 62
7
100
AcDbSpline
 70
8
 71
3
 72
8
 73
4
 74
0
 40
0
 40
0
 40
0
 40
0
 40
1
 40
1
 40
1
 40
1
 10
32.808333
 20
55.780508
 30
0.0
 10
32.808333
 20
55.807536
 30
0.0
 10
33.026744
 20
56.107310
 30
0.0
 10
33.822571
 20
57.172570
 30
0.0
  0
SPLINE
  5
27f
100
AcDbEntity
  8
0
 62
7
100
AcDbSpline
 70
8
 71
3
 72
8
 73
4
 74
0
 40
0
 40
0
 40
0
 40
0
 40
1
 40
1
 40
1
 40
1
 10
33.822571
 20
57.172570
 30
0.0
 10
33.991910
 20
57.399239
 30
0.0
 10
34.129316
 20
57.431587
 30
0.0
 10
37.260218
 20
57.981862
 30
0.0
  0
SPLINE
  5
280
100
AcDbEntity
  8
0
 62
7
100
AcDbSpline
 70
8
 71
3
 72
8
 73
4
 74
0
 40
0
 40
0
 40
0
 40
0
 40
1
 40
1
 40
1
 40
1
 10
37.260218
 20
57.981862
 30
0.0
 10
39.053908
 20
58.297113
 30
0.0
 10
40.560167
 20
58.555047
 30
0.0
 10
40.607456
 20
58.555047
 30
0.0
  0
SPLINE
  5
281
100
AcDbEntity
  8
0
 62
7
100
AcDbSpline
 70
8
 71
3
 72
8
 73
4
 74
0
 40
0
 40
0
 40
0
 40
0
 40
1
 40
1
 40
1
 40
1
 10
40.607456
 20
58.555047
 30
0.0
 10
40.654745
 20
58.555047
 30
0.0
 10
40.552071
 20
58.406219
 30
0.0
 10
40.379290
 20
58.224318
 30
0.0
  0
SPLINE
  5
282
100
AcDbEntity
  8
0
 62
7
100
AcDbSpline
 70
8
 71
3
 72
8
 73
4
 74
0
 40
0
 40
0
 40
0
 40
0
 40
1
 40
1
 40
1
 40
1
 10
40.379290
 20
58.224318
 30
0.0
 10
40.206507
 20
58.042417
 30
0.0
 10
39.896029
 20
57.665386
 30
0.0
 10
39.689336
 20
57.386471
 30
0.0
  0
SPLINE
  5
283
100
AcDbEntity
  8
0
 62
7
100
AcDbSpline
 70
8
 71
3
 72
8
 73
4
 74
0
 40
0
 40
0
 40
0
 40
0
 40
1
 40
1
 40
1
 40
1
 10
39.689336
 20
57.386471
 30
0.0
 10
39.482644
 20
57.107556
 30
0.0
 10
39.289379
 20
56.879352
 30
0.0
 10
39.259862
 20
56.879352
 30
0.0
  0
SPLINE
  5
284
100
AcDbEntity
  8
0
 62
7
100
AcDbSpline
 70
8
 71
3
 72
8
 73
4
 74
0
 40
0
 40
0
 40
0
 40
0
 40
1
 40
1
 40
1
 40
1
 10
39.259862
 20
56.879352
 30
0.0
 10
39.196965
 20
56.879352
 30
0.0
 10
33.190381
 20
55.834179
 30
0.0
 10
32.962675
 20
55.783612
 30
0.0
  0
SPLINE
  5
285
100
AcDbEntity
  8
0
 62
7
100
AcDbSpline
 70
8
 71
3
 72
8
 73
4
 74
0
 40
0
 40
0
 40
0
 40
0
 40
1
 40
1
 40
1
 40
1
 10
32.962675
 20
55.783612
 30
0.0
 10
32.877786
 20
55.764761
 30
0.0
 10
32.808333
 20
55.763364
 30
0.0
 10
32.808333
 20
55.780509
 30
0.0
  0
LWPOLYLINE
  5
286
100
AcDbEntity
  8
0
 62
7
100
AcDbPolyline
 90
1
 70
1
 10
49.741667
 20
55.668752
 30
0.0
  0
SPLINE
  5
287
100
AcDbEntity
  8
0
 62
7
100
AcDbSpline
 70
8
 71
3
 72
8
 73
4
 74
0
 40
0
 40
0
 40
0
 40
0
 40
1
 40
1
 40
1
 40
1
 10
4.851035
 20
56.659275
 30
0.0
 10
4.999173
 20
56.837770
 30
0.0
 10
6.503313
 20
57.965893
 30
0.0
 10
6.835072
 20
58.147322
 30
0.0
  0
SPLINE
  5
288
100
AcDbEntity
  8
0
 62
7
100
AcDbSpline
 70
8
 71
3
 72
8
 73
4
 74
0
 40
0
 40
0
 40
0
 40
0
 40
1
 40
1
 40
1
 40
1
 10
6.835072
 20
58.147322
 30
0.0
 10
6.991869
 20
58.233073
 30
0.0
 10
9.758321
 20
58.758400
 30
0.0
 10
13.626042
 20
59.436878
 30
0.0
  0
SPLINE
  5
289
100
AcDbEntity
  8
0
 62
7
100
AcDbSpline
 70
8
 71
3
 72
8
 73
4
 74
0
 40
0
 40
0
 40
0
 40
0
 40
1
 40
1
 40
1
 40
1
 10
13.626042
 20
59.436878
 30
0.0
 10
17.215557
 20
60.066551
 30
0.0
 10
20.224999
 20
60.599081
 30
0.0
 10
20.313693
 20
60.620279
 30
0.0
  0
SPLINE
  5
28a
100
AcDbEntity
  8
0
 62
7
100
AcDbSpline
 70
8
 71
3
 72
8
 73
4
 74
0
 40
0
 40
0
 40
0
 40
0
 40
1
 40
1
 40
1
 40
1
 10
20.313693
 20
60.620279
 30
0.0
 10
20.463188
 20
60.656008
 30
0.0
 10
20.470448
 20
60.609420
 30
0.0
 10
20.413211
 20
59.981760
 30
0.0
  0
SPLINE
  5
28b
100
AcDbEntity
  8
0
 62
7
100
AcDbSpline
 70
8
 71
3
 72
8
 73
4
 74
0
 40
0
 40
0
 40
0
 40
0
 40
1
 40
1
 40
1
 40
1
 10
20.413211
 20
59.981760
 30
0.0
 10
20.379251
 20
59.609377
 30
0.0
 10
20.338169
 20
59.289882
 30
0.0
 10
20.321913
 20
59.271772
 30
0.0
  0
SPLINE
  5
28c
100
AcDbEntity
  8
0
 62
7
100
AcDbSpline
 70
8
 71
3
 72
8
 73
4
 74
0
 40
0
 40
0
 40
0
 40
0
 40
1
 40
1
 40
1
 40
1
 10
20.321913
 20
59.271772
 30
0.0
 10
20.289640
 20
59.235809
 30
0.0
 10
5.059043
 20
56.534201
 30
0.0
 10
4.861944
 20
56.529476
 30
0.0
  0
SPLINE
  5
28d
100
AcDbEntity
  8
0
 62
7
100
AcDbSpline
 70
8
 71
3
 72
8
 73
4
 74
0
 40
0
 40
0
 40
0
 40
0
 40
1
 40
1
 40
1
 40
1
 10
4.861944
 20
56.529476
 30
0.0
 10
4.764167
 20
56.527122
 30
0.0
 10
4.762069
 20
56.552080
 30
0.0
 10
4.851043
 20
56.659275
 30
0.0
  0
LWPOLYLINE
  5
28e
100
AcDbEntity
  8
0
 62
7
100
AcDbPolyline
 90
1
 70
1
 10
32.808333
 20
55.780509
 30
0.0
  0
SPLINE
  5
28f
100
AcDbEntity
  8
0
 62
7
100
AcDbSpline
 70
8
 71
3
 72
8
 73
4
 74
0
 40
0
 40
0
 40
0
 40
0
 40
1
 40
1
 40
1
 40
1
 10
49.599361
 20
56.946985
 30
0.0
 10
49.573273
 20
57.031055
 30
0.0
 10
49.455795
 20
57.334738
 30
0.0
 10
49.338299
 20
57.621837
 30
0.0
  0
SPLINE
  5
290
100
AcDbEntity
  8
0
 62
7
100
AcDbSpline
 70
8
 71
3
 72
8
 73
4
 74
0
 40
0
 40
0
 40
0
 40
0
 40
1
 40
1
 40
1
 40
1
 10
49.338299
 20
57.621837
 30
0.0
 10
49.220803
 20
57.908936
 30
0.0
 10
49.137493
 20
58.156660
 30
0.0
 10
49.153170
 20
58.172335
 30
0.0
  0
SPLINE
  5
291
100
AcDbEntity
  8
0
 62
7
100
AcDbSpline
 70
8
 71
3
 72
8
 73
4
 74
0
 40
0
 40
0
 40
0
 40
0
 40
1
 40
1
 40
1
 40
1
 10
49.153170
 20
58.172335
 30
0.0
 10
49.168833
 20
58.188009
 30
0.0
 10
50.443498
 20
58.424043
 30
0.0
 10
51.985730
 20
58.696852
 30
0.0
  0
SPLINE
  5
292
100
AcDbEntity
  8
0
 62
7
100
AcDbSpline
 70
8
 71
3
 72
8
 73
4
 74
0
 40
0
 40
0
 40
0
 40
0
 40
1
 40
1
 40
1
 40
1
 10
51.985730
 20
58.696852
 30
0.0
 10
54.236546
 20
59.095004
 30
0.0
 10
54.803934
 20
59.169987
 30
0.0
 10
54.861468
 20
59.076894
 30
0.0
  0
SPLINE
  5
293
100
AcDbEntity
  8
0
 62
7
100
AcDbSpline
 70
8
 71
3
 72
8
 73
4
 74
0
 40
0
 40
0
 40
0
 40
0
 40
1
 40
1
 40
1
 40
1
 10
54.861468
 20
59.076894
 30
0.0
 10
54.937552
 20
58.953791
 30
0.0
 10
55.148649
 20
57.845720
 30
0.0
 10
55.103858
 20
57.804574
 30
0.0
  0
SPLINE
  5
294
100
AcDbEntity
  8
0
 62
7
100
AcDbSpline
 70
8
 71
3
 72
8
 73
4
 74
0
 40
0
 40
0
 40
0
 40
0
 40
1
 40
1
 40
1
 40
1
 10
55.103858
 20
57.804574
 30
0.0
 10
55.089332
 20
57.791223
 30
0.0
 10
53.906650
 20
57.575279
 30
0.0
 10
52.475696
 20
57.324700
 30
0.0
  0
SPLINE
  5
295
100
AcDbEntity
  8
0
 62
7
100
AcDbSpline
 70
8
 71
3
 72
8
 73
4
 74
0
 40
0
 40
0
 40
0
 40
0
 40
1
 40
1
 40
1
 40
1
 10
52.475696
 20
57.324700
 30
0.0
 10
51.044740
 20
57.074122
 30
0.0
 10
49.822849
 20
56.852234
 30
0.0
 10
49.760378
 20
56.831617
 30
0.0
  0
SPLINE
  5
296
100
AcDbEntity
  8
0
 62
7
100
AcDbSpline
 70
8
 71
3
 72
8
 73
4
 74
0
 40
0
 40
0
 40
0
 40
0
 40
1
 40
1
 40
1
 40
1
 10
49.760378
 20
56.831617
 30
0.0
 10
49.697907
 20
56.811001
 30
0.0
 10
49.625451
 20
56.862916
 30
0.0
 10
49.599361
 20
56.946985
 30
0.0
  0
LWPOLYLINE
  5
297
100
AcDbEntity
  8
0
 62
7
100
AcDbPolyline
 90
1
 70
1
 10
4.851043
 20
56.659275
 30
0.0
  0
SPLINE
  5
298
100
AcDbEntity
  8
0
 62
7
100
AcDbSpline
 70
8
 71
3
 72
8
 73
4
 74
0
 40
0
 40
0
 40
0
 40
0
 40
1
 40
1
 40
1
 40
1
 10
34.529882
 20
58.647599
 30
0.0
 10
34.687314
 20
59.038051
 30
0.0
 10
34.833436
 20
59.374825
 30
0.0
 10
34.854597
 20
59.395985
 30
0.0
  0
SPLINE
  5
299
100
AcDbEntity
  8
0
 62
7
100
AcDbSpline
 70
8
 71
3
 72
8
 73
4
 74
0
 40
0
 40
0
 40
0
 40
0
 40
1
 40
1
 40
1
 40
1
 10
34.854597
 20
59.395985
 30
0.0
 10
34.895483
 20
59.436872
 30
0.0
 10
52.836487
 20
62.611991
 30
0.0
 10
53.026628
 20
62.611991
 30
0.0
  0
SPLINE
  5
29a
100
AcDbEntity
  8
0
 62
7
100
AcDbSpline
 70
8
 71
3
 72
8
 73
4
 74
0
 40
0
 40
0
 40
0
 40
0
 40
1
 40
1
 40
1
 40
1
 10
53.026628
 20
62.611991
 30
0.0
 10
53.161615
 20
62.611991
 30
0.0
 10
53.939800
 20
61.489058
 30
0.0
 10
53.860065
 20
61.409324
 30
0.0
  0
SPLINE
  5
29b
100
AcDbEntity
  8
0
 62
7
100
AcDbSpline
 70
8
 71
3
 72
8
 73
4
 74
0
 40
0
 40
0
 40
0
 40
0
 40
1
 40
1
 40
1
 40
1
 10
53.860065
 20
61.409324
 30
0.0
 10
53.829241
 20
61.378499
 30
0.0
 10
52.189412
 20
61.067730
 30
0.0
 10
50.216001
 20
60.718728
 30
0.0
  0
SPLINE
  5
29c
100
AcDbEntity
  8
0
 62
7
100
AcDbSpline
 70
8
 71
3
 72
8
 73
4
 74
0
 40
0
 40
0
 40
0
 40
0
 40
1
 40
1
 40
1
 40
1
 10
50.216001
 20
60.718728
 30
0.0
 10
46.660324
 20
60.089896
 30
0.0
 10
46.623134
 20
60.085318
 30
0.0
 10
46.090208
 20
60.210864
 30
0.0
  0
SPLINE
  5
29d
100
AcDbEntity
  8
0
 62
7
100
AcDbSpline
 70
8
 71
3
 72
8
 73
4
 74
0
 40
0
 40
0
 40
0
 40
0
 40
1
 40
1
 40
1
 40
1
 10
46.090208
 20
60.210864
 30
0.0
 10
44.946829
 20
60.480220
 30
0.0
 10
43.359954
 20
60.205210
 30
0.0
 10
42.097071
 20
59.518839
 30
0.0
  0
SPLINE
  5
29e
100
AcDbEntity
  8
0
 62
7
100
AcDbSpline
 70
8
 71
3
 72
8
 73
4
 74
0
 40
0
 40
0
 40
0
 40
0
 40
1
 40
1
 40
1
 40
1
 10
42.097071
 20
59.518839
 30
0.0
 10
41.485598
 20
59.186507
 30
0.0
 10
41.343760
 20
59.153576
 30
0.0
 10
37.951931
 20
58.556443
 30
0.0
  0
SPLINE
  5
29f
100
AcDbEntity
  8
0
 62
7
100
AcDbSpline
 70
8
 71
3
 72
8
 73
4
 74
0
 40
0
 40
0
 40
0
 40
0
 40
1
 40
1
 40
1
 40
1
 10
37.951931
 20
58.556443
 30
0.0
 10
36.020333
 20
58.216384
 30
0.0
 10
34.395767
 20
57.938048
 30
0.0
 10
34.341787
 20
57.937920
 30
0.0
  0
SPLINE
  5
2a0
100
AcDbEntity
  8
0
 62
7
100
AcDbSpline
 70
8
 71
3
 72
8
 73
4
 74
0
 40
0
 40
0
 40
0
 40
0
 40
1
 40
1
 40
1
 40
1
 10
34.341787
 20
57.937920
 30
0.0
 10
34.285354
 20
57.937743
 30
0.0
 10
34.365282
 20
58.239403
 30
0.0
 10
34.529882
 20
58.647599
 30
0.0
  0
LWPOLYLINE
  5
2a1
100
AcDbEntity
  8
0
 62
7
100
AcDbPolyline
 90
1
 70
1
 10
49.599361
 20
56.946985
 30
0.0
  0
SPLINE
  5
2a2
100
AcDbEntity
  8
0
 62
7
100
AcDbSpline
 70
8
 71
3
 72
8
 73
4
 74
0
 40
0
 40
0
 40
0
 40
0
 40
1
 40
1
 40
1
 40
1
 10
48.410244
 20
58.962187
 30
0.0
 10
48.196640
 20
59.180709
 30
0.0
 10
47.890803
 20
59.440994
 30
0.0
 10
47.730606
 20
59.540598
 30
0.0
  0
SPLINE
  5
2a3
100
AcDbEntity
  8
0
 62
7
100
AcDbSpline
 70
8
 71
3
 72
8
 73
4
 74
0
 40
0
 40
0
 40
0
 40
0
 40
1
 40
1
 40
1
 40
1
 10
47.730606
 20
59.540598
 30
0.0
 10
47.570406
 20
59.640201
 30
0.0
 10
47.451997
 20
59.734358
 30
0.0
 10
47.467475
 20
59.749836
 30
0.0
  0
SPLINE
  5
2a4
100
AcDbEntity
  8
0
 62
7
100
AcDbSpline
 70
8
 71
3
 72
8
 73
4
 74
0
 40
0
 40
0
 40
0
 40
0
 40
1
 40
1
 40
1
 40
1
 10
47.467475
 20
59.749836
 30
0.0
 10
47.499045
 20
59.781407
 30
0.0
 10
53.985147
 20
60.936297
 30
0.0
 10
54.130887
 20
60.936297
 30
0.0
  0
SPLINE
  5
2a5
100
AcDbEntity
  8
0
 62
7
100
AcDbSpline
 70
8
 71
3
 72
8
 73
4
 74
0
 40
0
 40
0
 40
0
 40
0
 40
1
 40
1
 40
1
 40
1
 10
54.130887
 20
60.936297
 30
0.0
 10
54.239964
 20
60.936297
 30
0.0
 10
54.733799
 20
59.725420
 30
0.0
 10
54.656321
 20
59.647940
 30
0.0
  0
SPLINE
  5
2a6
100
AcDbEntity
  8
0
 62
7
100
AcDbSpline
 70
8
 71
3
 72
8
 73
4
 74
0
 40
0
 40
0
 40
0
 40
0
 40
1
 40
1
 40
1
 40
1
 10
54.656321
 20
59.647940
 30
0.0
 10
54.627425
 20
59.619046
 30
0.0
 10
53.400669
 20
59.383048
 30
0.0
 10
51.930192
 20
59.123502
 30
0.0
  0
SPLINE
  5
2a7
100
AcDbEntity
  8
0
 62
7
100
AcDbSpline
 70
8
 71
3
 72
8
 73
4
 74
0
 40
0
 40
0
 40
0
 40
0
 40
1
 40
1
 40
1
 40
1
 10
51.930192
 20
59.123502
 30
0.0
 10
50.459714
 20
58.863955
 30
0.0
 10
49.153551
 20
58.632086
 30
0.0
 10
49.027604
 20
58.608236
 30
0.0
  0
SPLINE
  5
2a8
100
AcDbEntity
  8
0
 62
7
100
AcDbSpline
 70
8
 71
3
 72
8
 73
4
 74
0
 40
0
 40
0
 40
0
 40
0
 40
1
 40
1
 40
1
 40
1
 10
49.027604
 20
58.608236
 30
0.0
 10
48.843568
 20
58.573386
 30
0.0
 10
48.722365
 20
58.642876
 30
0.0
 10
48.410244
 20
58.962187
 30
0.0
  0
LWPOLYLINE
  5
2a9
100
AcDbEntity
  8
0
 62
7
100
AcDbPolyline
 90
1
 70
1
 10
34.529882
 20
58.647599
 30
0.0
  0
SPLINE
  5
2aa
100
AcDbEntity
  8
0
 62
7
100
AcDbSpline
 70
8
 71
3
 72
8
 73
4
 74
0
 40
0
 40
0
 40
0
 40
0
 40
1
 40
1
 40
1
 40
1
 10
9.260417
 20
59.321888
 30
0.0
 10
9.732976
 20
59.528699
 30
0.0
 10
11.119041
 20
59.862226
 30
0.0
 10
11.926917
 20
59.963525
 30
0.0
  0
SPLINE
  5
2ab
100
AcDbEntity
  8
0
 62
7
100
AcDbSpline
 70
8
 71
3
 72
8
 73
4
 74
0
 40
0
 40
0
 40
0
 40
0
 40
1
 40
1
 40
1
 40
1
 10
11.926917
 20
59.963525
 30
0.0
 10
12.648449
 20
60.053998
 30
0.0
 10
13.821643
 20
60.088262
 30
0.0
 10
13.750156
 20
60.016775
 30
0.0
  0
SPLINE
  5
2ac
100
AcDbEntity
  8
0
 62
7
100
AcDbSpline
 70
8
 71
3
 72
8
 73
4
 74
0
 40
0
 40
0
 40
0
 40
0
 40
1
 40
1
 40
1
 40
1
 10
13.750156
 20
60.016775
 30
0.0
 10
13.704081
 20
59.970702
 30
0.0
 10
9.218650
 20
59.169548
 30
0.0
 10
9.063067
 20
59.179602
 30
0.0
  0
SPLINE
  5
2ad
100
AcDbEntity
  8
0
 62
7
100
AcDbSpline
 70
8
 71
3
 72
8
 73
4
 74
0
 40
0
 40
0
 40
0
 40
0
 40
1
 40
1
 40
1
 40
1
 10
9.063067
 20
59.179602
 30
0.0
 10
9.001835
 20
59.183563
 30
0.0
 10
9.090645
 20
59.247588
 30
0.0
 10
9.260417
 20
59.321888
 30
0.0
  0
LWPOLYLINE
  5
2ae
100
AcDbEntity
  8
0
 62
7
100
AcDbPolyline
 90
1
 70
1
 10
48.410244
 20
58.962187
 30
0.0
  0
SPLINE
  5
2af
100
AcDbEntity
  8
0
 62
7
100
AcDbSpline
 70
8
 71
3
 72
8
 73
4
 74
0
 40
0
 40
0
 40
0
 40
0
 40
1
 40
1
 40
1
 40
1
 10
34.950998
 20
60.083081
 30
0.0
 10
34.975684
 20
60.147388
 30
0.0
 10
35.024232
 20
60.464888
 30
0.0
 10
35.058900
 20
60.788637
 30
0.0
  0
SPLINE
  5
2b0
100
AcDbEntity
  8
0
 62
7
100
AcDbSpline
 70
8
 71
3
 72
8
 73
4
 74
0
 40
0
 40
0
 40
0
 40
0
 40
1
 40
1
 40
1
 40
1
 10
35.058900
 20
60.788637
 30
0.0
 10
35.093571
 20
61.112384
 30
0.0
 10
35.159876
 20
61.377269
 30
0.0
 10
35.206244
 20
61.377269
 30
0.0
  0
SPLINE
  5
2b1
100
AcDbEntity
  8
0
 62
7
100
AcDbSpline
 70
8
 71
3
 72
8
 73
4
 74
0
 40
0
 40
0
 40
0
 40
0
 40
1
 40
1
 40
1
 40
1
 10
35.206244
 20
61.377269
 30
0.0
 10
35.252612
 20
61.377269
 30
0.0
 10
38.902865
 20
62.015154
 30
0.0
 10
43.317917
 20
62.794792
 30
0.0
  0
LWPOLYLINE
  5
2b2
100
AcDbEntity
  8
0
 62
7
100
AcDbPolyline
 90
1
 70
1
 10
9.260417
 20
59.321888
 30
0.0
  0
SPLINE
  5
2b3
100
AcDbEntity
  8
0
 62
7
100
AcDbSpline
 70
8
 71
3
 72
8
 73
4
 74
0
 40
0
 40
0
 40
0
 40
0
 40
1
 40
1
 40
1
 40
1
 10
51.670865
 20
63.986684
 30
0.0
 10
51.849938
 20
63.862586
 30
0.0
 10
52.148383
 20
63.605462
 30
0.0
 10
52.334073
 20
63.415296
 30
0.0
  0
LWPOLYLINE
  5
2b4
100
AcDbEntity
  8
0
 62
7
100
AcDbPolyline
 90
3
 70
0
 10
43.317917
 20
62.794792
 30
0.0
 10
51.345280
 20
64.212315
 30
0.0
 10
51.670865
 20
63.986684
 30
0.0
  0
SPLINE
  5
2b5
100
AcDbEntity
  8
0
 62
7
100
AcDbSpline
 70
8
 71
3
 72
8
 73
4
 74
0
 40
0
 40
0
 40
0
 40
0
 40
1
 40
1
 40
1
 40
1
 10
52.198868
 20
62.974578
 30
0.0
 10
51.235070
 20
62.781008
 30
0.0
 10
35.190515
 20
59.966158
 30
0.0
 10
35.050971
 20
59.966158
 30
0.0
  0
SPLINE
  5
2b6
100
AcDbEntity
  8
0
 62
7
100
AcDbSpline
 70
8
 71
3
 72
8
 73
4
 74
0
 40
0
 40
0
 40
0
 40
0
 40
1
 40
1
 40
1
 40
1
 10
35.050971
 20
59.966158
 30
0.0
 10
34.966918
 20
59.966158
 30
0.0
 10
34.924960
 20
60.015230
 30
0.0
 10
34.950998
 20
60.083081
 30
0.0
  0
LWPOLYLINE
  5
2b7
100
AcDbEntity
  8
0
 62
7
100
AcDbPolyline
 90
3
 70
0
 10
52.334073
 20
63.415296
 30
0.0
 10
52.671694
 20
63.069541
 30
0.0
 10
52.198868
 20
62.974578
 30
0.0
  0
SPLINE
  5
2b8
100
AcDbEntity
  8
0
 62
7
100
AcDbSpline
 70
8
 71
3
 72
8
 73
4
 74
0
 40
0
 40
0
 40
0
 40
0
 40
1
 40
1
 40
1
 40
1
 10
15.113128
 20
60.385082
 30
0.0
 10
15.137205
 20
60.469969
 30
0.0
 10
15.206126
 20
60.769436
 30
0.0
 10
15.266297
 20
61.050565
 30
0.0
  0
SPLINE
  5
2b9
100
AcDbEntity
  8
0
 62
7
100
AcDbSpline
 70
8
 71
3
 72
8
 73
4
 74
0
 40
0
 40
0
 40
0
 40
0
 40
1
 40
1
 40
1
 40
1
 10
15.266297
 20
61.050565
 30
0.0
 10
15.326472
 20
61.331695
 30
0.0
 10
15.406900
 20
61.580988
 30
0.0
 10
15.445026
 20
61.604551
 30
0.0
  0
SPLINE
  5
2ba
100
AcDbEntity
  8
0
 62
7
100
AcDbSpline
 70
8
 71
3
 72
8
 73
4
 74
0
 40
0
 40
0
 40
0
 40
0
 40
1
 40
1
 40
1
 40
1
 10
15.445026
 20
61.604551
 30
0.0
 10
15.552735
 20
61.671119
 30
0.0
 10
21.084750
 20
62.635113
 30
0.0
 10
21.125456
 20
62.594407
 30
0.0
  0
SPLINE
  5
2bb
100
AcDbEntity
  8
0
 62
7
100
AcDbSpline
 70
8
 71
3
 72
8
 73
4
 74
0
 40
0
 40
0
 40
0
 40
0
 40
1
 40
1
 40
1
 40
1
 10
21.125456
 20
62.594407
 30
0.0
 10
21.145299
 20
62.574558
 30
0.0
 10
21.047015
 20
62.263941
 30
0.0
 10
20.907029
 20
61.904148
 30
0.0
  0
SPLINE
  5
2bc
100
AcDbEntity
  8
0
 62
7
100
AcDbSpline
 70
8
 71
3
 72
8
 73
4
 74
0
 40
0
 40
0
 40
0
 40
0
 40
1
 40
1
 40
1
 40
1
 10
20.907029
 20
61.904148
 30
0.0
 10
20.717259
 20
61.416400
 30
0.0
 10
20.600118
 20
61.233324
 30
0.0
 10
20.446569
 20
61.184507
 30
0.0
  0
SPLINE
  5
2bd
100
AcDbEntity
  8
0
 62
7
100
AcDbSpline
 70
8
 71
3
 72
8
 73
4
 74
0
 40
0
 40
0
 40
0
 40
0
 40
1
 40
1
 40
1
 40
1
 10
20.446569
 20
61.184507
 30
0.0
 10
20.273090
 20
61.129356
 30
0.0
 10
15.249629
 20
60.230741
 30
0.0
 10
15.114794
 20
60.230741
 30
0.0
  0
SPLINE
  5
2be
100
AcDbEntity
  8
0
 62
7
100
AcDbSpline
 70
8
 71
3
 72
8
 73
4
 74
0
 40
0
 40
0
 40
0
 40
0
 40
1
 40
1
 40
1
 40
1
 10
15.114794
 20
60.230741
 30
0.0
 10
15.089818
 20
60.230741
 30
0.0
 10
15.089050
 20
60.300195
 30
0.0
 10
15.113207
 20
60.385082
 30
0.0
  0
LWPOLYLINE
  5
2bf
100
AcDbEntity
  8
0
 62
7
100
AcDbPolyline
 90
1
 70
1
 10
34.950998
 20
60.083081
 30
0.0
  0
SPLINE
  5
2c0
100
AcDbEntity
  8
0
 62
7
100
AcDbSpline
 70
8
 71
3
 72
8
 73
4
 74
0
 40
0
 40
0
 40
0
 40
0
 40
1
 40
1
 40
1
 40
1
 10
35.047780
 20
62.529904
 30
0.0
 10
35.000385
 20
62.872812
 30
0.0
 10
34.984502
 20
63.167523
 30
0.0
 10
35.012487
 20
63.184817
 30
0.0
  0
SPLINE
  5
2c1
100
AcDbEntity
  8
0
 62
7
100
AcDbSpline
 70
8
 71
3
 72
8
 73
4
 74
0
 40
0
 40
0
 40
0
 40
0
 40
1
 40
1
 40
1
 40
1
 10
35.012487
 20
63.184817
 30
0.0
 10
35.057019
 20
63.212340
 30
0.0
 10
49.070302
 20
65.698797
 30
0.0
 10
49.180882
 20
65.698797
 30
0.0
  0
SPLINE
  5
2c2
100
AcDbEntity
  8
0
 62
7
100
AcDbSpline
 70
8
 71
3
 72
8
 73
4
 74
0
 40
0
 40
0
 40
0
 40
0
 40
1
 40
1
 40
1
 40
1
 10
49.180882
 20
65.698797
 30
0.0
 10
49.204377
 20
65.698797
 30
0.0
 10
49.211172
 20
65.618590
 30
0.0
 10
49.195990
 20
65.520560
 30
0.0
  0
SPLINE
  5
2c3
100
AcDbEntity
  8
0
 62
7
100
AcDbSpline
 70
8
 71
3
 72
8
 73
4
 74
0
 40
0
 40
0
 40
0
 40
0
 40
1
 40
1
 40
1
 40
1
 10
49.195990
 20
65.520560
 30
0.0
 10
49.173289
 20
65.373951
 30
0.0
 10
49.291409
 20
65.288759
 30
0.0
 10
49.861650
 20
65.040447
 30
0.0
  0
SPLINE
  5
2c4
100
AcDbEntity
  8
0
 62
7
100
AcDbSpline
 70
8
 71
3
 72
8
 73
4
 74
0
 40
0
 40
0
 40
0
 40
0
 40
1
 40
1
 40
1
 40
1
 10
49.861650
 20
65.040447
 30
0.0
 10
50.562780
 20
64.735138
 30
0.0
 10
50.682800
 20
64.666427
 30
0.0
 10
50.616257
 20
64.608442
 30
0.0
  0
SPLINE
  5
2c5
100
AcDbEntity
  8
0
 62
7
100
AcDbSpline
 70
8
 71
3
 72
8
 73
4
 74
0
 40
0
 40
0
 40
0
 40
0
 40
1
 40
1
 40
1
 40
1
 10
50.616257
 20
64.608442
 30
0.0
 10
50.569106
 20
64.567355
 30
0.0
 10
35.455924
 20
61.905748
 30
0.0
 10
35.272006
 20
61.906140
 30
0.0
  0
SPLINE
  5
2c6
100
AcDbEntity
  8
0
 62
7
100
AcDbSpline
 70
8
 71
3
 72
8
 73
4
 74
0
 40
0
 40
0
 40
0
 40
0
 40
1
 40
1
 40
1
 40
1
 10
35.272006
 20
61.906140
 30
0.0
 10
35.167922
 20
61.906405
 30
0.0
 10
35.112743
 20
62.059864
 30
0.0
 10
35.047775
 20
62.529904
 30
0.0
  0
LWPOLYLINE
  5
2c7
100
AcDbEntity
  8
0
 62
7
100
AcDbPolyline
 90
1
 70
1
 10
15.113207
 20
60.385082
 30
0.0
  0
SPLINE
  5
2c8
100
AcDbEntity
  8
0
 62
7
100
AcDbSpline
 70
8
 71
3
 72
8
 73
4
 74
0
 40
0
 40
0
 40
0
 40
0
 40
1
 40
1
 40
1
 40
1
 10
15.655357
 20
62.427708
 30
0.0
 10
15.686683
 20
62.553317
 30
0.0
 10
15.798629
 20
62.874080
 30
0.0
 10
15.904129
 20
63.140512
 30
0.0
  0
LWPOLYLINE
  5
2c9
100
AcDbEntity
  8
0
 62
7
100
AcDbPolyline
 90
1
 70
1
 10
35.047775
 20
62.529904
 30
0.0
  0
SPLINE
  5
2ca
100
AcDbEntity
  8
0
 62
7
100
AcDbSpline
 70
8
 71
3
 72
8
 73
4
 74
0
 40
0
 40
0
 40
0
 40
0
 40
1
 40
1
 40
1
 40
1
 10
19.182520
 20
64.172740
 30
0.0
 10
20.880139
 20
64.474032
 30
0.0
 10
22.336401
 20
64.722369
 30
0.0
 10
22.418660
 20
64.724600
 30
0.0
  0
SPLINE
  5
2cb
100
AcDbEntity
  8
0
 62
7
100
AcDbSpline
 70
8
 71
3
 72
8
 73
4
 74
0
 40
0
 40
0
 40
0
 40
0
 40
1
 40
1
 40
1
 40
1
 10
22.418660
 20
64.724600
 30
0.0
 10
22.527755
 20
64.727563
 30
0.0
 10
22.424904
 20
64.527743
 30
0.0
 10
22.038551
 20
63.986083
 30
0.0
  0
LWPOLYLINE
  5
2cc
100
AcDbEntity
  8
0
 62
7
100
AcDbPolyline
 90
3
 70
0
 10
15.904129
 20
63.140512
 30
0.0
 10
16.095943
 20
63.624936
 30
0.0
 10
19.182520
 20
64.172740
 30
0.0
  0
SPLINE
  5
2cd
100
AcDbEntity
  8
0
 62
7
100
AcDbSpline
 70
8
 71
3
 72
8
 73
4
 74
0
 40
0
 40
0
 40
0
 40
0
 40
1
 40
1
 40
1
 40
1
 10
20.918851
 20
63.143713
 30
0.0
 10
20.594334
 20
63.088826
 30
0.0
 10
19.264477
 20
62.853886
 30
0.0
 10
17.963611
 20
62.621623
 30
0.0
  0
LWPOLYLINE
  5
2ce
100
AcDbEntity
  8
0
 62
7
100
AcDbPolyline
 90
3
 70
0
 10
22.038551
 20
63.986083
 30
0.0
 10
21.508882
 20
63.243508
 30
0.0
 10
20.918851
 20
63.143713
 30
0.0
  0
SPLINE
  5
2cf
100
AcDbEntity
  8
0
 62
7
100
AcDbSpline
 70
8
 71
3
 72
8
 73
4
 74
0
 40
0
 40
0
 40
0
 40
0
 40
1
 40
1
 40
1
 40
1
 10
34.571903
 20
64.258432
 30
0.0
 10
34.426557
 20
64.578981
 30
0.0
 10
34.307640
 20
64.868194
 30
0.0
 10
34.307640
 20
64.901126
 30
0.0
  0
SPLINE
  5
2d0
100
AcDbEntity
  8
0
 62
7
100
AcDbSpline
 70
8
 71
3
 72
8
 73
4
 74
0
 40
0
 40
0
 40
0
 40
0
 40
1
 40
1
 40
1
 40
1
 10
34.307640
 20
64.901126
 30
0.0
 10
34.307640
 20
64.934059
 30
0.0
 10
35.599965
 20
65.188469
 30
0.0
 10
37.179475
 20
65.466485
 30
0.0
  0
LWPOLYLINE
  5
2d1
100
AcDbEntity
  8
0
 62
7
100
AcDbPolyline
 90
3
 70
0
 10
17.963611
 20
62.621623
 30
0.0
 10
15.598400
 20
62.199328
 30
0.0
 10
15.655357
 20
62.427708
 30
0.0
  0
SPLINE
  5
2d2
100
AcDbEntity
  8
0
 62
7
100
AcDbSpline
 70
8
 71
3
 72
8
 73
4
 74
0
 40
0
 40
0
 40
0
 40
0
 40
1
 40
1
 40
1
 40
1
 10
40.370109
 20
65.692058
 30
0.0
 10
40.857789
 20
65.263869
 30
0.0
 10
41.228137
 20
65.142577
 30
0.0
 10
41.900893
 20
65.190711
 30
0.0
  0
SPLINE
  5
2d3
100
AcDbEntity
  8
0
 62
7
100
AcDbSpline
 70
8
 71
3
 72
8
 73
4
 74
0
 40
0
 40
0
 40
0
 40
0
 40
1
 40
1
 40
1
 40
1
 10
41.900893
 20
65.190711
 30
0.0
 10
42.765469
 20
65.252572
 30
0.0
 10
43.669553
 20
65.813403
 30
0.0
 10
44.076271
 20
66.540168
 30
0.0
  0
SPLINE
  5
2d4
100
AcDbEntity
  8
0
 62
7
100
AcDbSpline
 70
8
 71
3
 72
8
 73
4
 74
0
 40
0
 40
0
 40
0
 40
0
 40
1
 40
1
 40
1
 40
1
 10
44.076271
 20
66.540168
 30
0.0
 10
44.149193
 20
66.670475
 30
0.0
 10
44.654192
 20
66.786575
 30
0.0
 10
46.799392
 20
67.166220
 30
0.0
  0
SPLINE
  5
2d5
100
AcDbEntity
  8
0
 62
7
100
AcDbSpline
 70
8
 71
3
 72
8
 73
4
 74
0
 40
0
 40
0
 40
0
 40
0
 40
1
 40
1
 40
1
 40
1
 10
46.799392
 20
67.166220
 30
0.0
 10
48.247869
 20
67.422562
 30
0.0
 10
49.521293
 20
67.633822
 30
0.0
 10
49.629219
 20
67.635686
 30
0.0
  0
SPLINE
  5
2d6
100
AcDbEntity
  8
0
 62
7
100
AcDbSpline
 70
8
 71
3
 72
8
 73
4
 74
0
 40
0
 40
0
 40
0
 40
0
 40
1
 40
1
 40
1
 40
1
 10
49.629219
 20
67.635686
 30
0.0
 10
49.803629
 20
67.638697
 30
0.0
 10
49.819264
 20
67.607199
 30
0.0
 10
49.769816
 20
67.352443
 30
0.0
  0
SPLINE
  5
2d7
100
AcDbEntity
  8
0
 62
7
100
AcDbSpline
 70
8
 71
3
 72
8
 73
4
 74
0
 40
0
 40
0
 40
0
 40
0
 40
1
 40
1
 40
1
 40
1
 10
49.769816
 20
67.352443
 30
0.0
 10
49.655100
 20
66.761444
 30
0.0
 10
49.514400
 20
66.375472
 30
0.0
 10
49.387548
 20
66.303798
 30
0.0
  0
SPLINE
  5
2d8
100
AcDbEntity
  8
0
 62
7
100
AcDbSpline
 70
8
 71
3
 72
8
 73
4
 74
0
 40
0
 40
0
 40
0
 40
0
 40
1
 40
1
 40
1
 40
1
 10
49.387548
 20
66.303798
 30
0.0
 10
49.315526
 20
66.263102
 30
0.0
 10
46.061754
 20
65.671730
 30
0.0
 10
42.156946
 20
64.989638
 30
0.0
  0
SPLINE
  5
2d9
100
AcDbEntity
  8
0
 62
7
100
AcDbSpline
 70
8
 71
3
 72
8
 73
4
 74
0
 40
0
 40
0
 40
0
 40
0
 40
1
 40
1
 40
1
 40
1
 10
42.156946
 20
64.989638
 30
0.0
 10
38.252135
 20
64.307545
 30
0.0
 10
35.007539
 20
63.732852
 30
0.0
 10
34.946728
 20
63.712542
 30
0.0
  0
SPLINE
  5
2da
100
AcDbEntity
  8
0
 62
7
100
AcDbSpline
 70
8
 71
3
 72
8
 73
4
 74
0
 40
0
 40
0
 40
0
 40
0
 40
1
 40
1
 40
1
 40
1
 10
34.946728
 20
63.712542
 30
0.0
 10
34.879978
 20
63.690248
 30
0.0
 10
34.731444
 20
63.906569
 30
0.0
 10
34.571903
 20
64.258432
 30
0.0
  0
LWPOLYLINE
  5
2db
100
AcDbEntity
  8
0
 62
7
100
AcDbPolyline
 90
3
 70
0
 10
37.179475
 20
65.466485
 30
0.0
 10
40.051310
 20
65.971968
 30
0.0
 10
40.370109
 20
65.692058
 30
0.0
  0
SPLINE
  5
2dc
100
AcDbEntity
  8
0
 62
7
100
AcDbSpline
 70
8
 71
3
 72
8
 73
4
 74
0
 40
0
 40
0
 40
0
 40
0
 40
1
 40
1
 40
1
 40
1
 10
16.757174
 20
64.971193
 30
0.0
 10
16.959758
 20
65.347122
 30
0.0
 10
17.132335
 20
65.661774
 30
0.0
 10
17.140683
 20
65.670419
 30
0.0
  0
SPLINE
  5
2dd
100
AcDbEntity
  8
0
 62
7
100
AcDbSpline
 70
8
 71
3
 72
8
 73
4
 74
0
 40
0
 40
0
 40
0
 40
0
 40
1
 40
1
 40
1
 40
1
 10
17.140683
 20
65.670419
 30
0.0
 10
17.169363
 20
65.700122
 30
0.0
 10
25.718065
 20
67.198102
 30
0.0
 10
25.845652
 20
67.195782
 30
0.0
  0
SPLINE
  5
2de
100
AcDbEntity
  8
0
 62
7
100
AcDbSpline
 70
8
 71
3
 72
8
 73
4
 74
0
 40
0
 40
0
 40
0
 40
0
 40
1
 40
1
 40
1
 40
1
 10
25.845652
 20
67.195782
 30
0.0
 10
25.915839
 20
67.194512
 30
0.0
 10
25.695452
 20
67.045267
 30
0.0
 10
25.355904
 20
66.864141
 30
0.0
  0
SPLINE
  5
2df
100
AcDbEntity
  8
0
 62
7
100
AcDbSpline
 70
8
 71
3
 72
8
 73
4
 74
0
 40
0
 40
0
 40
0
 40
0
 40
1
 40
1
 40
1
 40
1
 10
25.355904
 20
66.864141
 30
0.0
 10
24.682284
 20
66.504809
 30
0.0
 10
24.040804
 20
66.079054
 30
0.0
 10
23.605946
 20
65.702679
 30
0.0
  0
SPLINE
  5
2e0
100
AcDbEntity
  8
0
 62
7
100
AcDbSpline
 70
8
 71
3
 72
8
 73
4
 74
0
 40
0
 40
0
 40
0
 40
0
 40
1
 40
1
 40
1
 40
1
 10
23.605946
 20
65.702679
 30
0.0
 10
23.347763
 20
65.479219
 30
0.0
 10
23.082280
 20
65.418775
 30
0.0
 10
19.969102
 20
64.874654
 30
0.0
  0
SPLINE
  5
2e1
100
AcDbEntity
  8
0
 62
7
100
AcDbSpline
 70
8
 71
3
 72
8
 73
4
 74
0
 40
0
 40
0
 40
0
 40
0
 40
1
 40
1
 40
1
 40
1
 10
19.969102
 20
64.874654
 30
0.0
 10
18.122022
 20
64.551822
 30
0.0
 10
16.560840
 20
64.287686
 30
0.0
 10
16.499811
 20
64.287686
 30
0.0
  0
SPLINE
  5
2e2
100
AcDbEntity
  8
0
 62
7
100
AcDbSpline
 70
8
 71
3
 72
8
 73
4
 74
0
 40
0
 40
0
 40
0
 40
0
 40
1
 40
1
 40
1
 40
1
 10
16.499811
 20
64.287686
 30
0.0
 10
16.432792
 20
64.287686
 30
0.0
 10
16.534721
 20
64.558386
 30
0.0
 10
16.757174
 20
64.971193
 30
0.0
  0
LWPOLYLINE
  5
2e3
100
AcDbEntity
  8
0
 62
7
100
AcDbPolyline
 90
1
 70
1
 10
34.571903
 20
64.258432
 30
0.0
  0
SPLINE
  5
2e4
100
AcDbEntity
  8
0
 62
7
100
AcDbSpline
 70
8
 71
3
 72
8
 73
4
 74
0
 40
0
 40
0
 40
0
 40
0
 40
1
 40
1
 40
1
 40
1
 10
33.379952
 20
66.012909
 30
0.0
 10
32.864258
 20
66.559661
 30
0.0
 10
32.855466
 20
66.576973
 30
0.0
 10
33.071274
 20
66.620775
 30
0.0
  0
SPLINE
  5
2e5
100
AcDbEntity
  8
0
 62
7
100
AcDbSpline
 70
8
 71
3
 72
8
 73
4
 74
0
 40
0
 40
0
 40
0
 40
0
 40
1
 40
1
 40
1
 40
1
 10
33.071274
 20
66.620775
 30
0.0
 10
33.193445
 20
66.645571
 30
0.0
 10
34.662623
 20
66.904497
 30
0.0
 10
36.336113
 20
67.196166
 30
0.0
  0
SPLINE
  5
2e6
100
AcDbEntity
  8
0
 62
7
100
AcDbSpline
 70
8
 71
3
 72
8
 73
4
 74
0
 40
0
 40
0
 40
0
 40
0
 40
1
 40
1
 40
1
 40
1
 10
36.336113
 20
67.196166
 30
0.0
 10
38.009602
 20
67.487834
 30
0.0
 10
39.483430
 20
67.748653
 30
0.0
 10
39.611284
 20
67.775763
 30
0.0
  0
LWPOLYLINE
  5
2e7
100
AcDbEntity
  8
0
 62
7
100
AcDbPolyline
 90
1
 70
1
 10
16.757174
 20
64.971193
 30
0.0
  0
SPLINE
  5
2e8
100
AcDbEntity
  8
0
 62
7
100
AcDbSpline
 70
8
 71
3
 72
8
 73
4
 74
0
 40
0
 40
0
 40
0
 40
0
 40
1
 40
1
 40
1
 40
1
 10
39.839434
 20
67.156873
 30
0.0
 10
39.835545
 20
66.552965
 30
0.0
 10
39.817421
 20
66.484782
 30
0.0
 10
39.651070
 20
66.448064
 30
0.0
  0
SPLINE
  5
2e9
100
AcDbEntity
  8
0
 62
7
100
AcDbSpline
 70
8
 71
3
 72
8
 73
4
 74
0
 40
0
 40
0
 40
0
 40
0
 40
1
 40
1
 40
1
 40
1
 10
39.651070
 20
66.448064
 30
0.0
 10
39.473852
 20
66.408948
 30
0.0
 10
34.581931
 20
65.555091
 30
0.0
 10
34.131245
 20
65.484610
 30
0.0
  0
SPLINE
  5
2ea
100
AcDbEntity
  8
0
 62
7
100
AcDbSpline
 70
8
 71
3
 72
8
 73
4
 74
0
 40
0
 40
0
 40
0
 40
0
 40
1
 40
1
 40
1
 40
1
 10
34.131245
 20
65.484610
 30
0.0
 10
33.953765
 20
65.456854
 30
0.0
 10
33.807223
 20
65.559899
 30
0.0
 10
33.379947
 20
66.012909
 30
0.0
  0
LWPOLYLINE
  5
2eb
100
AcDbEntity
  8
0
 62
7
100
AcDbPolyline
 90
3
 70
0
 10
39.611284
 20
67.775763
 30
0.0
 10
39.843747
 20
67.825055
 30
0.0
 10
39.839434
 20
67.156873
 30
0.0
  0
SPLINE
  5
2ec
100
AcDbEntity
  8
0
 62
7
100
AcDbSpline
 70
8
 71
3
 72
8
 73
4
 74
0
 40
0
 40
0
 40
0
 40
0
 40
1
 40
1
 40
1
 40
1
 10
17.905315
 20
66.803903
 30
0.0
 10
18.056509
 20
67.023655
 30
0.0
 10
18.326304
 20
67.353078
 30
0.0
 10
18.504864
 20
67.535953
 30
0.0
  0
LWPOLYLINE
  5
2ed
100
AcDbEntity
  8
0
 62
7
100
AcDbPolyline
 90
1
 70
1
 10
33.379947
 20
66.012909
 30
0.0
  0
SPLINE
  5
2ee
100
AcDbEntity
  8
0
 62
7
100
AcDbSpline
 70
8
 71
3
 72
8
 73
4
 74
0
 40
0
 40
0
 40
0
 40
0
 40
1
 40
1
 40
1
 40
1
 10
22.710072
 20
68.548148
 30
0.0
 10
31.687987
 20
70.120664
 30
0.0
 10
48.125115
 20
73.020071
 30
0.0
 10
48.309228
 20
73.063680
 30
0.0
  0
SPLINE
  5
2ef
100
AcDbEntity
  8
0
 62
7
100
AcDbSpline
 70
8
 71
3
 72
8
 73
4
 74
0
 40
0
 40
0
 40
0
 40
0
 40
1
 40
1
 40
1
 40
1
 10
48.309228
 20
73.063680
 30
0.0
 10
48.476659
 20
73.103338
 30
0.0
 10
48.564718
 20
73.023698
 30
0.0
 10
48.862001
 20
72.563743
 30
0.0
  0
SPLINE
  5
2f0
100
AcDbEntity
  8
0
 62
7
100
AcDbSpline
 70
8
 71
3
 72
8
 73
4
 74
0
 40
0
 40
0
 40
0
 40
0
 40
1
 40
1
 40
1
 40
1
 10
48.862001
 20
72.563743
 30
0.0
 10
49.056488
 20
72.262832
 30
0.0
 10
49.185147
 20
71.989091
 30
0.0
 10
49.147913
 20
71.955428
 30
0.0
  0
SPLINE
  5
2f1
100
AcDbEntity
  8
0
 62
7
100
AcDbSpline
 70
8
 71
3
 72
8
 73
4
 74
0
 40
0
 40
0
 40
0
 40
0
 40
1
 40
1
 40
1
 40
1
 10
49.147913
 20
71.955428
 30
0.0
 10
49.110675
 20
71.921766
 30
0.0
 10
47.810208
 20
71.672635
 30
0.0
 10
46.257988
 20
71.401805
 30
0.0
  0
SPLINE
  5
2f2
100
AcDbEntity
  8
0
 62
7
100
AcDbSpline
 70
8
 71
3
 72
8
 73
4
 74
0
 40
0
 40
0
 40
0
 40
0
 40
1
 40
1
 40
1
 40
1
 10
46.257988
 20
71.401805
 30
0.0
 10
44.705765
 20
71.130975
 30
0.0
 10
37.682220
 20
69.895753
 30
0.0
 10
30.650109
 20
68.656869
 30
0.0
  0
SPLINE
  5
2f3
100
AcDbEntity
  8
0
 62
7
100
AcDbSpline
 70
8
 71
3
 72
8
 73
4
 74
0
 40
0
 40
0
 40
0
 40
0
 40
1
 40
1
 40
1
 40
1
 10
30.650109
 20
68.656869
 30
0.0
 10
23.618000
 20
67.417985
 30
0.0
 10
17.811796
 20
66.404352
 30
0.0
 10
17.747436
 20
66.404352
 30
0.0
  0
SPLINE
  5
2f4
100
AcDbEntity
  8
0
 62
7
100
AcDbSpline
 70
8
 71
3
 72
8
 73
4
 74
0
 40
0
 40
0
 40
0
 40
0
 40
1
 40
1
 40
1
 40
1
 10
17.747436
 20
66.404352
 30
0.0
 10
17.673440
 20
66.404352
 30
0.0
 10
17.731481
 20
66.551251
 30
0.0
 10
17.905315
 20
66.803903
 30
0.0
  0
LWPOLYLINE
  5
2f5
100
AcDbEntity
  8
0
 62
7
100
AcDbPolyline
 90
3
 70
0
 10
18.504864
 20
67.535953
 30
0.0
 10
18.829515
 20
67.868454
 30
0.0
 10
22.710072
 20
68.548148
 30
0.0
  0
SPLINE
  5
2f6
100
AcDbEntity
  8
0
 62
7
100
AcDbSpline
 70
8
 71
3
 72
8
 73
4
 74
0
 40
0
 40
0
 40
0
 40
0
 40
1
 40
1
 40
1
 40
1
 10
31.521633
 20
67.287796
 30
0.0
 10
31.226257
 20
67.425798
 30
0.0
 10
30.653575
 20
67.601501
 30
0.0
 10
30.249003
 20
67.678247
 30
0.0
  0
SPLINE
  5
2f7
100
AcDbEntity
  8
0
 62
7
100
AcDbSpline
 70
8
 71
3
 72
8
 73
4
 74
0
 40
0
 40
0
 40
0
 40
0
 40
1
 40
1
 40
1
 40
1
 10
30.249003
 20
67.678247
 30
0.0
 10
29.844434
 20
67.754992
 30
0.0
 10
29.504034
 20
67.827184
 30
0.0
 10
29.492562
 20
67.838672
 30
0.0
  0
SPLINE
  5
2f8
100
AcDbEntity
  8
0
 62
7
100
AcDbSpline
 70
8
 71
3
 72
8
 73
4
 74
0
 40
0
 40
0
 40
0
 40
0
 40
1
 40
1
 40
1
 40
1
 10
29.492562
 20
67.838672
 30
0.0
 10
29.481079
 20
67.850161
 30
0.0
 10
33.954582
 20
68.649813
 30
0.0
 10
39.433659
 20
69.615676
 30
0.0
  0
SPLINE
  5
2f9
100
AcDbEntity
  8
0
 62
7
100
AcDbSpline
 70
8
 71
3
 72
8
 73
4
 74
0
 40
0
 40
0
 40
0
 40
0
 40
1
 40
1
 40
1
 40
1
 10
39.433659
 20
69.615676
 30
0.0
 10
45.398243
 20
70.667126
 30
0.0
 10
49.426815
 20
71.339522
 30
0.0
 10
49.473366
 20
71.291371
 30
0.0
  0
SPLINE
  5
2fa
100
AcDbEntity
  8
0
 62
7
100
AcDbSpline
 70
8
 71
3
 72
8
 73
4
 74
0
 40
0
 40
0
 40
0
 40
0
 40
1
 40
1
 40
1
 40
1
 10
49.473366
 20
71.291371
 30
0.0
 10
49.591926
 20
71.168738
 30
0.0
 10
49.822518
 20
70.202586
 30
0.0
 10
49.744707
 20
70.154495
 30
0.0
  0
SPLINE
  5
2fb
100
AcDbEntity
  8
0
 62
7
100
AcDbSpline
 70
8
 71
3
 72
8
 73
4
 74
0
 40
0
 40
0
 40
0
 40
0
 40
1
 40
1
 40
1
 40
1
 10
49.744707
 20
70.154495
 30
0.0
 10
49.707088
 20
70.131246
 30
0.0
 10
48.432580
 20
69.893615
 30
0.0
 10
46.912467
 20
69.626427
 30
0.0
  0
LWPOLYLINE
  5
2fc
100
AcDbEntity
  8
0
 62
7
100
AcDbPolyline
 90
1
 70
1
 10
17.905315
 20
66.803903
 30
0.0
  0
SPLINE
  5
2fd
100
AcDbEntity
  8
0
 62
7
100
AcDbSpline
 70
8
 71
3
 72
8
 73
4
 74
0
 40
0
 40
0
 40
0
 40
0
 40
1
 40
1
 40
1
 40
1
 10
43.924485
 20
69.349923
 30
0.0
 10
42.941708
 20
70.267608
 30
0.0
 10
41.166523
 20
69.917316
 30
0.0
 10
40.292451
 20
68.633224
 30
0.0
  0
SPLINE
  5
2fe
100
AcDbEntity
  8
0
 62
7
100
AcDbSpline
 70
8
 71
3
 72
8
 73
4
 74
0
 40
0
 40
0
 40
0
 40
0
 40
1
 40
1
 40
1
 40
1
 10
40.292451
 20
68.633224
 30
0.0
 10
40.171415
 20
68.455412
 30
0.0
 10
39.778345
 20
68.369543
 30
0.0
 10
36.154360
 20
67.729231
 30
0.0
  0
SPLINE
  5
2ff
100
AcDbEntity
  8
0
 62
7
100
AcDbSpline
 70
8
 71
3
 72
8
 73
4
 74
0
 40
0
 40
0
 40
0
 40
0
 40
1
 40
1
 40
1
 40
1
 10
36.154360
 20
67.729231
 30
0.0
 10
33.951966
 20
67.340097
 30
0.0
 10
32.129460
 20
67.025127
 30
0.0
 10
32.104346
 20
67.029299
 30
0.0
  0
SPLINE
  5
300
100
AcDbEntity
  8
0
 62
7
100
AcDbSpline
 70
8
 71
3
 72
8
 73
4
 74
0
 40
0
 40
0
 40
0
 40
0
 40
1
 40
1
 40
1
 40
1
 10
32.104346
 20
67.029299
 30
0.0
 10
32.079237
 20
67.033471
 30
0.0
 10
31.817011
 20
67.149794
 30
0.0
 10
31.521633
 20
67.287796
 30
0.0
  0
LWPOLYLINE
  5
301
100
AcDbEntity
  8
0
 62
7
100
AcDbPolyline
 90
3
 70
0
 10
46.912467
 20
69.626427
 30
0.0
 10
44.148624
 20
69.140631
 30
0.0
 10
43.924485
 20
69.349923
 30
0.0
  0
SPLINE
  5
302
100
AcDbEntity
  8
0
 62
7
100
AcDbSpline
 70
8
 71
3
 72
8
 73
4
 74
0
 40
0
 40
0
 40
0
 40
0
 40
1
 40
1
 40
1
 40
1
 10
44.434919
 20
67.948028
 30
0.0
 10
44.418964
 20
68.311906
 30
0.0
 10
44.405905
 20
68.610148
 30
0.0
 10
44.405905
 20
68.610790
 30
0.0
  0
SPLINE
  5
303
100
AcDbEntity
  8
0
 62
7
100
AcDbSpline
 70
8
 71
3
 72
8
 73
4
 74
0
 40
0
 40
0
 40
0
 40
0
 40
1
 40
1
 40
1
 40
1
 10
44.405905
 20
68.610790
 30
0.0
 10
44.405905
 20
68.648332
 30
0.0
 10
49.798878
 20
69.554404
 30
0.0
 10
49.846640
 20
69.524886
 30
0.0
  0
SPLINE
  5
304
100
AcDbEntity
  8
0
 62
7
100
AcDbSpline
 70
8
 71
3
 72
8
 73
4
 74
0
 40
0
 40
0
 40
0
 40
0
 40
1
 40
1
 40
1
 40
1
 10
49.846640
 20
69.524886
 30
0.0
 10
49.885918
 20
69.500611
 30
0.0
 10
49.918056
 20
69.208431
 30
0.0
 10
49.918056
 20
68.875599
 30
0.0
  0
SPLINE
  5
305
100
AcDbEntity
  8
0
 62
7
100
AcDbSpline
 70
8
 71
3
 72
8
 73
4
 74
0
 40
0
 40
0
 40
0
 40
0
 40
1
 40
1
 40
1
 40
1
 10
49.918056
 20
68.875599
 30
0.0
 10
49.918056
 20
68.286380
 30
0.0
 10
49.911680
 20
68.269132
 30
0.0
 10
49.675521
 20
68.220345
 30
0.0
  0
SPLINE
  5
306
100
AcDbEntity
  8
0
 62
7
100
AcDbSpline
 70
8
 71
3
 72
8
 73
4
 74
0
 40
0
 40
0
 40
0
 40
0
 40
1
 40
1
 40
1
 40
1
 10
49.675521
 20
68.220345
 30
0.0
 10
49.542129
 20
68.192787
 30
0.0
 10
48.401113
 20
67.990566
 30
0.0
 10
47.139931
 20
67.770965
 30
0.0
  0
SPLINE
  5
307
100
AcDbEntity
  8
0
 62
7
100
AcDbSpline
 70
8
 71
3
 72
8
 73
4
 74
0
 40
0
 40
0
 40
0
 40
0
 40
1
 40
1
 40
1
 40
1
 10
47.139931
 20
67.770965
 30
0.0
 10
45.878750
 20
67.551365
 30
0.0
 10
44.760713
 20
67.352508
 30
0.0
 10
44.655404
 20
67.329062
 30
0.0
  0
SPLINE
  5
308
100
AcDbEntity
  8
0
 62
7
100
AcDbSpline
 70
8
 71
3
 72
8
 73
4
 74
0
 40
0
 40
0
 40
0
 40
0
 40
1
 40
1
 40
1
 40
1
 10
44.655404
 20
67.329062
 30
0.0
 10
44.473990
 20
67.288672
 30
0.0
 10
44.462406
 20
67.321183
 30
0.0
 10
44.434919
 20
67.948028
 30
0.0
  0
LWPOLYLINE
  5
309
100
AcDbEntity
  8
0
 62
7
100
AcDbPolyline
 90
1
 70
1
 10
31.521633
 20
67.287796
 30
0.0
  0
SPLINE
  5
30a
100
AcDbEntity
  8
0
 62
7
100
AcDbSpline
 70
8
 71
3
 72
8
 73
4
 74
0
 40
0
 40
0
 40
0
 40
0
 40
1
 40
1
 40
1
 40
1
 10
19.843751
 20
68.998721
 30
0.0
 10
20.062032
 20
69.225588
 30
0.0
 10
20.448220
 20
69.576989
 30
0.0
 10
20.701945
 20
69.779612
 30
0.0
  0
LWPOLYLINE
  5
30b
100
AcDbEntity
  8
0
 62
7
100
AcDbPolyline
 90
1
 70
1
 10
44.434919
 20
67.948028
 30
0.0
  0
SPLINE
  5
30c
100
AcDbEntity
  8
0
 62
7
100
AcDbSpline
 70
8
 71
3
 72
8
 73
4
 74
0
 40
0
 40
0
 40
0
 40
0
 40
1
 40
1
 40
1
 40
1
 10
27.713403
 20
71.305073
 30
0.0
 10
32.532249
 20
72.156301
 30
0.0
 10
34.321821
 20
72.441263
 30
0.0
 10
34.484030
 20
72.383191
 30
0.0
  0
SPLINE
  5
30d
100
AcDbEntity
  8
0
 62
7
100
AcDbSpline
 70
8
 71
3
 72
8
 73
4
 74
0
 40
0
 40
0
 40
0
 40
0
 40
1
 40
1
 40
1
 40
1
 10
34.484030
 20
72.383191
 30
0.0
 10
34.889715
 20
72.237951
 30
0.0
 10
35.986612
 20
71.575705
 30
0.0
 10
35.918405
 20
71.517194
 30
0.0
  0
SPLINE
  5
30e
100
AcDbEntity
  8
0
 62
7
100
AcDbSpline
 70
8
 71
3
 72
8
 73
4
 74
0
 40
0
 40
0
 40
0
 40
0
 40
1
 40
1
 40
1
 40
1
 10
35.918405
 20
71.517194
 30
0.0
 10
35.866115
 20
71.472339
 30
0.0
 10
29.370912
 20
70.316193
 30
0.0
 10
19.711459
 20
68.632359
 30
0.0
  0
LWPOLYLINE
  5
30f
100
AcDbEntity
  8
0
 62
7
100
AcDbPolyline
 90
3
 70
0
 10
20.701945
 20
69.779612
 30
0.0
 10
21.163265
 20
70.148018
 30
0.0
 10
27.713403
 20
71.305073
 30
0.0
  0
SPLINE
  5
310
100
AcDbEntity
  8
0
 62
7
100
AcDbSpline
 70
8
 71
3
 72
8
 73
4
 74
0
 40
0
 40
0
 40
0
 40
0
 40
1
 40
1
 40
1
 40
1
 10
22.576044
 20
71.120665
 30
0.0
 10
22.705367
 20
71.276488
 30
0.0
 10
24.496479
 20
72.157950
 30
0.0
 10
25.265306
 20
72.444134
 30
0.0
  0
SPLINE
  5
311
100
AcDbEntity
  8
0
 62
7
100
AcDbSpline
 70
8
 71
3
 72
8
 73
4
 74
0
 40
0
 40
0
 40
0
 40
0
 40
1
 40
1
 40
1
 40
1
 10
25.265306
 20
72.444134
 30
0.0
 10
26.063372
 20
72.741202
 30
0.0
 10
27.370760
 20
73.067674
 30
0.0
 10
28.291705
 20
73.199867
 30
0.0
  0
SPLINE
  5
312
100
AcDbEntity
  8
0
 62
7
100
AcDbSpline
 70
8
 71
3
 72
8
 73
4
 74
0
 40
0
 40
0
 40
0
 40
0
 40
1
 40
1
 40
1
 40
1
 10
28.291705
 20
73.199867
 30
0.0
 10
29.270883
 20
73.340419
 30
0.0
 10
31.508663
 20
73.267229
 30
0.0
 10
32.351530
 20
73.067084
 30
0.0
  0
SPLINE
  5
313
100
AcDbEntity
  8
0
 62
7
100
AcDbSpline
 70
8
 71
3
 72
8
 73
4
 74
0
 40
0
 40
0
 40
0
 40
0
 40
1
 40
1
 40
1
 40
1
 10
32.351530
 20
73.067084
 30
0.0
 10
32.706625
 20
72.982764
 30
0.0
 10
32.983988
 20
72.900607
 30
0.0
 10
32.967893
 20
72.884513
 30
0.0
  0
SPLINE
  5
314
100
AcDbEntity
  8
0
 62
7
100
AcDbSpline
 70
8
 71
3
 72
8
 73
4
 74
0
 40
0
 40
0
 40
0
 40
0
 40
1
 40
1
 40
1
 40
1
 10
32.967893
 20
72.884513
 30
0.0
 10
32.951806
 20
72.868419
 30
0.0
 10
30.657049
 20
72.455022
 30
0.0
 10
27.868449
 20
71.965853
 30
0.0
  0
SPLINE
  5
315
100
AcDbEntity
  8
0
 62
7
100
AcDbSpline
 70
8
 71
3
 72
8
 73
4
 74
0
 40
0
 40
0
 40
0
 40
0
 40
1
 40
1
 40
1
 40
1
 10
27.868449
 20
71.965853
 30
0.0
 10
25.079847
 20
71.476684
 30
0.0
 10
22.726545
 20
71.060229
 30
0.0
 10
22.638886
 20
71.040398
 30
0.0
  0
SPLINE
  5
316
100
AcDbEntity
  8
0
 62
7
100
AcDbSpline
 70
8
 71
3
 72
8
 73
4
 74
0
 40
0
 40
0
 40
0
 40
0
 40
1
 40
1
 40
1
 40
1
 10
22.638886
 20
71.040398
 30
0.0
 10
22.515431
 20
71.012469
 30
0.0
 10
22.501265
 20
71.030563
 30
0.0
 10
22.576044
 20
71.120665
 30
0.0
  0
LWPOLYLINE
  5
317
100
AcDbEntity
  8
0
 62
7
100
AcDbPolyline
 90
3
 70
0
 10
19.711459
 20
68.632359
 30
0.0
 10
19.446876
 20
68.586237
 30
0.0
 10
19.843751
 20
68.998721
 30
0.0
  0
SPLINE
  5
318
100
AcDbEntity
  8
0
 62
7
100
AcDbSpline
 70
8
 71
3
 72
8
 73
4
 74
0
 40
0
 40
0
 40
0
 40
0
 40
1
 40
1
 40
1
 40
1
 10
36.336113
 20
71.634276
 30
0.0
 10
36.336113
 20
71.676230
 30
0.0
 10
36.643691
 20
72.017734
 30
0.0
 10
37.019619
 20
72.393174
 30
0.0
  0
LWPOLYLINE
  5
319
100
AcDbEntity
  8
0
 62
7
100
AcDbPolyline
 90
1
 70
1
 10
22.576044
 20
71.120665
 30
0.0
  0
SPLINE
  5
31a
100
AcDbEntity
  8
0
 62
7
100
AcDbSpline
 70
8
 71
3
 72
8
 73
4
 74
0
 40
0
 40
0
 40
0
 40
0
 40
1
 40
1
 40
1
 40
1
 10
42.143590
 20
73.851308
 30
0.0
 10
45.920567
 20
74.510949
 30
0.0
 10
46.618996
 20
74.611026
 30
0.0
 10
46.817896
 20
74.521087
 30
0.0
  0
SPLINE
  5
31b
100
AcDbEntity
  8
0
 62
7
100
AcDbSpline
 70
8
 71
3
 72
8
 73
4
 74
0
 40
0
 40
0
 40
0
 40
0
 40
1
 40
1
 40
1
 40
1
 10
46.817896
 20
74.521087
 30
0.0
 10
47.154915
 20
74.368692
 30
0.0
 10
47.991951
 20
73.709329
 30
0.0
 10
47.928927
 20
73.645890
 30
0.0
  0
SPLINE
  5
31c
100
AcDbEntity
  8
0
 62
7
100
AcDbSpline
 70
8
 71
3
 72
8
 73
4
 74
0
 40
0
 40
0
 40
0
 40
0
 40
1
 40
1
 40
1
 40
1
 10
47.928927
 20
73.645890
 30
0.0
 10
47.834182
 20
73.550525
 30
0.0
 10
36.336113
 20
71.555351
 30
0.0
 10
36.336113
 20
71.634276
 30
0.0
  0
LWPOLYLINE
  5
31d
100
AcDbEntity
  8
0
 62
7
100
AcDbPolyline
 90
3
 70
0
 10
37.019619
 20
72.393174
 30
0.0
 10
37.703125
 20
73.075791
 30
0.0
 10
42.143590
 20
73.851308
 30
0.0
  0
SPLINE
  5
31e
100
AcDbEntity
  8
0
 62
7
100
AcDbSpline
 70
8
 71
3
 72
8
 73
4
 74
0
 40
0
 40
0
 40
0
 40
0
 40
1
 40
1
 40
1
 40
1
 10
38.962513
 20
74.032345
 30
0.0
 10
39.368584
 20
74.328808
 30
0.0
 10
40.810786
 20
74.953541
 30
0.0
 10
41.539583
 20
75.148681
 30
0.0
  0
SPLINE
  5
31f
100
AcDbEntity
  8
0
 62
7
100
AcDbSpline
 70
8
 71
3
 72
8
 73
4
 74
0
 40
0
 40
0
 40
0
 40
0
 40
1
 40
1
 40
1
 40
1
 10
41.539583
 20
75.148681
 30
0.0
 10
42.438151
 20
75.389278
 30
0.0
 10
44.275423
 20
75.434929
 30
0.0
 10
45.050075
 20
75.235907
 30
0.0
  0
SPLINE
  5
320
100
AcDbEntity
  8
0
 62
7
100
AcDbSpline
 70
8
 71
3
 72
8
 73
4
 74
0
 40
0
 40
0
 40
0
 40
0
 40
1
 40
1
 40
1
 40
1
 10
45.050075
 20
75.235907
 30
0.0
 10
45.307353
 20
75.169807
 30
0.0
 10
45.505791
 20
75.103691
 30
0.0
 10
45.491045
 20
75.088982
 30
0.0
  0
SPLINE
  5
321
100
AcDbEntity
  8
0
 62
7
100
AcDbSpline
 70
8
 71
3
 72
8
 73
4
 74
0
 40
0
 40
0
 40
0
 40
0
 40
1
 40
1
 40
1
 40
1
 10
45.491045
 20
75.088982
 30
0.0
 10
45.476308
 20
75.074274
 30
0.0
 10
44.075175
 20
74.820143
 30
0.0
 10
42.377431
 20
74.524249
 30
0.0
  0
SPLINE
  5
322
100
AcDbEntity
  8
0
 62
7
100
AcDbSpline
 70
8
 71
3
 72
8
 73
4
 74
0
 40
0
 40
0
 40
0
 40
0
 40
1
 40
1
 40
1
 40
1
 10
42.377431
 20
74.524249
 30
0.0
 10
40.679688
 20
74.228355
 30
0.0
 10
39.171563
 20
73.963602
 30
0.0
 10
39.026042
 20
73.935911
 30
0.0
  0
LWPOLYLINE
  5
323
100
AcDbEntity
  8
0
 62
7
100
AcDbPolyline
 90
1
 70
1
 10
36.336113
 20
71.634276
 30
0.0
  0
LWPOLYLINE
  5
324
100
AcDbEntity
  8
0
 62
7
100
AcDbPolyline
 90
3
 70
0
 10
39.026042
 20
73.935911
 30
0.0
 10
38.761458
 20
73.885563
 30
0.0
 10
38.962513
 20
74.032345
 30
0.0
  0
ENDSEC
  0
SECTION
  2
OBJECTS
  0
DICTIONARY
  5
C
330
0
100
AcDbDictionary
  3
ACAD_GROUP
350
D
  3
ACAD_MLINESTYLE
350
17
  0
DICTIONARY
  5
D
330
C
100
AcDbDictionary
  0
DICTIONARY
  5
1A
330
C
100
AcDbDictionary
  0
DICTIONARY
  5
17
330
C
100
AcDbDictionary
  3
STANDARD
350
18
  0
DICTIONARY
  5
19
330
C
100
AcDbDictionary
  0
ENDSEC
  0
EOF
