<?xml version="1.0" standalone="no"?>
<!DOCTYPE svg PUBLIC "-//W3C//DTD SVG 20010904//EN"
 "http://www.w3.org/TR/2001/REC-SVG-20010904/DTD/svg10.dtd">
<svg version="1.0" xmlns="http://www.w3.org/2000/svg"
 width="1708.540100pt" height="513.897050pt" viewBox="0 0 1708.540100 513.897050"
 preserveAspectRatio="xMidYMid meet">
<metadata>
Created by potrace 1.12, written by Peter Selinger 2001-2015
</metadata>
<g transform="translate(-130.779909,1461.077866) scale(0.100000,-0.100000)"
fill="#000000" stroke="none">
<path d="M15650 14520 l0 -90 90 0 91 0 -3 88 -3 87 -87 3 -88 3 0 -91z"/>
<path d="M10775 13958 c7 -685 9 -711 71 -792 53 -69 107 -90 234 -91 l105 0
0 83 0 84 -60 2 c-72 2 -127 26 -158 70 -25 35 -23 5 -19 424 l2 262 120 0
120 0 0 79 0 78 -61 7 c-34 3 -88 6 -120 6 l-59 0 0 200 0 200 -91 0 -91 0 7
-612z"/>
<path d="M7444 14538 c3 -13 6 -348 6 -745 l0 -723 80 0 80 0 0 733 c0 557 -3
736 -12 745 -7 7 -42 12 -86 12 -72 0 -74 -1 -68 -22z"/>
<path d="M13346 14425 c-87 -41 -160 -76 -161 -77 -1 -2 -5 -18 -8 -35 -5 -26
-3 -33 9 -33 8 0 87 34 175 77 158 76 159 76 159 110 0 18 -3 33 -7 32 -5 0
-80 -33 -167 -74z"/>
<path d="M3585 14337 c-166 -39 -261 -78 -251 -104 75 -195 204 -493 213 -493
7 0 52 12 100 27 76 22 107 26 228 27 166 1 240 -16 400 -94 230 -112 363
-263 477 -540 19 -47 23 -78 26 -211 5 -186 -12 -268 -83 -414 -74 -150 -146
-232 -317 -357 -55 -40 -167 -94 -234 -113 -92 -25 -291 -31 -397 -11 -90 17
-224 66 -287 105 -19 11 -40 21 -46 21 -10 0 -100 -122 -262 -358 l-64 -93 24
-19 c91 -75 333 -181 451 -198 l51 -7 -3 -50 c-9 -152 -117 -355 -256 -482
-60 -55 -76 -75 -68 -85 6 -7 80 -99 166 -205 85 -106 162 -202 171 -214 14
-21 16 -21 40 -5 14 9 28 16 31 16 2 0 30 -51 61 -112 274 -546 731 -855 1324
-894 95 -7 204 3 345 31 272 55 631 297 825 557 125 167 192 306 239 500 36
146 58 394 37 416 -10 10 -69 11 -292 5 l-279 -8 -6 -100 c-16 -288 -203 -572
-467 -708 -260 -134 -508 -147 -748 -41 -229 101 -376 252 -468 480 -67 166
-79 228 -74 380 4 111 9 141 35 216 64 185 156 297 366 448 312 225 458 377
590 620 80 146 144 370 162 565 7 78 -7 255 -30 388 -69 394 -372 795 -743
981 -120 61 -185 84 -352 129 -105 28 -131 30 -305 33 -185 3 -194 3 -330 -29z"/>
<path d="M13243 14191 c-170 -6 -172 -6 -215 -36 -64 -44 -91 -107 -99 -225
-12 -181 -10 -649 2 -690 14 -48 59 -104 108 -134 34 -22 49 -23 306 -30 188
-5 279 -4 299 4 49 18 103 68 126 115 21 43 22 57 23 442 2 394 2 398 -20 440
-12 22 -39 54 -58 71 -67 54 -78 55 -472 43z m332 -212 c19 -17 40 -47 46 -67
7 -24 9 -133 7 -307 -3 -246 -5 -273 -22 -298 -37 -55 -64 -61 -251 -58 -283
4 -275 -7 -275 376 0 263 1 282 20 313 37 60 81 72 272 72 l167 0 36 -31z"/>
<path d="M15657 14193 c-9 -8 -9 -558 0 -872 l6 -242 86 3 c47 2 85 6 84 11
-2 4 -3 255 -3 557 l0 550 -83 0 c-46 0 -87 -3 -90 -7z"/>
<path d="M17620 14169 c0 -19 -3 -58 -6 -86 l-7 -53 259 0 c233 0 263 -2 294
-19 58 -31 68 -54 76 -173 l7 -106 -234 -4 c-230 -3 -235 -3 -292 -30 -109
-51 -147 -123 -147 -277 0 -142 32 -239 92 -284 27 -20 39 -21 370 -18 209 1
347 6 353 12 14 14 8 863 -6 909 -18 56 -55 97 -111 123 -52 25 -61 26 -350
32 l-298 7 0 -33z m624 -661 c10 -89 7 -129 -13 -162 -35 -56 -60 -63 -241
-71 -175 -7 -205 -2 -247 37 -45 42 -38 143 14 194 48 49 73 53 284 54 l196 0
7 -52z"/>
<path d="M8530 14168 c-118 -5 -227 -14 -242 -20 -43 -16 -95 -81 -113 -140
-16 -48 -16 -88 -8 -413 8 -342 10 -362 31 -402 28 -53 75 -89 132 -102 55
-12 649 -17 659 -5 5 5 6 41 3 80 -4 71 -5 72 -34 78 -17 3 -144 6 -282 6
-231 0 -254 2 -283 20 -48 29 -54 49 -51 162 l3 103 330 5 330 5 -4 230 c-3
200 -6 235 -22 267 -41 81 -125 139 -196 136 -21 0 -135 -5 -253 -10z m249
-166 c64 -32 76 -60 76 -175 l0 -102 -263 -3 -262 -2 1 106 c1 105 1 106 33
141 38 41 80 50 266 52 92 1 122 -3 149 -17z"/>
<path d="M14233 14168 c-6 -8 -8 -203 -4 -548 l6 -535 83 -3 82 -3 0 396 c0
311 3 403 14 428 7 18 35 52 62 76 l49 43 170 -4 c186 -3 200 -7 236 -66 20
-30 21 -56 29 -442 5 -225 12 -414 15 -420 7 -11 113 -14 139 -4 14 5 15 51
10 443 -3 240 -7 450 -10 467 -6 43 -60 121 -107 155 l-40 29 -224 0 c-248 0
-256 -2 -311 -64 l-31 -35 -3 47 -3 47 -76 3 c-53 2 -79 -1 -86 -10z"/>
<path d="M16522 14161 c-69 -24 -125 -78 -145 -140 -13 -41 -15 -99 -10 -401
l6 -353 26 -51 c19 -36 39 -58 71 -78 l45 -26 270 -4 270 -3 0 75 0 75 -225 5
c-242 5 -253 8 -291 61 -21 30 -22 37 -20 312 3 403 -14 382 306 382 l220 0 3
83 3 82 -238 0 c-205 -1 -245 -3 -291 -19z"/>
<path d="M11793 14163 c-16 -6 -19 -1036 -3 -1078 10 -25 12 -26 87 -23 l78 3
5 411 5 411 27 39 c49 71 73 79 246 82 l152 4 0 79 0 79 -160 0 c-183 0 -202
-5 -250 -72 l-30 -41 0 56 0 57 -72 -1 c-40 0 -79 -3 -85 -6z"/>
<path d="M9860 14151 c-158 -7 -181 -13 -239 -72 -62 -61 -62 -66 -59 -474 l3
-370 25 -45 c14 -24 45 -58 68 -75 l44 -30 274 -3 275 -3 -3 78 -3 78 -225 5
c-332 7 -315 -13 -308 387 8 389 -11 367 308 364 l218 -2 4 78 c2 43 2 81 0
86 -3 8 -146 7 -382 -2z"/>
<path d="M6187 14125 c-48 -17 -83 -48 -110 -100 -27 -51 -32 -189 -19 -565 9
-289 12 -303 71 -353 57 -47 84 -51 426 -51 l320 -1 3 60 c6 111 34 101 -294
108 -315 7 -324 9 -348 70 -8 21 -11 65 -8 125 l4 92 211 0 c117 1 264 2 327
3 l115 2 3 200 c2 110 0 219 -3 241 -7 52 -56 127 -104 160 -36 24 -36 24
-296 24 -194 -1 -270 -4 -298 -15z m458 -145 c26 -6 50 -21 68 -42 27 -32 28
-36 25 -138 l-3 -105 -257 -3 -258 -2 0 114 0 114 30 26 c17 14 48 27 73 30
23 3 53 7 67 10 51 7 216 5 255 -4z"/>
<path d="M2874 13937 c-224 -230 -352 -466 -403 -741 -13 -65 -21 -140 -19
-166 l3 -48 -53 -12 c-247 -55 -492 -188 -689 -375 -189 -178 -281 -340 -357
-626 -64 -243 -64 -572 0 -799 18 -63 120 -281 167 -355 193 -310 446 -511
752 -599 205 -60 277 -70 475 -70 184 0 186 0 343 41 87 23 170 50 186 60 l28
18 -42 105 c-23 58 -67 171 -99 252 -31 80 -64 149 -72 152 -8 3 -27 1 -42 -5
-74 -30 -178 -50 -287 -55 -102 -5 -133 -3 -210 15 -110 27 -243 80 -310 125
-74 49 -182 152 -232 220 -127 176 -185 554 -117 771 74 238 217 396 475 523
46 23 116 48 154 56 107 22 260 29 349 17 102 -14 246 -63 302 -102 44 -30 46
-30 65 -13 12 10 49 59 83 109 35 49 100 143 144 207 45 65 82 122 82 128 0
37 -239 149 -405 190 -130 32 -127 27 -95 163 41 173 90 261 224 404 l76 81
-75 98 c-116 152 -269 337 -281 341 -6 2 -60 -47 -120 -110z"/>
<path d="M14595 12840 c-159 -32 -271 -96 -443 -254 l-69 -63 -1669 -8 c-917
-4 -1675 -8 -1684 -10 -8 -1 -834 -6 -1835 -10 -1001 -4 -1830 -11 -1842 -16
-29 -11 -31 -54 -4 -69 13 -7 460 -7 1408 0 763 5 1849 11 2413 14 564 3 1499
9 2078 13 683 4 1052 3 1052 -4 0 -5 -15 -27 -33 -49 -47 -55 -164 -220 -195
-274 -14 -25 -55 -97 -92 -160 -37 -63 -100 -178 -139 -255 -127 -245 -294
-475 -346 -475 -7 0 -66 11 -132 24 -335 69 -683 74 -901 16 -168 -46 -272
-131 -272 -224 0 -40 54 -111 101 -133 95 -44 337 -72 474 -55 290 37 396 66
591 163 l100 50 175 -49 c383 -108 438 -122 544 -138 81 -12 155 -15 280 -12
l170 5 194 66 c107 36 208 76 226 89 30 20 65 65 65 83 0 13 -73 -2 -145 -29
-148 -55 -334 -96 -438 -96 -166 0 -354 43 -807 183 l-75 23 55 41 c201 150
396 420 678 938 39 72 92 162 119 200 l48 70 300 7 c165 4 1086 11 2047 16
1584 7 1749 9 1764 24 21 21 10 56 -21 64 -12 3 -733 1 -1601 -5 -1879 -13
-2394 -14 -2394 -3 0 12 162 130 226 164 52 29 57 29 107 18 29 -7 78 -26 109
-41 32 -16 66 -29 75 -29 29 0 91 47 109 83 10 18 24 37 33 44 14 10 10 14
-24 29 -22 9 -62 23 -90 30 -54 15 -224 17 -290 4z m-1917 -1700 c191 -20 301
-35 310 -44 6 -7 -125 -70 -206 -100 -174 -62 -428 -85 -597 -53 -125 24 -155
64 -92 125 63 61 153 85 340 91 26 0 136 -8 245 -19z"/>
<path d="M5657 12223 c-12 -20 -217 -485 -217 -492 0 -4 19 -17 42 -27 75 -33
151 -89 221 -160 97 -100 142 -172 205 -325 l11 -27 58 12 c32 7 67 17 78 23
11 6 105 37 209 69 104 32 190 64 193 70 7 19 -71 187 -138 295 -100 163 -234
306 -400 430 -132 98 -247 156 -262 132z"/>
<path d="M17054 12078 c-92 -63 -124 -153 -68 -197 36 -29 72 -26 126 8 57 36
78 74 78 139 0 87 -52 106 -136 50z"/>
<path d="M10388 12063 c-35 -37 -114 -162 -137 -215 -10 -24 -21 -61 -25 -83
-8 -41 -102 -233 -155 -317 -34 -54 -48 -57 -143 -37 -107 23 -327 -20 -473
-92 -146 -72 -287 -210 -316 -310 -17 -56 3 -115 50 -146 80 -54 333 -13 547
88 34 16 64 29 67 29 2 0 -1 -18 -6 -39 -13 -49 1 -87 37 -101 33 -12 232 21
334 56 86 30 168 68 195 92 16 14 19 14 27 2 6 -8 10 -22 10 -30 0 -30 40 -79
85 -106 113 -66 296 -33 639 115 27 12 47 24 44 27 -3 2 -54 -9 -114 -26 -60
-17 -159 -40 -220 -52 -94 -18 -118 -20 -151 -10 -42 13 -76 58 -50 67 6 3 44
16 82 29 121 42 343 142 408 185 74 48 122 95 137 135 13 35 -10 89 -52 120
-56 41 -250 11 -393 -61 -178 -89 -353 -232 -401 -325 -15 -31 -31 -48 -42
-48 -10 0 -58 -14 -108 -30 -70 -24 -207 -60 -229 -60 -13 0 -35 35 -35 56 0
33 23 77 143 274 174 287 188 311 280 498 71 144 91 195 95 237 4 47 1 57 -21
79 -35 35 -76 34 -109 -1z m650 -735 c4 -36 -29 -97 -75 -139 -53 -48 -283
-142 -302 -123 -11 11 35 76 110 157 91 98 160 139 224 135 35 -3 40 -6 43
-30z m-1130 -5 c23 -18 27 -27 25 -68 -2 -57 -30 -102 -116 -189 -48 -48 -80
-69 -142 -95 -237 -99 -360 -44 -281 125 26 56 117 151 182 190 101 60 275 80
332 37z"/>
<path d="M16865 11581 c-72 -18 -107 -47 -190 -155 -123 -161 -232 -333 -264
-415 -17 -44 -31 -87 -31 -95 0 -8 12 -24 28 -36 24 -20 35 -22 97 -16 131 11
507 145 567 203 65 62 19 58 -178 -18 -171 -66 -231 -80 -244 -58 -18 29 14
112 86 226 45 70 185 266 224 315 17 20 30 41 30 47 0 12 -78 13 -125 2z"/>
<path d="M16089 11562 l-77 -17 -108 -105 c-126 -121 -198 -179 -315 -251
-153 -93 -408 -209 -461 -209 -15 0 -18 5 -13 23 19 63 193 312 314 450 55 62
60 77 35 101 -21 22 -42 20 -121 -9 -130 -49 -239 -145 -347 -309 -67 -100
-136 -248 -136 -291 0 -105 136 -120 313 -35 162 77 385 197 471 254 49 31 90
56 91 54 2 -2 -23 -56 -56 -121 -37 -75 -59 -131 -59 -152 0 -40 27 -70 71
-79 82 -16 356 50 512 123 96 45 126 65 114 77 -2 3 -51 -12 -108 -32 -145
-50 -193 -63 -275 -70 -48 -4 -74 -3 -78 5 -10 15 23 84 90 194 51 83 104 157
239 331 36 46 43 61 34 72 -14 17 -34 17 -130 -4z"/>
<path d="M17890 11556 c-59 -23 -192 -109 -214 -139 -31 -43 -27 -107 14 -186
54 -108 60 -131 46 -192 -11 -51 -14 -55 -56 -71 -52 -21 -100 -17 -171 13
-56 24 -69 51 -69 138 0 101 -11 161 -29 161 -9 0 -52 -22 -95 -48 -90 -53
-101 -74 -94 -168 8 -96 95 -185 196 -200 63 -9 149 16 297 89 102 51 140 75
178 115 65 71 64 93 -13 239 -33 63 -60 119 -60 124 0 38 148 19 183 -23 l18
-21 59 58 c33 33 60 64 60 70 0 41 -177 70 -250 41z"/>
</g>
</svg>
