<?xml version="1.0" standalone="no"?>
<!DOCTYPE svg PUBLIC "-//W3C//DTD SVG 20010904//EN"
 "http://www.w3.org/TR/2001/REC-SVG-20010904/DTD/svg10.dtd">
<svg version="1.0" xmlns="http://www.w3.org/2000/svg"
 width="1090.042946pt" height="382.909577pt" viewBox="0 0 1090.042946 382.909577"
 preserveAspectRatio="xMidYMid meet">
<metadata>
Created by potrace 1.12, written by Peter Selinger 2001-2015
</metadata>
<g transform="translate(-19.957054,427.859184) scale(0.100000,-0.100000)"
fill="#000000" stroke="none">
<path d="M464 4256 c-96 -45 -143 -106 -164 -213 -11 -54 -10 -78 10 -190 30
-174 27 -166 60 -159 36 7 43 -11 17 -46 -17 -23 -18 -31 -8 -59 14 -42 -5
-60 -30 -28 -13 18 -19 19 -37 10 -60 -32 -18 -117 48 -96 15 5 19 12 14 31
-5 19 -1 26 17 32 40 15 67 2 98 -48 49 -79 134 -124 225 -118 43 3 50 0 57
-20 8 -20 4 -25 -24 -37 -17 -7 -44 -22 -58 -33 -17 -14 -30 -18 -40 -11 -8 5
-33 9 -56 9 -36 0 -46 -5 -66 -32 -14 -18 -34 -52 -46 -75 -15 -31 -25 -40
-39 -36 -11 2 -27 -3 -36 -12 -35 -36 6 -84 43 -51 29 26 26 7 -4 -34 -36 -49
-31 -128 11 -153 7 -4 16 -23 19 -41 12 -62 92 -67 83 -5 -4 28 -40 38 -66 17
-12 -9 -11 -5 3 11 16 20 17 23 4 18 -24 -8 -55 30 -62 75 -4 28 0 43 19 69
16 21 24 46 24 72 0 37 32 107 69 151 15 17 16 16 21 -20 4 -30 9 -39 24 -39
19 0 29 13 40 49 12 35 35 -2 39 -62 l3 -57 2 66 c2 73 13 90 71 110 23 8 36
8 43 1 7 -7 19 -4 39 10 41 30 130 21 171 -19 34 -32 60 -77 51 -87 -4 -3 2
-12 12 -20 17 -12 15 -13 -15 -19 -17 -4 -49 -4 -70 -1 -33 5 -42 3 -62 -18
-13 -14 -34 -29 -48 -33 -38 -12 -158 -73 -165 -85 -14 -23 -25 -7 -27 38 l-1
47 -6 -52 c-6 -51 -8 -55 -79 -112 l-73 -60 38 -7 c52 -9 59 -15 38 -30 -10
-7 -16 -21 -13 -31 6 -23 -32 -61 -57 -57 -11 2 -23 -2 -28 -9 -6 -8 -8 -8 -4
3 2 8 -6 25 -19 38 l-23 22 -52 -72 c-380 -539 -199 -1272 386 -1566 115 -58
163 -72 320 -93 171 -22 235 -23 345 -4 94 16 210 54 210 67 0 5 -31 85 -70
178 -38 93 -70 173 -70 179 0 19 -18 21 -60 6 -121 -43 -301 -37 -434 14 -177
68 -303 196 -378 386 -31 76 -32 87 -32 215 -1 122 2 142 26 208 15 41 42 97
59 125 34 57 116 157 128 157 4 0 5 -15 3 -34 -5 -41 12 -97 45 -148 l23 -38
-25 0 c-14 0 -25 -5 -25 -11 0 -6 -24 -37 -52 -70 -29 -32 -61 -74 -70 -91
-17 -31 -17 -33 4 -55 13 -14 29 -21 42 -18 12 2 37 6 57 10 32 5 40 13 68 63
17 31 39 68 50 82 20 25 20 25 0 46 -11 12 -28 35 -37 52 -9 17 -28 50 -41 73
-25 46 -32 142 -12 162 6 6 42 11 79 12 47 1 82 8 111 22 l42 21 24 -36 c40
-62 71 -175 66 -239 -1 -7 -12 -13 -25 -13 -35 0 -37 -46 -5 -145 l25 -80 50
-7 c75 -12 90 -5 98 42 6 37 3 45 -45 108 -28 37 -58 71 -65 75 -8 4 -14 22
-14 40 0 72 -51 207 -104 277 l-27 35 53 13 c33 8 94 11 163 9 118 -4 212 -30
302 -83 25 -14 46 -24 47 -22 26 39 142 211 178 263 56 81 60 73 -62 135 -74
37 -192 81 -258 95 -33 7 -33 8 -27 48 23 134 83 251 183 351 l61 63 -121 156
c-66 87 -126 157 -132 157 -20 0 -141 -124 -199 -202 -62 -84 -108 -171 -147
-278 -27 -73 -29 -75 -64 -78 -22 -2 -42 -12 -53 -25 -16 -20 -26 -22 -88 -19
-50 2 -74 8 -82 20 -20 25 -15 39 21 60 46 27 96 114 96 167 0 22 -5 58 -11
80 -10 35 -9 41 11 57 27 22 40 23 40 4 0 -24 19 -29 45 -12 46 30 26 76 -33
76 -27 0 -33 -3 -28 -16 4 -10 -1 -22 -11 -30 -26 -20 -33 -17 -24 9 15 38
-30 100 -60 81 -5 -3 -9 -1 -9 5 0 5 8 12 18 15 17 6 15 16 -29 125 -57 143
-84 187 -141 234 -87 71 -158 83 -244 43z m156 -11 c55 -19 115 -68 147 -119
34 -53 95 -208 85 -217 -4 -4 -41 -14 -82 -24 -108 -23 -107 -22 -70 -95 17
-34 29 -65 25 -68 -11 -12 -158 -62 -164 -56 -3 3 -7 40 -8 82 -1 42 -4 78 -8
80 -3 1 -19 -5 -37 -14 -36 -19 -136 -54 -153 -54 -14 0 -45 148 -45 216 0
122 64 225 163 263 63 24 92 25 147 6z m248 -366 c-2 -7 -32 -20 -66 -31 -34
-10 -62 -23 -62 -29 0 -6 16 -31 35 -56 19 -25 35 -49 35 -53 0 -9 -269 -105
-275 -98 -3 2 -8 37 -11 76 -4 40 -9 72 -12 72 -2 0 -36 -11 -74 -25 -79 -29
-88 -30 -88 -12 0 7 24 21 53 31 28 11 70 27 91 37 22 11 41 19 43 19 2 0 3
-36 3 -79 0 -44 4 -82 9 -85 11 -7 206 60 206 71 0 4 -15 36 -32 69 l-32 62
77 20 c93 24 105 25 100 11z m-18 -44 c0 -3 -7 -16 -15 -28 -25 -39 -6 -71 56
-90 24 -8 43 -111 31 -165 -22 -96 -112 -161 -225 -163 -93 -2 -143 27 -206
119 -21 29 -21 35 -9 50 8 9 19 26 23 37 7 17 9 18 12 3 4 -16 7 -16 46 1 23
10 85 33 137 51 52 18 105 37 118 41 23 9 23 9 -19 64 -23 31 -40 57 -38 60
16 15 89 32 89 20z m54 -31 c35 -34 5 -75 -44 -59 -34 11 -20 75 16 75 7 0 20
-7 28 -16z m124 -56 c-2 -13 -10 -23 -18 -23 -8 0 -16 10 -18 23 -3 17 2 22
18 22 16 0 21 -5 18 -22z m-524 -39 c11 -56 9 -65 -11 -46 -10 8 -31 17 -47
19 -43 5 -42 23 1 41 51 21 50 21 57 -14z m-26 -51 c17 -17 15 -64 -4 -82 -32
-33 -84 -8 -84 39 0 41 61 70 88 43z m-130 -130 c14 -38 11 -42 -23 -34 -27 7
-34 33 -13 54 18 18 22 15 36 -20z m461 -174 c15 -34 2 -54 -15 -23 -7 13 -13
30 -14 37 0 21 16 13 29 -14z m236 -13 c-3 -17 -2 -32 4 -36 6 -3 11 -17 11
-31 0 -23 -2 -21 -37 17 l-37 41 23 19 c33 27 44 24 36 -10z m28 -11 c-3 -11
-9 -17 -14 -15 -10 7 -1 35 11 35 5 0 6 -9 3 -20z m-455 -92 c-4 -29 -38 -38
-38 -10 0 22 8 32 27 32 9 0 13 -8 11 -22z m738 -67 c19 -30 25 -50 23 -83 -3
-43 12 -77 54 -124 21 -24 6 -44 -17 -25 -10 9 -15 8 -20 -5 -9 -24 -6 -42 4
-19 7 17 9 15 9 -12 1 -40 -11 -42 -28 -5 l-13 27 -12 -35 c-13 -42 -31 -41
-31 1 0 39 -33 62 -42 30 -3 -12 -9 -21 -14 -21 -13 0 -11 14 6 36 20 26 19
31 -7 38 -23 6 -23 7 7 32 17 14 42 30 58 36 47 17 44 53 -11 161 -2 4 -1 7 2
7 3 0 17 -18 32 -39z m-906 -71 c-12 -22 -40 -27 -40 -7 0 19 10 27 32 27 16
0 17 -3 8 -20z m615 -370 c12 -19 -14 -37 -72 -49 -79 -16 -93 -14 -68 5 27
22 96 54 117 54 9 0 20 -5 23 -10z m135 -340 c8 0 100 -115 100 -125 0 -3 -23
-5 -51 -5 -47 0 -51 2 -64 33 -7 17 -16 50 -20 71 -7 35 -6 38 9 33 10 -4 21
-7 26 -7z m-317 -24 c-23 -38 -81 -106 -100 -117 -45 -25 -34 1 27 66 58 60
92 84 73 51z m17 -96 l-43 -73 -18 24 c-10 13 -19 26 -19 29 0 3 21 31 46 63
41 51 49 57 61 44 13 -13 10 -24 -27 -87z m-77 -55 c20 -27 18 -29 -40 -39
-21 -3 -35 0 -44 10 -6 8 -10 15 -8 17 30 17 65 35 69 36 3 0 13 -11 23 -24z
m477 5 c0 -17 -7 -20 -50 -20 -43 0 -50 3 -50 20 0 17 7 20 50 20 43 0 50 -3
50 -20z"/>
<path d="M825 3613 c-14 -15 -35 -41 -48 -57 -21 -26 -30 -29 -73 -28 -27 1
-60 4 -73 6 -32 7 -81 -20 -81 -44 0 -61 116 -97 214 -68 81 24 169 149 139
196 -17 29 -52 26 -78 -5z m69 -6 c7 -11 6 -25 -5 -49 l-16 -33 -17 32 c-19
38 -20 60 -3 66 18 8 29 3 41 -16z m-50 -58 c13 -32 14 -44 5 -55 -17 -21 -25
-17 -39 16 -12 30 -7 80 9 80 5 0 16 -18 25 -41z m-38 -91 c-19 -13 -25 -9
-41 23 -15 29 -15 32 1 44 16 11 20 9 35 -24 11 -25 13 -38 5 -43z m-191 31
c23 -43 17 -62 -14 -46 -35 18 -48 42 -32 61 19 23 28 20 46 -15z m71 -14 c7
-22 14 -41 14 -43 0 -2 -10 -2 -22 0 -14 2 -27 17 -39 46 l-19 43 26 -3 c20
-2 29 -12 40 -43z m67 1 c8 -19 13 -37 10 -40 -16 -16 -42 -3 -57 28 -21 44
-20 46 7 46 17 0 28 -10 40 -34z"/>
<path d="M733 3589 c-5 -5 -20 -11 -32 -12 -26 -2 -28 -17 -2 -17 19 0 74 39
56 40 -6 0 -16 -5 -22 -11z"/>
<path d="M1311 3002 c-14 -26 13 -64 42 -60 28 4 48 55 27 68 -24 16 -59 11
-69 -8z"/>
<path d="M1975 4166 c-109 -16 -171 -31 -227 -53 -54 -21 -51 -18 -39 -40 6
-10 42 -94 80 -188 44 -106 75 -169 83 -168 7 1 38 10 68 19 37 11 92 17 170
17 100 0 126 -4 200 -29 202 -68 350 -219 421 -429 34 -99 34 -280 0 -375 -42
-117 -82 -182 -166 -266 -136 -137 -298 -201 -490 -191 -109 5 -164 20 -268
73 l-69 34 37 -43 c48 -55 103 -173 121 -256 44 -210 -18 -429 -166 -583 -38
-40 -66 -77 -63 -82 19 -32 235 -306 242 -306 4 0 12 5 18 11 13 13 33 4 33
-15 0 -8 16 -49 36 -92 91 -201 257 -383 444 -489 465 -263 1065 -140 1379
284 132 178 211 402 211 597 l0 64 -88 0 c-49 0 -143 -3 -209 -6 l-121 -7 -5
-76 c-17 -258 -230 -505 -488 -566 -73 -17 -212 -20 -288 -5 -134 25 -293 123
-375 228 -99 130 -141 250 -141 407 0 158 43 280 143 407 51 66 112 115 227
184 137 82 298 260 374 414 65 130 111 327 111 475 0 504 -373 952 -865 1038
-134 24 -230 27 -330 13z"/>
<path d="M4360 3640 l0 -450 50 0 50 0 0 450 0 450 -50 0 -50 0 0 -450z"/>
<path d="M6412 3692 l3 -398 28 -43 c35 -53 92 -80 165 -81 l53 0 -3 48 c-3
47 -3 47 -43 53 -49 6 -80 25 -94 56 -7 15 -11 101 -11 218 l0 195 75 0 75 0
0 50 0 50 -75 0 -74 0 -3 123 -3 122 -48 3 -48 3 3 -399z"/>
<path d="M9400 4045 l0 -45 50 0 50 0 0 45 0 45 -50 0 -50 0 0 -45z"/>
<path d="M7978 3993 c-72 -34 -98 -51 -98 -64 0 -26 8 -25 115 25 75 35 95 49
95 65 0 12 -3 21 -7 20 -5 0 -52 -21 -105 -46z"/>
<path d="M3605 3826 c-40 -17 -82 -67 -95 -114 -13 -49 -13 -376 1 -427 16
-57 64 -100 127 -114 60 -13 342 -15 342 -3 0 4 -5 13 -12 20 -9 9 -7 12 10
12 18 0 22 6 22 35 l0 35 -175 0 c-173 0 -176 0 -200 25 -21 21 -25 33 -25 89
l0 66 213 2 212 3 0 110 c0 61 -4 127 -8 147 -10 46 -51 96 -94 114 -44 19
-276 18 -318 0z m306 -115 c15 -18 19 -39 19 -92 l0 -69 -165 0 -165 0 0 60
c0 68 13 103 44 119 12 6 68 10 134 8 106 -2 115 -4 133 -26z"/>
<path d="M4890 3818 c-33 -17 -51 -35 -68 -68 -22 -43 -23 -53 -20 -260 3
-189 5 -219 22 -246 10 -17 27 -36 37 -42 12 -8 97 -15 230 -19 l210 -6 -3 44
-3 44 -176 3 c-173 2 -176 3 -200 28 -18 19 -24 39 -27 89 l-4 65 216 0 216 0
0 128 c0 113 -3 133 -22 172 -40 77 -59 85 -221 88 -132 3 -145 1 -187 -20z
m306 -101 c25 -21 27 -31 28 -93 l1 -69 -165 0 -165 0 3 65 c6 110 18 118 169
119 93 1 104 -1 129 -22z"/>
<path d="M5790 3828 c-51 -14 -88 -44 -113 -91 -20 -38 -22 -59 -25 -225 -4
-180 -3 -184 22 -235 38 -77 62 -89 180 -98 56 -4 127 -8 159 -8 l57 -1 0 50
0 50 -131 0 -131 0 -29 30 -30 30 3 175 3 175 28 27 c27 27 31 28 157 31 l130
4 0 49 0 49 -122 -1 c-68 0 -139 -5 -158 -11z"/>
<path d="M7030 3838 c0 -2 -1 -153 -3 -336 l-2 -332 48 0 47 0 1 228 c0 254 6
284 58 319 29 20 47 23 122 23 l89 0 0 50 0 50 -80 0 c-89 0 -144 -17 -172
-53 -18 -22 -18 -22 -18 16 l0 37 -45 0 c-25 0 -45 -1 -45 -2z"/>
<path d="M7826 3830 c-39 -12 -66 -38 -87 -85 -16 -35 -19 -68 -19 -244 0
-239 8 -269 83 -312 39 -22 52 -24 187 -24 118 0 151 3 177 17 80 44 96 105
91 353 -3 169 -4 183 -27 222 -40 70 -80 83 -242 82 -74 0 -147 -5 -163 -9z
m301 -123 c28 -27 28 -28 31 -188 5 -239 -2 -249 -173 -249 -103 0 -113 2
-133 23 -35 37 -42 73 -42 205 0 222 18 245 187 240 97 -3 104 -5 130 -31z"/>
<path d="M8532 3503 l3 -338 45 0 45 0 5 250 c6 283 9 295 78 316 22 6 77 10
125 8 79 -4 89 -6 114 -32 l28 -27 3 -261 3 -260 45 3 45 3 -1 274 c-1 291 -4
315 -51 358 -39 35 -74 43 -190 43 -118 0 -154 -10 -183 -52 -16 -22 -16 -22
-16 15 l0 37 -50 0 -50 0 2 -337z"/>
<path d="M9402 3503 l3 -338 48 -3 47 -3 0 340 0 341 -50 0 -50 0 2 -337z"/>
<path d="M9967 3825 c-48 -17 -83 -48 -110 -100 -20 -37 -21 -56 -22 -225 0
-170 2 -188 21 -225 47 -86 94 -106 272 -113 l133 -5 -3 54 -3 54 -132 5
c-129 5 -133 6 -160 33 -28 27 -28 29 -31 175 -5 244 9 262 211 262 l117 0 0
50 0 50 -127 0 c-82 -1 -142 -6 -166 -15z"/>
<path d="M10610 3791 l0 -50 165 -3 c164 -3 165 -3 192 -30 23 -23 28 -38 31
-93 l4 -65 -153 0 c-174 0 -206 -9 -246 -68 -42 -64 -42 -181 0 -243 45 -67
69 -74 295 -77 l202 -4 0 249 c0 277 -8 328 -58 376 -47 45 -106 57 -279 57
l-153 0 0 -49z m390 -431 l0 -90 -148 0 c-129 0 -151 2 -165 18 -28 31 -26
113 3 142 18 18 33 20 165 20 l145 0 0 -90z"/>
<path d="M8730 3009 c-67 -13 -156 -61 -232 -123 l-67 -56 -2167 -2 -2167 -3
-1 -27 -2 -28 2144 0 2144 0 -15 -22 c-17 -25 -102 -156 -195 -304 -31 -50
-84 -141 -117 -204 -58 -109 -118 -190 -155 -210 -11 -6 -71 -3 -176 10 -185
23 -232 24 -337 5 -204 -36 -289 -97 -247 -176 23 -43 87 -63 214 -67 143 -5
200 5 377 65 l137 46 168 -46 c236 -64 274 -71 399 -71 130 -1 223 22 343 84
88 45 119 67 109 77 -4 3 -53 -16 -110 -43 -100 -48 -105 -49 -208 -52 -87 -3
-125 1 -212 22 -133 32 -357 104 -357 115 0 5 11 16 25 25 36 24 148 158 209
250 29 45 106 171 171 281 65 110 123 203 129 207 6 4 577 8 1269 8 l1257 0 0
30 0 30 -1240 0 c-714 0 -1240 4 -1240 9 0 5 22 32 48 60 l48 51 71 0 c49 0
86 -6 122 -21 l51 -22 35 28 c21 15 35 34 33 43 -7 35 -150 52 -258 31z
m-1130 -1044 c114 -18 149 -27 152 -40 3 -14 -175 -73 -266 -87 -130 -20 -296
14 -296 61 0 22 56 60 104 71 53 13 206 11 306 -5z"/>
<path d="M3388 2531 c-15 -31 -54 -112 -86 -181 l-59 -126 70 -44 c117 -75
218 -201 266 -332 10 -27 10 -27 53 -13 24 7 108 33 188 56 80 23 148 44 152
46 11 6 -28 109 -73 192 -85 159 -202 286 -354 385 -128 84 -126 84 -157 17z"/>
<path d="M10265 2548 c-46 -25 -65 -51 -65 -89 0 -50 19 -64 64 -49 58 19 90
82 70 134 -7 18 -40 20 -69 4z"/>
<path d="M6130 2514 c-34 -40 -63 -99 -75 -154 -8 -41 -65 -153 -98 -194 -23
-29 -24 -29 -75 -16 -73 19 -167 0 -282 -56 -191 -92 -261 -231 -143 -281 50
-20 113 -13 231 26 51 17 94 31 97 31 3 0 5 -8 5 -19 0 -33 26 -44 93 -38 83
6 287 75 287 96 0 4 -43 -7 -96 -26 -106 -36 -154 -42 -154 -18 0 19 34 86
117 233 127 224 204 400 190 436 -12 30 -62 20 -97 -20z m-267 -403 c36 -14
40 -38 16 -88 -40 -83 -180 -173 -269 -173 -44 0 -52 3 -61 24 -16 34 -4 70
38 117 86 95 205 147 276 120z"/>
<path d="M4825 2428 c-27 -11 -57 -26 -65 -33 -8 -7 -27 -17 -43 -20 -40 -10
-100 -84 -120 -147 -19 -60 -23 -143 -7 -153 5 -3 7 13 3 44 -7 64 19 139 70
197 49 56 65 57 28 2 -15 -24 -37 -68 -49 -98 -48 -130 -45 -233 8 -282 17
-15 30 -31 30 -37 0 -15 83 -51 117 -51 51 0 54 -33 6 -84 -70 -74 -149 -201
-158 -256 -8 -45 7 -86 33 -92 11 -3 38 2 59 12 35 15 41 16 59 3 10 -9 38
-24 62 -35 28 -12 42 -25 42 -38 0 -10 4 -21 8 -24 5 -3 -4 -31 -20 -63 -27
-55 -28 -66 -30 -193 -1 -139 19 -256 59 -334 34 -68 88 -97 121 -64 9 9 12 8
12 -5 0 -9 -9 -26 -20 -37 -11 -11 -20 -27 -20 -35 0 -9 -14 -16 -37 -20 -141
-21 -183 -37 -183 -69 0 -13 6 -28 13 -34 37 -30 335 -44 475 -22 95 15 102
18 102 45 0 44 -37 57 -180 63 -72 3 -130 7 -130 9 0 2 7 15 16 29 14 21 15
31 5 65 -11 36 -10 43 5 60 17 19 18 19 38 -23 25 -52 66 -76 102 -59 49 22
23 71 -38 71 -32 0 -39 4 -44 25 -4 17 -1 32 9 43 35 40 47 81 47 162 0 109
-26 266 -53 315 -26 47 -77 83 -128 91 -32 5 -39 11 -44 36 -4 16 -2 34 3 41
14 18 25 70 12 62 -5 -3 -10 -15 -10 -26 0 -28 -44 -69 -75 -69 -28 0 -80 20
-109 43 -19 14 -19 16 -3 41 15 22 20 24 36 14 15 -9 25 -9 46 0 15 7 31 10
36 6 21 -13 121 9 150 33 62 53 24 175 -71 223 -22 11 -40 27 -40 34 0 25 -31
48 -55 42 -28 -7 -43 20 -17 29 9 3 37 23 61 45 25 22 52 40 60 40 31 0 81 40
102 82 13 26 24 69 27 108 4 56 0 76 -24 134 -36 85 -94 150 -149 165 -54 15
-81 13 -140 -11z m147 -8 c34 -10 108 -79 108 -102 0 -19 -38 -6 -58 21 -31
42 -65 50 -142 35 -65 -14 -79 -10 -80 23 0 25 110 40 172 23z m-174 -53 c2
-12 -3 -17 -17 -17 -12 0 -21 6 -21 13 0 31 32 34 38 4z m202 -24 l24 -17 -34
-9 c-92 -21 -150 -13 -150 23 0 24 127 26 160 3z m-245 -3 c7 -12 -12 -40 -27
-40 -16 0 -21 32 -7 41 18 12 26 11 34 -1z m79 -27 c6 -15 -8 -32 -25 -33 -13
0 -31 29 -24 40 10 16 42 12 49 -7z m5 -38 c56 28 63 18 24 -34 -31 -42 -40
-48 -56 -39 -49 26 -76 -7 -92 -109 -4 -23 -13 -47 -20 -53 -24 -20 -28 9 -9
82 l18 70 -22 19 c-22 17 -22 20 -8 53 16 37 25 43 42 26 7 -7 16 -6 28 3 16
12 22 10 42 -10 22 -22 25 -23 53 -8z m235 14 c27 -13 56 -77 56 -125 0 -59
-29 -131 -65 -163 -41 -36 -72 -46 -119 -37 -98 19 -148 135 -98 231 22 45 44
67 87 89 35 19 104 21 139 5z m-394 -93 c0 -2 3 -12 7 -21 5 -14 2 -16 -18
-10 -31 9 -32 11 -24 24 6 10 35 16 35 7z m130 -10 c0 -2 3 -12 6 -21 5 -13 2
-15 -19 -10 -20 5 -28 2 -37 -15 -14 -26 4 -54 31 -47 14 4 21 -4 30 -30 17
-51 65 -101 105 -109 19 -3 34 -10 34 -14 0 -14 -75 -58 -116 -69 -30 -8 -50
-8 -73 0 -36 13 -38 22 -11 49 23 23 26 42 6 34 -9 -3 -17 3 -21 16 -6 18 -12
21 -35 17 -15 -3 -33 -1 -40 6 -10 9 -14 9 -17 0 -16 -43 -39 26 -29 83 5 25
12 34 26 34 23 0 23 0 11 -33 -12 -31 7 -61 35 -55 15 2 22 19 34 73 8 39 19
76 23 83 7 11 57 18 57 8z m-142 -48 c-3 -7 -11 -13 -18 -13 -7 0 -15 6 -17
13 -3 7 4 12 17 12 13 0 20 -5 18 -12z m132 -13 c0 -8 -7 -15 -15 -15 -8 0
-15 7 -15 15 0 8 7 15 15 15 8 0 15 -7 15 -15z m-116 -152 c4 -4 17 -8 28 -8
12 0 23 -6 26 -14 4 -11 -4 -13 -39 -7 -49 8 -54 10 -44 25 7 13 19 14 29 4z
m56 -55 c0 -17 -32 -20 -47 -5 -15 14 -13 16 15 15 18 -1 32 -5 32 -10z m126
-82 c3 -8 4 -22 2 -31 -2 -12 -7 -7 -15 14 -6 18 -7 31 -2 31 5 0 12 -6 15
-14z m49 -26 c18 -30 -84 -105 -108 -81 -16 16 31 65 49 50 17 -14 34 -3 34
22 0 20 15 26 25 9z m25 -9 c0 -37 -19 -68 -52 -88 -49 -30 -84 -36 -102 -17
-21 20 -11 37 13 22 10 -6 30 -8 46 -4 37 9 88 64 82 88 -3 10 -1 18 4 18 5 0
9 -9 9 -19z m76 -70 c53 -37 74 -72 74 -119 0 -51 -33 -82 -92 -88 l-43 -3 44
9 c56 12 71 27 78 77 4 32 0 44 -22 72 -16 18 -45 39 -66 48 -22 8 -39 19 -39
24 0 17 27 9 66 -20z m-44 -10 c34 -17 45 -63 32 -130 -9 -44 -11 -46 -45 -49
-32 -3 -41 2 -76 42 -45 51 -61 56 -88 26 -13 -14 -16 -28 -11 -51 6 -30 -7
-69 -22 -69 -4 0 -16 14 -26 31 -21 36 -17 98 9 149 14 28 17 29 31 15 9 -8
27 -15 41 -15 33 0 92 28 106 52 7 10 14 17 17 15 3 -1 17 -9 32 -16z m88
-101 c0 -34 -14 -60 -32 -60 -4 0 -8 30 -8 67 0 65 0 66 20 48 13 -12 20 -31
20 -55z m-370 -54 c-12 -26 -20 -61 -18 -79 2 -27 8 -33 31 -35 21 -3 36 5 63
32 31 31 35 41 30 69 -7 41 5 60 35 55 33 -4 37 -37 7 -63 -14 -11 -35 -35
-48 -54 -26 -37 -81 -65 -111 -56 -37 12 -34 76 8 158 23 46 25 24 3 -27z m40
-65 c10 -19 10 -25 -1 -32 -40 -25 -56 0 -38 62 11 41 12 42 19 18 4 -14 13
-36 20 -48z m163 45 c7 -17 -11 -36 -35 -36 -22 0 -23 8 -1 32 19 22 29 23 36
4z m84 -172 c7 -18 -12 -34 -40 -34 -23 0 -34 29 -16 41 22 14 49 10 56 -7z
m102 -49 c65 -33 85 -77 109 -235 l8 -55 -36 0 c-44 0 -161 -76 -204 -132 -28
-37 -28 -37 20 8 55 52 123 97 165 109 34 10 59 -13 59 -54 0 -26 0 -26 -25
-10 -22 14 -30 15 -58 3 -49 -19 -83 -45 -118 -92 l-32 -42 46 47 c80 82 146
100 176 46 14 -24 13 -30 -9 -77 -13 -28 -29 -51 -37 -51 -17 0 -16 -12 1 -55
13 -30 19 -34 58 -37 30 -2 43 -7 43 -18 0 -22 -53 -25 -76 -4 -18 17 -60 113
-58 137 0 9 2 9 6 0 8 -21 22 -15 39 18 21 42 12 79 -21 79 -33 0 -128 -94
-144 -143 -15 -45 -1 -71 33 -62 21 6 21 6 2 -9 -11 -9 -24 -16 -30 -16 -15 0
-56 42 -56 57 0 7 -4 13 -9 13 -5 0 -14 19 -20 43 -5 23 -17 71 -26 107 -24
95 -18 309 11 365 34 66 118 94 183 60z m76 -464 c-10 -41 -23 -47 -35 -16
-14 37 -7 55 20 48 17 -5 20 -11 15 -32z m-61 -37 c5 -18 2 -32 -10 -45 -23
-26 -30 -24 -42 10 -8 24 -7 32 11 49 24 25 32 22 41 -14z m-34 -105 c29 -76
27 -110 -8 -124 -30 -11 -35 13 -9 39 l26 26 -25 62 c-13 35 -22 49 -19 31 7
-34 -6 -51 -23 -30 -8 9 -6 22 5 45 9 18 18 31 20 28 2 -2 17 -37 33 -77z m35
31 c-10 -11 -20 -18 -23 -15 -3 3 3 14 13 25 10 11 20 18 23 15 3 -3 -3 -14
-13 -25z"/>
<path d="M4948 2218 c-54 -31 -75 -98 -46 -151 25 -47 88 -66 88 -27 0 11 5
20 10 20 6 0 10 -9 10 -20 0 -37 51 -17 75 30 25 49 20 107 -14 141 -35 35
-71 37 -123 7z m121 -24 c26 -34 27 -80 1 -121 -22 -36 -50 -44 -50 -14 0 14
-6 19 -20 18 -14 -1 -20 -8 -20 -24 0 -27 -2 -28 -40 -8 -34 17 -45 49 -36 99
13 70 123 103 165 50z"/>
<path d="M4957 2163 c-11 -11 -8 -48 5 -61 20 -20 56 -14 73 12 17 26 11 56
-12 56 -13 0 -13 -3 -3 -15 19 -23 4 -47 -27 -43 -24 2 -28 7 -26 31 2 28 1
31 -10 20z"/>
<path d="M9172 2209 c-81 -40 -159 -135 -231 -276 -37 -74 -39 -108 -9 -124
54 -29 175 15 398 146 52 30 98 55 102 55 14 0 9 -19 -27 -89 -19 -37 -35 -73
-35 -79 0 -25 50 -45 98 -39 96 11 342 103 342 127 0 5 -44 -7 -97 -26 -153
-57 -170 -61 -189 -42 -14 14 -8 26 68 139 46 68 101 148 122 177 l38 52 -39
0 c-65 0 -101 -16 -166 -75 -88 -81 -237 -185 -340 -239 -92 -49 -137 -58
-137 -29 0 26 136 237 183 285 9 8 17 24 19 34 5 28 -47 29 -100 3z"/>
<path d="M10102 2213 c-66 -32 -202 -218 -248 -341 -17 -43 -17 -45 2 -59 37
-29 168 -1 377 79 42 16 77 34 77 40 0 15 -48 4 -174 -43 -109 -40 -136 -43
-136 -15 0 8 41 86 91 172 50 87 93 164 96 171 7 19 -44 16 -85 -4z"/>
<path d="M10769 2211 c-67 -26 -138 -78 -145 -106 -4 -17 4 -46 25 -91 37 -80
39 -107 6 -139 -28 -29 -80 -33 -124 -10 -37 18 -41 31 -41 121 0 41 -3 74 -6
74 -16 0 -113 -62 -118 -76 -3 -9 -6 -36 -6 -61 0 -37 5 -50 30 -73 65 -61
153 -64 263 -10 71 35 137 97 137 129 0 11 -12 52 -26 91 -31 88 -29 106 11
101 17 -1 42 -9 57 -17 25 -13 29 -12 57 12 17 14 31 30 31 35 0 12 -62 39
-87 39 -10 -1 -39 -9 -64 -19z"/>
<path d="M6460 2137 c-110 -37 -285 -170 -278 -211 0 -6 -2 -19 -7 -29 -19
-45 57 -95 146 -96 54 -1 213 37 288 69 85 37 50 35 -79 -5 -90 -28 -132 -36
-162 -32 -40 5 -78 30 -66 43 4 3 73 30 154 60 191 70 247 113 231 177 -13 51
-116 62 -227 24z m102 -63 c-17 -32 -54 -61 -131 -103 -66 -37 -111 -51 -111
-36 0 3 24 35 53 71 36 47 68 74 107 94 53 27 56 28 74 10 14 -13 16 -22 8
-36z"/>
<path d="M8480 765 c0 -37 4 -65 10 -65 6 0 10 28 10 65 0 37 -4 65 -10 65 -6
0 -10 -28 -10 -65z"/>
<path d="M9740 811 c0 -14 -8 -21 -27 -23 -25 -3 -28 -7 -28 -38 0 -33 2 -35
38 -38 l37 -3 0 60 c0 34 -4 61 -10 61 -5 0 -10 -9 -10 -19z m-5 -62 c0 -15
-7 -25 -17 -27 -13 -3 -18 3 -18 21 0 13 3 27 7 31 13 12 28 -1 28 -25z"/>
<path d="M9970 770 c0 -33 4 -60 10 -60 6 0 10 27 10 60 0 33 -4 60 -10 60 -6
0 -10 -27 -10 -60z"/>
<path d="M8827 798 c-7 -21 4 -77 19 -89 7 -6 18 -7 25 -3 8 5 7 9 -5 16 -21
12 -21 44 1 52 14 6 14 8 -3 21 -24 18 -31 18 -37 3z"/>
<path d="M10787 792 c-26 -3 -28 -6 -25 -44 4 -53 28 -64 28 -14 0 25 4 36 15
36 10 0 15 -11 15 -35 0 -44 18 -46 22 -3 4 43 26 48 30 6 2 -18 8 -32 13 -31
14 3 18 29 10 60 -5 22 -10 24 -34 20 -15 -3 -32 -3 -37 1 -5 4 -22 6 -37 4z"/>
<path d="M7707 745 c17 -52 29 -56 45 -17 l11 27 6 -25 c10 -39 34 -30 47 18
11 35 11 42 -2 42 -8 0 -14 -10 -14 -25 0 -31 -17 -33 -22 -3 -5 35 -26 32
-36 -4 l-9 -33 -7 33 c-4 17 -14 32 -21 32 -11 0 -11 -8 2 -45z"/>
<path d="M7886 763 c16 -66 37 -80 51 -36 l10 28 6 -28 c10 -39 32 -33 45 12
14 46 15 51 3 51 -5 0 -14 -12 -19 -27 l-10 -28 -7 28 c-8 31 -35 37 -35 8 0
-28 -18 -36 -22 -9 -2 12 -9 23 -16 26 -9 3 -11 -4 -6 -25z"/>
<path d="M8070 776 c0 -23 22 -76 31 -76 5 0 15 12 21 28 l11 27 6 -25 c10
-37 32 -30 48 14 7 22 11 41 9 44 -9 9 -26 -10 -26 -29 0 -26 -18 -24 -22 3
-5 34 -24 32 -35 -4 l-10 -33 -7 33 c-7 31 -26 45 -26 18z"/>
<path d="M8344 776 c-16 -42 17 -87 52 -71 17 8 16 9 -8 13 -35 4 -37 22 -4
22 30 0 42 16 26 35 -16 19 -59 19 -66 1z"/>
<path d="M8570 770 c-6 -11 -8 -30 -5 -40 8 -24 52 -37 68 -21 8 8 4 11 -16
11 -15 0 -27 5 -27 10 0 6 12 10 26 10 21 0 25 4 22 23 -4 31 -52 36 -68 7z
m50 0 c0 -5 -7 -10 -15 -10 -8 0 -15 5 -15 10 0 6 7 10 15 10 8 0 15 -4 15
-10z"/>
<path d="M8712 778 c-16 -16 -15 -53 3 -68 17 -14 47 -10 53 8 2 8 -2 10 -13
6 -10 -4 -21 -1 -25 7 -12 18 7 50 25 43 8 -4 15 -1 15 5 0 15 -43 14 -58 -1z"/>
<path d="M8940 745 c0 -25 5 -45 10 -45 6 0 10 16 10 35 0 24 5 35 15 35 8 0
15 5 15 10 0 6 -11 10 -25 10 -23 0 -25 -4 -25 -45z"/>
<path d="M9052 778 c-17 -17 -15 -53 3 -68 38 -31 96 27 65 65 -15 18 -51 20
-68 3z m51 -44 c-3 -8 -12 -14 -19 -14 -21 0 -28 28 -13 46 12 14 14 14 25 -1
7 -9 10 -23 7 -31z"/>
<path d="M9190 746 c0 -52 17 -63 22 -13 2 20 8 32 18 32 10 0 16 -12 18 -32
5 -49 24 -40 20 10 -3 41 -4 42 -40 45 l-38 3 0 -45z"/>
<path d="M9332 748 c2 -24 8 -43 13 -43 6 0 11 19 13 43 3 33 0 42 -13 42 -13
0 -16 -9 -13 -42z"/>
<path d="M9424 776 c-18 -47 22 -94 53 -63 17 17 17 18 -7 15 -21 -3 -25 1
-25 22 0 20 4 25 23 23 13 -2 21 1 17 7 -9 15 -55 12 -61 -4z"/>
<path d="M9545 780 c-4 -7 2 -9 19 -4 33 8 34 -9 1 -24 -42 -19 -29 -51 20
-48 24 2 25 5 25 51 0 32 -2 35 -29 35 -17 0 -33 -5 -36 -10z m45 -50 c0 -5
-7 -10 -15 -10 -8 0 -15 5 -15 10 0 6 7 10 15 10 8 0 15 -4 15 -10z"/>
<path d="M9830 770 c-19 -36 -4 -60 38 -59 27 1 31 3 12 6 -40 7 -48 23 -11
23 28 0 32 3 29 23 -4 31 -52 36 -68 7z m50 -5 c0 -8 -6 -15 -14 -15 -17 0
-28 14 -19 24 12 12 33 6 33 -9z"/>
<path d="M10061 753 c-1 -43 -1 -43 34 -43 34 0 35 1 35 40 0 48 -17 54 -22 8
-4 -46 -31 -44 -39 2 l-6 35 -2 -42z"/>
<path d="M10200 750 c0 -22 5 -40 10 -40 6 0 10 18 10 40 0 22 -4 40 -10 40
-5 0 -10 -18 -10 -40z"/>
<path d="M10286 775 c-3 -9 3 -20 14 -27 26 -17 25 -28 -2 -28 -20 -1 -21 -2
-6 -10 9 -6 23 -7 32 -4 23 9 20 41 -4 49 -27 8 -25 23 3 28 20 4 19 4 -4 6
-16 0 -29 -5 -33 -14z"/>
<path d="M10500 770 c-6 -12 -8 -29 -5 -40 7 -20 39 -35 55 -25 16 10 12 23
-7 21 -13 -1 -18 6 -18 24 0 18 5 24 18 22 9 -2 17 2 17 8 0 19 -49 11 -60
-10z"/>
<path d="M10624 776 c-9 -24 0 -58 19 -70 27 -17 52 4 52 45 0 31 -3 34 -33
37 -21 2 -34 -2 -38 -12z m51 -26 c0 -27 -22 -39 -31 -16 -8 22 3 49 19 43 6
-2 12 -14 12 -27z"/>
<path d="M8250 715 c0 -8 5 -15 10 -15 6 0 10 7 10 15 0 8 -4 15 -10 15 -5 0
-10 -7 -10 -15z"/>
<path d="M10410 715 c0 -8 5 -15 10 -15 6 0 10 7 10 15 0 8 -4 15 -10 15 -5 0
-10 -7 -10 -15z"/>
</g>
</svg>
