<?xml version="1.0" standalone="no"?>
<!DOCTYPE svg PUBLIC "-//W3C//DTD SVG 20010904//EN"
 "http://www.w3.org/TR/2001/REC-SVG-20010904/DTD/svg10.dtd">
<svg version="1.0" xmlns="http://www.w3.org/2000/svg"
 width="843.000000pt" height="597.000000pt" viewBox="0 0 843.000000 597.000000"
 preserveAspectRatio="xMidYMid meet">
<metadata>
Created by potrace 1.12, written by Peter Selinger 2001-2015
</metadata>
<g transform="translate(-15.000000,615.000000) scale(0.100000,-0.100000)"
fill="#000000" stroke="none">
<path d="M150 3165 l0 -2985 4215 0 4215 0 0 2985 0 2985 -4215 0 -4215 0 0
-2985z m8420 0 l0 -2975 -4205 0 -4205 0 0 2975 0 2975 4205 0 4205 0 0 -2975z"/>
<path d="M5914 5569 c-39 -4 -115 -22 -169 -39 -79 -26 -105 -39 -136 -71 -21
-21 -46 -39 -56 -39 -31 0 -119 -47 -162 -85 -87 -78 -187 -266 -216 -403 -28
-129 -14 -247 38 -324 18 -25 25 -53 29 -105 7 -91 37 -149 94 -177 28 -14 45
-31 53 -54 19 -51 57 -89 117 -116 84 -39 151 -56 216 -56 l58 0 25 -49 24
-49 -63 -56 c-61 -53 -165 -186 -200 -254 -10 -19 -43 -68 -74 -110 -111 -150
-165 -281 -166 -407 -1 -114 44 -165 146 -165 56 0 141 32 167 63 18 23 34 21
57 -5 44 -50 166 -115 246 -132 19 -4 26 -11 22 -21 -11 -28 7 -87 33 -111
l27 -25 -37 -37 c-48 -49 -85 -134 -104 -235 -19 -106 -22 -504 -5 -637 47
-350 162 -633 283 -696 41 -21 118 -18 157 6 l32 20 11 -24 c10 -21 6 -28 -34
-69 -30 -29 -48 -57 -52 -80 -13 -68 18 -117 73 -117 29 0 43 8 78 45 49 53
74 101 74 141 0 16 -12 59 -27 97 l-27 68 42 42 c23 22 43 39 44 37 2 -3 26
-50 53 -105 59 -118 91 -145 167 -145 117 0 176 87 109 162 -28 32 -32 33
-108 33 -43 0 -83 3 -89 7 -6 4 -19 34 -28 66 l-18 60 42 53 c100 127 114 187
101 434 -14 251 -71 567 -132 729 -27 74 -119 173 -195 211 -51 24 -71 29
-141 29 l-83 0 0 31 c0 16 -8 44 -19 60 -17 29 -17 31 0 55 21 31 59 140 59
172 0 33 10 42 57 56 64 19 124 70 156 131 23 46 27 67 27 136 0 71 -4 90 -30
143 -37 73 -143 177 -216 210 -35 17 -56 34 -70 60 -10 20 -42 60 -71 89 -51
52 -52 53 -111 53 -54 0 -60 2 -71 26 -6 15 -10 28 -9 29 2 1 28 15 58 30 35
17 85 58 137 111 60 61 89 84 107 84 60 0 140 42 206 109 108 109 150 218 150
391 0 91 -4 116 -30 190 -17 47 -42 119 -55 160 -67 204 -215 344 -392 370
-76 11 -79 11 -179 -1z m210 -44 c32 -8 77 -27 101 -41 67 -39 154 -139 192
-221 18 -39 33 -74 33 -77 0 -3 -16 5 -35 19 -20 13 -49 26 -64 30 -19 4 -38
20 -56 48 -31 50 -95 100 -149 117 -77 25 -262 3 -390 -46 -7 -3 -11 9 -11 35
0 28 -7 47 -23 64 l-23 24 78 22 c150 43 253 50 347 26z m-432 -102 c24 -21
23 -45 -2 -68 -41 -37 -102 24 -64 66 21 23 42 24 66 2z m-112 -53 c0 -5 -17
-10 -37 -10 -28 0 -34 3 -23 10 20 13 60 13 60 0z m521 0 c60 -12 117 -45 147
-87 l20 -28 -77 0 c-42 -1 -96 -6 -121 -12 -25 -7 -89 -14 -142 -16 -98 -4
-98 -4 -98 20 0 13 -11 35 -25 49 l-25 25 23 8 c24 9 147 38 187 44 46 7 57 7
111 -3z m-635 -42 c-9 -12 -16 -29 -16 -38 0 -8 -16 -38 -36 -65 -76 -104
-163 -344 -165 -451 0 -27 -3 -67 -7 -89 l-7 -40 -15 35 c-10 23 -15 69 -15
135 0 83 5 114 28 180 39 115 101 220 171 292 62 63 91 82 62 41z m115 -17
c21 -20 19 -52 -5 -76 -31 -31 -41 -31 -71 0 -31 30 -31 40 0 71 24 24 56 26
76 5z m79 -8 c0 -5 -7 -17 -15 -27 -14 -19 -15 -19 -15 7 0 17 5 27 15 27 8 0
15 -3 15 -7z m112 -30 c39 -35 11 -103 -43 -103 -30 0 -59 31 -59 62 0 25 35
58 62 58 12 0 30 -7 40 -17z m-86 -132 c37 -17 78 -13 107 9 24 19 122 50 159
50 11 0 -1 -17 -38 -52 -49 -46 -103 -136 -129 -213 -6 -19 -7 -19 -16 -2 -15
26 -63 47 -108 47 -31 0 -49 -7 -75 -30 -48 -42 -65 -96 -75 -231 -9 -121 -18
-151 -51 -169 -24 -13 -56 1 -65 29 -3 11 12 74 35 144 51 158 53 215 10 259
-26 26 -35 29 -65 24 l-35 -7 21 48 c25 59 77 151 90 158 5 4 19 -1 31 -9 34
-24 94 -20 121 7 l22 22 18 -36 c10 -20 29 -41 43 -48z m669 50 c90 -40 141
-109 170 -233 39 -164 -12 -347 -128 -467 -77 -80 -140 -106 -252 -105 -153 1
-264 63 -322 182 -25 52 -28 67 -28 162 1 168 52 298 157 396 78 72 149 96
268 90 60 -2 101 -10 135 -25z m-943 -238 c22 -26 28 -50 22 -83 l-6 -30 -20
25 c-11 14 -35 27 -60 32 l-42 8 35 33 c39 37 50 39 71 15z m282 -17 c50 -21
76 -63 66 -106 -4 -19 -8 -30 -9 -23 -2 25 -45 53 -81 53 -41 0 -76 -27 -86
-65 -8 -31 12 -82 37 -95 30 -16 87 -12 108 9 18 18 19 17 25 -35 9 -75 38
-147 81 -199 44 -54 156 -113 233 -122 28 -3 52 -9 52 -13 0 -14 -126 -127
-170 -152 -98 -57 -210 -72 -311 -42 -91 27 -92 28 -63 71 13 20 27 47 30 59
4 15 16 25 34 29 17 4 30 14 33 27 5 18 2 19 -27 14 -29 -6 -33 -3 -44 28 -14
39 -64 86 -91 86 -10 0 -30 -9 -45 -21 -24 -19 -27 -19 -48 -5 -31 22 -52 20
-87 -9 l-30 -26 -10 38 c-6 21 -11 98 -11 171 0 132 0 133 21 121 12 -6 36 -8
55 -4 19 3 34 5 34 3 0 -2 -7 -21 -15 -43 -8 -22 -14 -61 -15 -87 0 -60 24
-88 76 -88 79 0 101 39 113 203 10 131 31 191 75 218 37 23 29 22 70 5z m-320
-92 c31 -30 9 -84 -34 -84 -42 0 -57 49 -27 88 13 17 42 15 61 -4z m336 -43
c16 -31 12 -49 -15 -67 -23 -15 -27 -15 -50 0 -27 18 -33 54 -13 74 19 19 66
15 78 -7z m-153 -426 l40 -45 -81 0 c-78 0 -136 10 -164 29 -12 7 -12 12 -1
30 18 28 37 27 71 -6 l29 -28 25 33 c14 17 29 32 33 32 4 0 26 -20 48 -45z
m13 -95 c0 -20 -65 -81 -80 -75 -15 5 -60 65 -60 78 0 4 32 7 70 7 41 0 70 -4
70 -10z m320 -212 c21 -46 26 -113 10 -123 -5 -3 -14 4 -19 17 -4 13 -18 47
-29 77 -12 30 -19 58 -16 62 12 21 36 6 54 -33z m164 -60 c71 -102 -125 -328
-285 -328 -79 0 -120 52 -88 112 10 19 12 18 27 -14 34 -67 105 -61 211 17 79
58 121 116 121 166 0 21 -4 41 -10 44 -5 3 -10 10 -10 16 0 16 18 10 34 -13z
m-66 -10 c7 -7 12 -26 12 -42 0 -23 -13 -42 -59 -87 -111 -108 -201 -130 -201
-48 0 17 16 46 47 83 l47 55 18 -29 c12 -20 26 -30 42 -30 31 0 42 15 51 68 7
42 21 52 43 30z m142 -73 c10 -12 10 -15 -4 -15 -9 0 -16 7 -16 15 0 8 2 15 4
15 2 0 9 -7 16 -15z m81 -82 c63 -28 149 -102 192 -165 74 -106 73 -238 -1
-320 -74 -82 -181 -109 -348 -89 l-106 13 -27 -26 c-36 -34 -73 -34 -101 1
l-21 28 39 16 c27 12 44 28 56 53 22 47 44 46 63 -3 9 -22 23 -43 32 -47 40
-16 197 -16 260 0 122 31 164 81 163 194 0 137 -39 192 -205 285 -89 50 -113
70 -103 86 7 11 43 2 107 -26z m-85 -57 c98 -56 101 -61 109 -162 8 -90 2
-265 -10 -284 -7 -11 -182 -14 -209 -4 -9 3 -16 12 -16 19 0 19 -49 75 -66 75
-8 0 -22 19 -31 41 -12 32 -26 46 -57 60 -23 10 -52 19 -66 19 -32 0 -85 -32
-101 -62 -19 -36 -14 -112 10 -151 l21 -35 -46 -51 c-25 -28 -49 -51 -54 -51
-13 0 -58 113 -69 174 -11 60 -2 154 20 213 17 47 62 133 69 133 4 0 12 -11
18 -25 44 -96 238 -61 362 66 30 31 56 57 56 58 1 0 28 -14 60 -33z m192 -130
c84 -91 83 -233 -3 -286 -18 -11 -35 -20 -39 -20 -3 0 -4 48 -1 108 4 59 2
137 -3 175 -4 37 -5 67 -1 67 3 0 25 -20 47 -44z m-837 -197 c-37 -82 -81
-233 -81 -278 0 -51 23 -71 82 -71 90 0 205 78 254 172 13 24 12 31 -11 74
-32 60 -31 85 2 124 24 29 31 32 66 27 71 -10 101 -65 70 -127 -12 -24 -29
-39 -53 -46 -27 -9 -44 -26 -75 -76 -92 -149 -166 -208 -263 -208 -43 0 -58 5
-77 24 -49 49 -42 170 19 300 36 79 85 160 92 154 2 -3 -9 -34 -25 -69z m28
-121 c6 -29 23 -77 37 -107 13 -30 21 -58 17 -61 -16 -15 -83 -31 -103 -25
-28 9 -26 50 6 158 15 48 28 87 30 87 1 0 7 -24 13 -52z m360 -148 c27 0 48 7
68 24 27 22 32 23 156 18 l127 -5 -6 -36 c-10 -55 -32 -112 -58 -151 -21 -32
-31 -37 -105 -54 -70 -16 -88 -17 -124 -6 -61 18 -115 47 -178 97 l-56 44 41
63 41 63 27 -28 c21 -23 36 -29 67 -29z m290 -244 c7 -8 11 -30 9 -48 -2 -26
-11 -37 -43 -55 -53 -30 -90 -30 -110 1 -9 14 -15 37 -13 52 3 24 10 29 63 45
77 22 80 22 94 5z m220 -121 c109 -38 196 -139 237 -271 27 -89 78 -340 89
-439 6 -49 5 -58 -6 -47 -21 20 -118 14 -180 -11 -170 -70 -368 -256 -490
-459 -19 -32 -36 -58 -40 -58 -7 0 -46 159 -64 270 -22 129 -30 436 -16 588
19 212 71 317 186 379 114 62 203 77 284 48z m313 -802 c23 -20 38 -74 38
-136 l0 -49 -30 26 c-81 67 -197 41 -349 -80 -135 -108 -235 -253 -272 -394
l-12 -45 -29 63 c-36 75 -35 79 54 215 99 151 271 312 408 382 88 46 155 52
192 18z m-19 -192 c47 -42 64 -99 48 -159 -15 -58 -44 -115 -84 -165 -24 -31
-32 -36 -38 -24 -6 9 2 34 22 70 16 31 32 78 36 105 5 45 3 53 -20 76 -38 38
-97 36 -163 -5 -76 -47 -184 -165 -227 -247 -68 -129 -60 -240 16 -230 18 3
39 8 47 12 11 4 19 -2 27 -25 9 -24 9 -28 -1 -20 -9 7 -24 4 -54 -10 -54 -27
-92 -19 -144 33 -37 37 -39 42 -33 81 22 147 95 271 227 392 154 140 268 179
341 116z m-65 -123 c18 -18 15 -53 -10 -110 l-22 -50 -23 78 c-13 43 -23 82
-23 86 0 13 65 9 78 -4z m-99 -69 c25 -96 112 -363 123 -376 7 -9 37 -13 94
-13 71 0 87 -3 104 -20 26 -26 25 -52 -2 -77 -51 -46 -124 -34 -172 30 -58 76
-205 469 -184 494 18 22 24 15 37 -38z m-49 -95 l31 -89 -43 -37 c-24 -21 -45
-38 -48 -38 -3 0 -20 37 -37 82 l-33 82 47 48 c26 26 48 46 50 44 2 -1 17 -43
33 -92z m-76 -237 c42 -103 76 -201 76 -217 0 -32 -48 -100 -93 -134 -28 -21
-29 -21 -43 -2 -28 39 -18 76 37 129 61 59 62 48 -15 247 -31 80 -54 151 -51
159 3 8 7 12 9 10 2 -2 38 -89 80 -192z m-86 -4 c-6 -7 -21 -13 -34 -13 -21 0
-24 5 -24 39 0 21 5 53 12 72 l11 33 23 -59 c15 -42 19 -64 12 -72z m215 92
c4 -9 -10 -28 -39 -52 -37 -30 -47 -34 -54 -22 -7 10 2 24 33 51 47 42 53 44
60 23z"/>
<path d="M6147 5060 c-59 -15 -111 -46 -147 -86 -54 -61 -64 -97 -65 -216 0
-102 1 -108 30 -149 35 -50 104 -89 170 -96 l45 -6 0 57 c0 51 2 56 25 62 34
8 38 4 43 -61 3 -34 9 -55 17 -55 6 0 40 14 74 31 105 53 148 136 139 272 -10
147 -97 239 -240 251 -29 3 -70 1 -91 -4z m187 -64 c76 -44 106 -106 106 -215
0 -84 -28 -143 -88 -188 -63 -47 -72 -44 -72 23 l0 57 -31 -7 c-17 -3 -49 -6
-70 -6 l-39 0 0 -55 c0 -62 -4 -64 -65 -36 -78 36 -105 85 -105 190 0 88 23
154 71 202 72 72 203 88 293 35z"/>
<path d="M6194 4944 c-8 -3 -9 -17 -3 -41 4 -20 7 -41 6 -47 -1 -5 6 -12 16
-14 14 -3 17 4 17 36 0 62 -8 77 -36 66z"/>
<path d="M6108 4893 c-50 -58 -52 -121 -4 -169 30 -30 40 -34 85 -34 93 0 141
41 141 122 0 36 -6 54 -25 75 -20 22 -26 25 -34 14 -6 -9 -2 -25 11 -47 45
-76 -31 -154 -121 -123 -54 19 -68 75 -30 123 19 24 20 29 7 42 -13 13 -16 12
-30 -3z"/>
<path d="M6326 2768 l-25 -32 64 -64 c68 -67 66 -67 121 -23 l32 24 -76 64
c-42 35 -80 63 -83 63 -4 0 -19 -14 -33 -32z m118 -100 c-6 -10 -84 59 -84 75
0 4 20 -8 45 -28 25 -21 42 -42 39 -47z"/>
<path d="M6188 2694 c-27 -13 -48 -26 -48 -29 0 -6 61 -169 65 -173 6 -7 105
53 105 63 0 6 -17 45 -38 87 l-37 77 -47 -25z m52 -75 c22 -42 21 -69 -3 -69
-16 0 -52 84 -42 100 12 19 25 10 45 -31z"/>
<path d="M6043 2650 c-24 -10 -43 -25 -43 -32 0 -7 -6 -52 -13 -99 l-13 -86
45 10 c25 5 49 12 53 16 9 7 26 211 18 211 -3 0 -24 -9 -47 -20z m7 -99 c0
-44 -4 -60 -16 -65 -13 -5 -14 1 -9 42 14 98 25 109 25 23z"/>
<path d="M2725 5527 c-100 -34 -168 -84 -229 -171 -90 -127 -153 -282 -200
-496 -27 -124 -56 -335 -56 -406 0 -52 -22 -50 229 -29 102 8 186 13 189 11 4
-4 -15 -288 -23 -336 l-4 -25 117 11 c64 6 203 20 308 29 l190 18 -47 166 -46
166 61 6 c33 4 108 7 166 8 58 1 112 6 120 11 12 8 15 35 14 152 -5 467 -177
784 -474 873 -75 22 -263 29 -315 12z m257 -38 c140 -29 280 -132 357 -263 71
-120 125 -320 137 -514 l7 -98 -34 3 c-38 5 -459 -24 -466 -31 -3 -2 20 -79
50 -170 30 -91 54 -166 53 -167 -4 -3 -312 -26 -317 -23 -3 2 4 80 16 174 l21
172 -55 -6 c-50 -5 -306 -23 -421 -29 l-45 -2 3 35 c8 92 47 297 78 405 80
277 203 457 347 506 60 21 188 25 269 8z m498 -932 l0 -34 -107 -6 c-58 -4
-141 -7 -184 -7 -43 0 -80 -3 -82 -7 -3 -5 15 -75 39 -158 24 -82 44 -157 44
-166 0 -13 -39 -19 -247 -37 -137 -13 -253 -22 -258 -22 -7 0 -6 58 3 176 7
97 12 178 9 180 -2 2 -86 -3 -188 -11 -239 -20 -229 -20 -229 8 0 23 1 23 238
39 130 9 239 14 241 12 2 -2 -6 -79 -17 -171 -12 -92 -21 -168 -19 -169 2 -2
411 28 414 31 2 1 -22 77 -53 169 -31 92 -55 169 -53 171 2 2 96 10 209 18
113 8 213 15 223 16 13 1 17 -7 17 -32z"/>
<path d="M3273 4456 c-59 -27 -85 -97 -60 -158 19 -46 59 -72 108 -73 38 0 39
-1 45 -44 15 -99 -12 -265 -58 -355 -70 -137 -232 -216 -416 -203 -195 15
-342 163 -411 415 l-20 72 30 0 c73 0 129 57 129 132 0 89 -49 138 -138 138
-87 0 -139 -62 -129 -156 l5 -52 -41 -4 c-23 -3 -43 -4 -45 -3 -1 1 -5 25 -9
54 -7 59 -19 64 -89 32 -58 -26 -84 -63 -84 -120 1 -75 43 -111 132 -111 64 0
63 -1 59 73 -2 33 0 37 21 37 12 0 39 3 58 5 19 3 41 2 48 -3 7 -5 22 -46 33
-93 68 -287 256 -459 501 -459 l49 0 -3 -37 c-3 -32 -7 -38 -28 -41 -115 -13
-164 -26 -194 -52 l-32 -28 -43 29 c-84 56 -113 28 -63 -62 l32 -57 -118 -103
c-64 -57 -152 -139 -195 -182 -76 -77 -78 -78 -109 -68 -48 17 -107 14 -115
-5 -11 -29 11 -66 57 -98 l45 -31 1 -105 c0 -113 17 -180 75 -308 16 -36 28
-66 27 -67 -50 -31 -69 -53 -88 -96 -12 -29 -37 -66 -55 -84 -19 -17 -37 -43
-40 -58 -18 -69 33 -77 100 -16 51 47 56 41 20 -22 -31 -55 -33 -114 -5 -129
30 -16 54 2 80 62 l24 53 7 -48 c9 -59 32 -87 71 -87 41 0 56 36 40 96 -14 53
-15 67 -3 60 4 -3 11 -20 15 -38 13 -64 64 -88 101 -48 26 29 22 83 -9 130
-34 52 -34 64 2 54 15 -4 41 -8 57 -8 26 -1 30 3 33 27 5 41 -21 73 -75 93
-26 10 -62 33 -79 51 -18 18 -41 33 -52 33 -16 0 -21 9 -26 48 -4 26 -21 115
-38 197 -17 83 -32 178 -33 212 l-1 63 40 26 c52 34 136 104 201 166 l50 47 0
-307 c0 -328 6 -385 51 -473 44 -87 134 -139 243 -139 l44 0 -20 -22 c-12 -13
-43 -57 -71 -100 -145 -224 -159 -444 -37 -604 l25 -32 -28 -6 c-15 -3 -123
-15 -240 -27 -117 -12 -207 -26 -201 -30 10 -6 8 -28 -7 -101 -11 -52 -18
-102 -15 -111 6 -16 267 -190 286 -190 6 0 90 51 187 113 l176 113 -4 84 -3
85 -38 27 c-60 44 -133 127 -155 179 -33 72 -36 183 -8 274 25 82 45 125 103
217 36 56 42 62 50 44 18 -40 64 -56 158 -55 138 1 239 38 278 103 l20 32 20
-34 c33 -53 78 -176 96 -264 21 -96 22 -324 3 -430 l-13 -70 -35 -3 c-34 -3
-37 -6 -59 -68 l-24 -66 94 -194 c92 -191 94 -194 122 -189 53 9 319 119 325
134 3 8 0 38 -6 68 -10 48 -23 67 -133 189 l-122 136 -61 -4 c-39 -2 -60 1
-59 8 31 178 28 429 -7 559 -27 99 -85 225 -133 287 l-37 48 33 16 c62 32 97
66 124 122 28 57 28 58 27 262 0 160 -5 235 -22 345 -12 77 -25 150 -28 162
-5 20 3 18 103 -27 61 -27 153 -64 207 -82 74 -26 95 -36 90 -48 -15 -35 -9
-45 24 -45 28 0 33 -3 29 -20 -2 -11 -20 -90 -40 -175 -19 -85 -38 -171 -41
-191 -6 -34 -10 -38 -53 -48 -26 -7 -68 -9 -98 -6 -57 8 -85 -8 -85 -46 0 -26
43 -65 80 -73 30 -6 30 -6 16 -34 -8 -16 -31 -41 -50 -56 -47 -35 -60 -60 -46
-86 16 -30 71 -27 111 7 l33 28 -18 -28 c-10 -15 -22 -27 -26 -27 -15 0 -42
-66 -38 -95 3 -26 8 -30 36 -33 45 -4 77 18 106 76 27 51 35 36 11 -21 -20
-48 -19 -80 3 -100 45 -41 87 -9 104 79 16 90 19 93 35 54 18 -41 29 -50 65
-50 59 0 79 74 34 127 -24 28 -24 28 -5 63 10 19 18 55 19 79 0 38 -5 49 -42
86 -24 23 -49 44 -57 46 -11 4 -9 26 14 119 38 159 55 271 55 362 0 51 6 89
16 112 9 19 14 41 11 50 -9 23 -66 20 -97 -4 -14 -11 -28 -20 -31 -20 -3 0
-55 30 -115 66 -170 103 -301 165 -422 200 -10 3 -9 10 3 33 28 56 15 101 -31
101 -25 0 -70 -48 -90 -97 -14 -32 -14 -32 -48 -18 -19 8 -77 20 -128 26 l-94
12 -10 33 -11 34 63 29 c80 38 143 96 182 169 46 86 62 167 62 315 0 127 0
127 24 127 13 0 43 3 68 6 l45 6 6 -42 c3 -23 8 -44 11 -47 13 -13 81 11 112
40 66 60 55 151 -21 183 -43 18 -99 18 -114 0 -7 -8 -9 -31 -5 -60 l7 -46 -50
0 -50 0 10 38 c25 96 -77 180 -170 138z m108 -55 c17 -18 29 -40 29 -56 0 -32
-49 -85 -79 -85 -33 0 -68 20 -80 47 -6 13 -11 33 -11 44 0 30 53 79 85 79 16
0 38 -12 56 -29z m263 -62 c43 -34 32 -95 -24 -124 -16 -8 -31 -15 -33 -15 -3
0 -8 26 -12 58 -3 31 -9 67 -12 80 -4 19 -1 22 25 22 16 0 41 -9 56 -21z
m-1118 -4 c97 -40 67 -184 -39 -185 -85 0 -131 105 -69 162 25 24 45 35 65 37
4 1 23 -6 43 -14z m-296 -153 c1 -20 5 -56 9 -80 10 -52 0 -60 -54 -42 -43 14
-69 50 -60 82 13 43 75 94 98 81 4 -2 7 -21 7 -41z m838 -631 c15 -47 15 -88
2 -96 -15 -10 -53 82 -46 111 9 36 31 29 44 -15z m412 9 c0 -26 -35 -80 -52
-80 -16 0 -17 3 -7 23 32 59 59 86 59 57z m-222 -86 c91 -19 112 -29 112 -53
0 -27 33 -65 93 -104 l53 -35 17 -94 c49 -265 66 -557 39 -654 -35 -122 -158
-193 -420 -244 -301 -58 -408 3 -447 259 -6 39 -5 42 11 37 94 -29 378 -47
405 -25 14 11 18 42 24 156 l6 143 -38 -17 c-57 -24 -204 -20 -323 9 l-95 24
2 39 c1 22 5 93 9 158 l6 117 38 46 c45 54 54 90 34 122 -33 51 10 84 134 101
l82 12 26 -30 c40 -48 74 -39 89 22 9 33 30 34 143 11z m278 -49 c41 -14 116
-46 167 -71 110 -55 307 -172 307 -183 0 -4 -6 -15 -13 -25 -12 -16 -20 -15
-127 24 -292 107 -505 236 -449 271 21 13 34 11 115 -16z m-841 -25 c32 -25
35 -31 20 -36 -18 -7 -33 6 -56 49 -13 24 -8 22 36 -13z m57 -92 c-7 -29 -171
-192 -279 -278 -243 -194 -206 -102 52 130 179 161 241 201 227 148z m1368
-107 c0 -13 -92 -113 -98 -107 -6 7 23 53 56 89 26 27 42 34 42 18z m-30 -273
c-13 -94 -64 -304 -85 -354 -24 -57 -39 -34 -32 50 7 75 88 423 109 466 12 23
13 21 16 -30 2 -30 -2 -90 -8 -132z m-1847 12 c4 0 13 -11 19 -25 8 -18 19
-25 39 -25 15 0 29 -7 33 -15 13 -34 -103 2 -151 47 -32 30 -29 37 15 27 20
-5 40 -9 45 -9z m74 -120 c20 0 93 -343 93 -437 0 -24 -4 -43 -9 -43 -12 0
-74 123 -105 208 -27 76 -43 180 -38 245 3 35 6 38 25 33 12 -3 27 -6 34 -6z
m513 -15 c51 -12 108 -16 178 -13 l102 4 0 -36 c0 -19 -3 -66 -7 -104 l-6 -69
-141 6 c-78 4 -166 13 -196 20 -64 14 -67 21 -69 146 l-1 74 33 -6 c17 -3 66
-13 107 -22z m1111 -267 c20 -47 62 -51 87 -9 l18 30 30 -18 c17 -10 38 -35
48 -55 16 -34 16 -37 -4 -75 -25 -51 -25 -86 0 -111 11 -11 20 -32 20 -46 0
-39 -41 -29 -52 12 -20 79 -98 43 -98 -45 0 -41 -20 -91 -36 -91 -18 0 -18 1
3 82 14 53 15 71 5 92 -20 45 -47 33 -84 -36 -18 -34 -43 -68 -55 -76 -21 -13
-23 -13 -23 6 0 12 18 42 41 68 31 36 39 53 37 78 -4 45 -35 45 -87 1 -24 -19
-48 -32 -53 -28 -7 3 1 15 18 27 46 33 72 65 84 102 14 41 1 64 -34 64 -24 0
-66 26 -66 41 0 7 19 8 53 4 28 -4 63 -2 77 4 42 17 56 12 71 -21z m-1437
-222 c10 -15 33 -30 58 -37 41 -10 78 -34 78 -50 0 -4 -16 -2 -35 4 -25 7 -42
7 -60 -1 -34 -16 -32 -50 5 -109 34 -53 38 -78 14 -87 -21 -8 -22 -7 -37 45
-15 51 -53 73 -82 49 -17 -14 -17 -20 1 -117 5 -25 3 -33 -9 -33 -18 0 -27 21
-27 65 0 45 -19 85 -40 85 -23 0 -34 -15 -56 -70 -18 -48 -31 -67 -39 -59 -2
3 9 33 25 68 34 72 36 84 14 105 -23 24 -38 20 -85 -24 -56 -52 -65 -42 -11
13 23 23 47 58 53 77 13 39 34 67 62 82 15 7 24 5 42 -12 31 -29 64 -19 72 21
4 23 8 27 23 19 9 -5 25 -20 34 -34z m916 -71 c0 -103 -340 -173 -382 -79 -17
37 6 74 46 74 33 0 170 30 246 52 41 13 47 12 67 -6 13 -11 23 -29 23 -41z
m-441 -845 c1 -3 -62 -34 -138 -68 -92 -42 -144 -61 -153 -55 -8 4 -45 30 -83
57 -83 61 -88 58 145 81 91 9 167 21 168 26 3 8 60 -30 61 -41z m782 -68 c79
-84 149 -162 149 -166 0 -2 -12 -6 -27 -9 -16 -4 -67 -17 -115 -31 l-87 -24
-65 133 c-36 74 -66 139 -66 145 0 6 31 10 78 10 l79 0 54 -58z m-1182 -28
c51 -36 95 -72 97 -78 3 -7 4 -47 2 -89 l-3 -77 -115 75 c-63 40 -115 77 -115
82 1 29 29 153 35 153 4 0 48 -30 99 -66z m435 5 c4 -28 6 -53 4 -54 -2 -2
-70 -46 -153 -99 l-150 -96 -3 37 c-2 21 -1 61 3 88 l6 50 132 62 c73 33 137
62 143 62 6 1 14 -22 18 -50z m635 -282 l-10 -37 -75 151 c-70 142 -74 154
-63 182 12 29 13 28 85 -114 69 -136 73 -146 63 -182z m295 81 c13 -50 10 -53
-129 -108 -74 -29 -137 -51 -140 -49 -4 5 20 108 27 114 4 4 210 63 224 64 7
1 14 -9 18 -21z"/>
<path d="M3230 3259 c-32 -13 -78 -57 -96 -91 -35 -68 -7 -193 53 -236 129
-92 303 -6 303 149 0 66 -22 112 -73 153 -31 25 -48 31 -100 33 -34 2 -73 -2
-87 -8z m52 -41 c-30 -30 -1 -108 50 -134 21 -11 47 -15 80 -12 46 5 48 4 42
-16 -30 -96 -112 -145 -197 -117 -46 15 -94 70 -103 116 -10 53 19 120 64 150
38 26 87 36 64 13z m117 -34 c19 -16 31 -35 31 -50 0 -21 -5 -24 -37 -24 -43
0 -83 32 -83 66 0 41 46 45 89 8z"/>
<path d="M3220 4078 c-13 -5 -50 -34 -82 -64 -75 -72 -134 -98 -218 -98 -79 0
-151 23 -216 69 -61 43 -96 45 -135 6 -57 -57 -30 -129 79 -210 195 -146 395
-142 559 11 82 77 113 130 113 192 0 28 -6 59 -14 68 -19 25 -57 37 -86 26z
m48 -41 c21 -25 24 -64 7 -98 l-18 -33 -28 54 -28 55 21 18 c24 20 32 21 46 4z
m-613 -69 c30 -13 29 -8 7 -82 l-18 -59 -32 37 c-36 41 -43 89 -14 105 22 13
26 13 57 -1z m547 -39 c25 -48 26 -53 11 -76 -18 -27 -49 -47 -56 -36 -3 5
-10 34 -17 65 -12 53 -11 60 5 78 10 11 21 20 24 20 3 0 18 -23 33 -51z m-457
-11 c26 -12 27 -13 20 -82 -4 -39 -9 -72 -10 -74 -7 -7 -75 44 -71 53 2 6 9
34 16 63 8 28 15 52 16 52 2 0 15 -5 29 -12z m364 -72 l18 -66 -26 -19 c-33
-23 -59 -32 -65 -23 -2 4 -7 39 -11 77 l-7 71 34 16 c18 8 34 15 36 13 1 -1
11 -32 21 -69z m-248 34 c17 0 19 -8 19 -80 0 -87 -1 -89 -59 -69 -35 12 -35
10 -20 96 9 50 15 63 26 59 8 -3 23 -6 34 -6z m124 -42 c3 -24 7 -61 8 -83 2
-39 1 -40 -34 -43 -46 -4 -52 10 -43 100 6 66 7 68 35 68 25 0 28 -4 34 -42z"/>
<path d="M2988 4022 c-22 -13 -33 -15 -57 -6 -43 17 -63 0 -32 -26 33 -28 83
-26 120 6 47 40 24 59 -31 26z"/>
</g>
</svg>
